<svg xmlns="http://www.w3.org/2000/svg" width="106.017" height="16.154" viewBox="0 0 106.017 16.154"><path d="M22.879,19.189a4.229,4.229,0,0,1,3.378,1.628V19.4h2.313V29.934H26.9a.658.658,0,0,1-.661-.661v-.759a4.158,4.158,0,0,1-3.365,1.64A5.249,5.249,0,0,1,17.8,24.671a5.249,5.249,0,0,1,5.079-5.483m.416,2.1a3.165,3.165,0,0,0-3.145,3.378,3.153,3.153,0,1,0,6.29,0,3.158,3.158,0,0,0-3.145-3.378M31.2,19.4h2.325v1.432a3.635,3.635,0,0,1,3.206-1.64c2.448,0,4.026,1.726,4.026,4.406v6.339H39.094a.658.658,0,0,1-.661-.661v-5.3c0-1.664-.844-2.68-2.191-2.68-1.542,0-2.717,1.2-2.717,3.451v5.189H31.861a.658.658,0,0,1-.661-.661Zm16.472-.208a4.229,4.229,0,0,1,3.378,1.628V14.135h2.313V29.946H51.7a.658.658,0,0,1-.661-.661v-.759a4.21,4.21,0,0,1-3.378,1.628,5.249,5.249,0,0,1-5.079-5.483,5.267,5.267,0,0,1,5.091-5.483m.416,2.1a3.165,3.165,0,0,0-3.145,3.378,3.153,3.153,0,1,0,6.29,0,3.165,3.165,0,0,0-3.145-3.378m7.906-1.9h2.313v1.872a2.969,2.969,0,0,1,2.778-1.983,4.714,4.714,0,0,1,.906.086v2.386a3.738,3.738,0,0,0-1.163-.2c-1.334,0-2.533,1.114-2.533,3.231v5.14H56.631a.658.658,0,0,1-.661-.661V19.4ZM68.257,30.154a5.483,5.483,0,1,1,5.519-5.483,5.436,5.436,0,0,1-5.519,5.483m0-2.154a3.154,3.154,0,0,0,3.157-3.329,3.173,3.173,0,1,0-6.339,0A3.166,3.166,0,0,0,68.257,28m8.554-10.9a1.548,1.548,0,1,1,0-3.1,1.548,1.548,0,0,1,0,3.1m-1.15,2.3h2.313V29.934H76.322a.658.658,0,0,1-.661-.661Zm9.3-.208a4.229,4.229,0,0,1,3.378,1.628V14.135h2.313V29.946H88.988a.658.658,0,0,1-.661-.661v-.759a4.21,4.21,0,0,1-3.378,1.628,5.249,5.249,0,0,1-5.079-5.483,5.267,5.267,0,0,1,5.091-5.483m.428,2.1a3.165,3.165,0,0,0-3.145,3.378,3.153,3.153,0,1,0,6.29,0,3.165,3.165,0,0,0-3.145-3.378" transform="translate(-17.8 -14)"/><path d="M674.935,26.822a1.175,1.175,0,1,1,1.175-1.175,1.175,1.175,0,0,1-1.175,1.175m-12.935,0a1.175,1.175,0,1,1,1.175-1.175A1.175,1.175,0,0,1,662,26.822m13.352-7.049,2.35-4.051a.485.485,0,1,0-.844-.477l-2.374,4.1a14.34,14.34,0,0,0-6.009-1.3,14.581,14.581,0,0,0-6.021,1.285l-2.374-4.1a.485.485,0,0,0-.844.477l2.337,4.051A13.842,13.842,0,0,0,654.4,30.824h28.11a13.771,13.771,0,0,0-7.159-11.051" transform="translate(-576.493 -14.866)" fill="#3ddc84"/></svg>