<svg xmlns="http://www.w3.org/2000/svg" width="152.822" height="50" viewBox="0 0 152.822 50"><g transform="translate(-2312 -1841.002)"><path d="M6.764,0H146.058a6.765,6.765,0,0,1,6.764,6.759V43.236A6.765,6.765,0,0,1,146.062,50H6.764A6.728,6.728,0,0,1,0,43.236H0V6.764A6.765,6.765,0,0,1,6.759,0Z" transform="translate(2312 1841.002)"/><path d="M41.095,34.939a6.633,6.633,0,0,1,3.167-5.578,6.763,6.763,0,0,0-5.344-2.878c-2.231-.236-4.4,1.35-5.578,1.35S30.4,26.54,28.526,26.54a7.073,7.073,0,0,0-5.989,3.641c-2.584,4.462-.645,11.039,1.819,14.678,1.233,1.761,2.7,3.75,4.58,3.7s2.525-1.175,4.756-1.175,2.878,1.175,4.814,1.116,3.23-1.761,4.462-3.581a14.981,14.981,0,0,0,2.055-4.109A6.317,6.317,0,0,1,41.095,34.939Z" transform="translate(2303.199 1830.13)" fill="#fff"/><path d="M45.737,19.2A6.209,6.209,0,0,0,47.2,14.5a6.541,6.541,0,0,0-4.286,2.231,6.083,6.083,0,0,0-1.527,4.522A5.8,5.8,0,0,0,45.733,19.2Z" transform="translate(2294.917 1835.035)" fill="#fff"/><path d="M91.8,53.008H89.217l-1.406-4.462H82.875l-1.35,4.462H79L83.873,37.8h3.053Zm-4.462-6.341-1.292-3.992c-.117-.411-.411-1.35-.762-2.878h-.058c-.177.645-.411,1.586-.7,2.878l-1.292,3.992Z" transform="translate(2279.478 1825.455)" fill="#fff"/><path d="M114.725,50.231a6.417,6.417,0,0,1-1.527,4.4,4.531,4.531,0,0,1-3.347,1.467,3.234,3.234,0,0,1-3.111-1.586h-.058V60.27h-2.466V48.527c0-1.175-.058-2.344-.117-3.581h2.173l.119,1.766h.058a4.352,4.352,0,0,1,5.989-1.292,6.287,6.287,0,0,1,.938.822,5.794,5.794,0,0,1,1.348,3.994Zm-2.466.117a4.587,4.587,0,0,0-.7-2.642,2.373,2.373,0,0,0-2.112-1.056,2.461,2.461,0,0,0-1.644.587,2.756,2.756,0,0,0-.937,1.586,2.969,2.969,0,0,0-.117.762v1.761a2.969,2.969,0,0,0,.7,2,2.666,2.666,0,0,0,4.052-.236,4.575,4.575,0,0,0,.762-2.759Z" transform="translate(2269.144 1822.607)" fill="#fff"/><path d="M136.225,50.236a6.141,6.141,0,0,1-1.527,4.4,4.531,4.531,0,0,1-3.347,1.467,3.234,3.234,0,0,1-3.111-1.586h-.058v5.753h-2.466V48.539c0-1.175-.058-2.344-.117-3.581h2.114l.117,1.761h.058a4.284,4.284,0,0,1,5.989-1.233,6.287,6.287,0,0,1,.938.822,5.347,5.347,0,0,1,1.406,3.93Zm-2.525.117a4.587,4.587,0,0,0-.7-2.642,2.373,2.373,0,0,0-2.113-1.056,2.461,2.461,0,0,0-1.644.587,2.756,2.756,0,0,0-.937,1.586,2.969,2.969,0,0,0-.117.762v1.761a2.969,2.969,0,0,0,.7,2,2.533,2.533,0,0,0,1.875.822,2.373,2.373,0,0,0,2.113-1.056,3.945,3.945,0,0,0,.822-2.753Z" transform="translate(2260.292 1822.595)" fill="#fff"/><path d="M161.094,48.591a4.136,4.136,0,0,1-1.35,3.172,6.194,6.194,0,0,1-4.109,1.35,7.108,7.108,0,0,1-3.934-.938l.588-2.055a6.8,6.8,0,0,0,3.523,1,3.028,3.028,0,0,0,2.112-.645,2,2,0,0,0,.763-1.644,2.269,2.269,0,0,0-.645-1.586,5.76,5.76,0,0,0-2.112-1.175c-2.642-1-3.992-2.466-3.992-4.345a3.7,3.7,0,0,1,1.406-3.053,5.583,5.583,0,0,1,3.7-1.175,7.969,7.969,0,0,1,3.464.7l-.588,2a6.367,6.367,0,0,0-2.936-.7,2.823,2.823,0,0,0-2,.645,1.866,1.866,0,0,0,.117,2.812,7.364,7.364,0,0,0,2.231,1.175A7.211,7.211,0,0,1,160.211,46a4.05,4.05,0,0,1,.883,2.591Z" transform="translate(2249.547 1825.586)" fill="#fff"/><path d="M176.694,44.922h-2.7v5.344c0,1.35.469,2.055,1.406,2.055a6.47,6.47,0,0,0,1.056-.117l.058,1.875a6.615,6.615,0,0,1-1.875.294,2.92,2.92,0,0,1-2.231-.881,4.375,4.375,0,0,1-.822-2.936V45.039H170V43.1h1.586v-2l2.406-.7v2.7h2.7v1.819Z" transform="translate(2242.008 1824.383)" fill="#fff"/><path d="M194.482,50.23a6.055,6.055,0,0,1-1.467,4.169,5.156,5.156,0,0,1-3.992,1.644,4.844,4.844,0,0,1-3.816-1.586A5.714,5.714,0,0,1,183.8,50.4a6.054,6.054,0,0,1,1.467-4.169,5.6,5.6,0,0,1,7.869-.058,6.25,6.25,0,0,1,1.348,4.052Zm-2.525.058a4.844,4.844,0,0,0-.645-2.584,2.323,2.323,0,0,0-2.173-1.292,2.5,2.5,0,0,0-2.291,1.292,4.659,4.659,0,0,0-.645,2.642,4.973,4.973,0,0,0,.645,2.584,2.47,2.47,0,0,0,3.347,1.056,2.617,2.617,0,0,0,1.056-1.056,5.086,5.086,0,0,0,.7-2.642Z" transform="translate(2236.337 1822.654)" fill="#fff"/><path d="M211.271,47.008a3.347,3.347,0,0,0-.763-.058,2.323,2.323,0,0,0-2,1,3.576,3.576,0,0,0-.588,2.173v5.753h-2.406V48.3c0-1.292-.058-2.406-.117-3.464h2.113l.058,2.112h.058a3.72,3.72,0,0,1,1.233-1.761,3.164,3.164,0,0,1,1.761-.587,2,2,0,0,1,.587.058Z" transform="translate(2227.432 1822.65)" fill="#fff"/><path d="M227.191,49.858a7.1,7.1,0,0,1-.058,1.116h-7.286a3.089,3.089,0,0,0,1.056,2.466,3.583,3.583,0,0,0,2.406.763,8.372,8.372,0,0,0,2.936-.522l.411,1.7a8.792,8.792,0,0,1-3.7.645,5.533,5.533,0,0,1-3.992-1.467,5.625,5.625,0,0,1-1.467-3.992,6.194,6.194,0,0,1,1.35-4.109A4.644,4.644,0,0,1,222.66,44.7a4.145,4.145,0,0,1,3.581,1.761,5.625,5.625,0,0,1,.938,3.4Zm-2.344-.645a3.1,3.1,0,0,0-.469-1.875,2.158,2.158,0,0,0-1.938-1,2.291,2.291,0,0,0-1.938,1,3.686,3.686,0,0,0-.7,1.875Z" transform="translate(2222.492 1822.614)" fill="#fff"/><path d="M87.506,19.339a3.812,3.812,0,0,1-1.175,2.994,4.808,4.808,0,0,1-3.17.937c-.587,0-1.175,0-1.761-.058V15.867a12.142,12.142,0,0,1,2.055-.177,4.358,4.358,0,0,1,2.936.881A3.47,3.47,0,0,1,87.506,19.339Zm-1.233,0a2.553,2.553,0,0,0-.7-2,2.786,2.786,0,0,0-2-.7,5.05,5.05,0,0,0-.937.058v5.637c.294,0,.53.058.822.058a2.864,2.864,0,0,0,2.112-.762,3.541,3.541,0,0,0,.7-2.291Z" transform="translate(2278.486 1834.541)" fill="#fff"/><path d="M99.479,21.955a3.231,3.231,0,0,1-.7,2.055,2.575,2.575,0,0,1-2,.822,2.281,2.281,0,0,1-1.875-.762,3.073,3.073,0,0,1-.7-2,2.928,2.928,0,0,1,.7-2.055,2.764,2.764,0,0,1,1.937-.822,2.281,2.281,0,0,1,1.875.763,2.344,2.344,0,0,1,.763,2Zm-1.233,0a2.514,2.514,0,0,0-.352-1.292,1.169,1.169,0,0,0-1.056-.645,1.259,1.259,0,0,0-1.116.645,2.1,2.1,0,0,0-.294,1.292,2.514,2.514,0,0,0,.352,1.292,1.25,1.25,0,0,0,1.644.53,1.152,1.152,0,0,0,.53-.53,1.931,1.931,0,0,0,.291-1.292Z" transform="translate(2273.225 1833.104)" fill="#fff"/><path d="M113.012,19.4l-1.7,5.4H110.2l-.7-2.344c-.177-.587-.294-1.175-.411-1.761h0c-.117.587-.236,1.175-.411,1.761l-.762,2.344H106.8l-1.6-5.4h1.233l.587,2.584a9.785,9.785,0,0,1,.352,1.7h0c.117-.469.236-1,.469-1.7L108.6,19.4h1l.762,2.525c.177.587.294,1.175.411,1.761h.058l.352-1.761.645-2.525Z" transform="translate(2268.689 1833.016)" fill="#fff"/><path d="M125.8,24.659h-1.175V21.606q0-1.406-1.056-1.406a1.056,1.056,0,0,0-.881.411,1.333,1.333,0,0,0-.352.937V24.72h-1.175V20.845a13.791,13.791,0,0,0-.058-1.527h1.056l.058.822h0a1.563,1.563,0,0,1,.587-.645,2.392,2.392,0,0,1,1.056-.294,2.052,2.052,0,0,1,1.292.469,2.433,2.433,0,0,1,.645,1.761v3.237Z" transform="translate(2262.139 1833.099)" fill="#fff"/><path d="M133.875,23.012H132.7V15.2h1.175Z" transform="translate(2257.359 1834.746)" fill="#fff"/><path d="M142.979,21.955a2.93,2.93,0,0,1-.7,2.055,2.575,2.575,0,0,1-2,.822,2.281,2.281,0,0,1-1.875-.762,2.969,2.969,0,0,1-.7-2,2.928,2.928,0,0,1,.7-2.055,2.764,2.764,0,0,1,1.938-.822,2.281,2.281,0,0,1,1.875.762,2.745,2.745,0,0,1,.762,2Zm-1.233,0a2.514,2.514,0,0,0-.352-1.292,1.169,1.169,0,0,0-1.056-.645,1.259,1.259,0,0,0-1.116.645,2.544,2.544,0,0,0,0,2.584,1.259,1.259,0,0,0,1.116.645,1.109,1.109,0,0,0,1.056-.645A2.367,2.367,0,0,0,141.746,21.955Z" transform="translate(2255.312 1833.104)" fill="#fff"/><path d="M153.494,24.66h-1.056l-.058-.645h-.058a1.977,1.977,0,0,1-1.586.763,1.9,1.9,0,0,1-1.233-.469,1.339,1.339,0,0,1-.411-1.116,1.77,1.77,0,0,1,.822-1.527,4.081,4.081,0,0,1,2.344-.53v-.061a.937.937,0,0,0-.822-1.056h-.3a2.462,2.462,0,0,0-1.406.411l-.236-.763a3.377,3.377,0,0,1,1.819-.469c1.406,0,2.112.762,2.112,2.231V23.42a4.351,4.351,0,0,0,.059,1.231ZM152.2,22.842v-.828c-1.292,0-2,.352-2,1.116a.883.883,0,0,0,.236.645,1.044,1.044,0,0,0,.588.236.938.938,0,0,0,.7-.236.962.962,0,0,0,.411-.645.639.639,0,0,0,.058-.288Z" transform="translate(2250.62 1833.098)" fill="#fff"/><path d="M164.46,22.927H163.4l-.058-.881h-.058a1.745,1.745,0,0,1-1.7,1,2.187,2.187,0,0,1-1.644-.763,3.125,3.125,0,0,1-.645-2,3.075,3.075,0,0,1,.7-2.112,2.187,2.187,0,0,1,1.644-.763,1.739,1.739,0,0,1,1.527.7h0V15h1.175v6.406C164.4,22.045,164.46,22.516,164.46,22.927ZM163.228,20.7V19.462a1.233,1.233,0,0,0-1.233-1,1.25,1.25,0,0,0-1.056.53,1.892,1.892,0,0,0-.352,1.35,1.931,1.931,0,0,0,.294,1.292,1.25,1.25,0,0,0,1.056.53,1.227,1.227,0,0,0,.938-.469,1.594,1.594,0,0,0,.352-1Z" transform="translate(2246.421 1834.828)" fill="#fff"/><path d="M181.879,21.96a2.93,2.93,0,0,1-.7,2.055,2.575,2.575,0,0,1-2,.822,2.281,2.281,0,0,1-1.875-.762,2.969,2.969,0,0,1-.7-2,2.93,2.93,0,0,1,.7-2.055,2.764,2.764,0,0,1,1.938-.822,2.48,2.48,0,0,1,1.875.763A2.745,2.745,0,0,1,181.879,21.96Zm-1.292,0a2.514,2.514,0,0,0-.352-1.292,1.169,1.169,0,0,0-1.056-.645,1.259,1.259,0,0,0-1.116.645,2.544,2.544,0,0,0,0,2.584,1.25,1.25,0,0,0,1.644.53,1.151,1.151,0,0,0,.53-.53,1.681,1.681,0,0,0,.35-1.292Z" transform="translate(2239.296 1833.098)" fill="#fff"/><path d="M193.155,24.659H191.98V21.606c0-.937-.352-1.406-1.116-1.406a1.056,1.056,0,0,0-.881.411,1.333,1.333,0,0,0-.352.937V24.72h-1.175V20.845a13.779,13.779,0,0,0-.058-1.527h1.056l.058.822h.058a1.719,1.719,0,0,1,.645-.645,2.423,2.423,0,0,1,1.116-.294,1.784,1.784,0,0,1,1.233.469,2.433,2.433,0,0,1,.645,1.761l-.058,3.23Z" transform="translate(2234.429 1833.099)" fill="#fff"/><path d="M207.93,19.331h-1.292v2.642c0,.645.236,1,.7,1a1.626,1.626,0,0,0,.53-.058l.058.881a2.435,2.435,0,0,1-.937.117,1.55,1.55,0,0,1-1.116-.411,2.158,2.158,0,0,1-.411-1.467v-2.7H204.7V18.45h.763v-1l1.175-.352v1.35h1.292Z" transform="translate(2227.716 1833.963)" fill="#fff"/><path d="M217.739,23.012h-1.175V19.956c0-.937-.352-1.467-1.116-1.467a1.141,1.141,0,0,0-1.116.822,1,1,0,0,0-.058.411V22.95H213.1V15.2h1.175v3.23h0a1.823,1.823,0,0,1,1.637-.886,1.783,1.783,0,0,1,1.233.469,2.526,2.526,0,0,1,.588,1.819v3.181Z" transform="translate(2224.303 1834.746)" fill="#fff"/><path d="M228.75,21.678a1.623,1.623,0,0,1-.058.53h-3.523a1.691,1.691,0,0,0,.53,1.233,1.736,1.736,0,0,0,1.175.352,4.267,4.267,0,0,0,1.467-.236l.177.822a4.784,4.784,0,0,1-1.819.352,2.786,2.786,0,0,1-2-.7,2.483,2.483,0,0,1-.7-2,3.708,3.708,0,0,1,.645-2.055,2.391,2.391,0,0,1,1.875-.881,1.956,1.956,0,0,1,1.761.881,2.6,2.6,0,0,1,.469,1.7Zm-1.116-.294a1.718,1.718,0,0,0-.236-.938,1.058,1.058,0,0,0-.937-.53,1.141,1.141,0,0,0-.937.469,2.593,2.593,0,0,0-.352.938h2.466v.061Z" transform="translate(2219.808 1833.144)" fill="#fff"/></g></svg>