<svg xmlns="http://www.w3.org/2000/svg" width="152.829" height="50" viewBox="0 0 152.829 50"><g transform="translate(0 0)"><path d="M14.171,55.544c-.352,0-.7,0-1.041-.014a13.161,13.161,0,0,1-2.137-.211,6.284,6.284,0,0,1-1.894-.7A6.369,6.369,0,0,1,7.49,53.3,6.916,6.916,0,0,1,6.315,51.5a8.188,8.188,0,0,1-.625-2.134A17.958,17.958,0,0,1,5.5,46.939c0-.266-.013-1.169-.013-1.169V15.3s0-.9.017-1.156a17.784,17.784,0,0,1,.183-2.42,8.3,8.3,0,0,1,.625-2.144,7.08,7.08,0,0,1,1.162-1.8A6.466,6.466,0,0,1,9.1,6.453a5.978,5.978,0,0,1,1.892-.686,12.73,12.73,0,0,1,2.144-.2l1.041-.019H149.644l1.05.019a13.214,13.214,0,0,1,2.134.2,6.486,6.486,0,0,1,1.9.691,6.672,6.672,0,0,1,1.594,1.309A7.344,7.344,0,0,1,157.5,9.585a7.836,7.836,0,0,1,.609,2.128,17.913,17.913,0,0,1,.2,2.428c0,.367,0,.761,0,1.156.011.469.011.938.011,1.406V44.372c0,.469,0,.928-.011,1.384v1.2a18.352,18.352,0,0,1-.191,2.386,7.169,7.169,0,0,1-3.394,5.255,6.25,6.25,0,0,1-1.9.714,13.169,13.169,0,0,1-2.144.2c-.339,0-.691.014-1.034.014H14.173Z" transform="translate(-5.49 -5.544)"/><path d="M79.6,46.41H65.05c-6.83,0-9.35,2.5-9.35,9.355V70.31c0,6.85,2.511,9.352,9.359,9.352H79.591c6.85,0,9.366-2.5,9.366-9.352V55.769c0-6.85-2.511-9.355-9.359-9.355" transform="translate(-45.413 -38.041)" fill="#ce0e2d" fill-rule="evenodd"/><path d="M76.7,127.547h.883v4.347H76.7v-1.759h-2V131.9H73.83v-4.347h.877v1.755h2Zm4.966,2.489c0,.7-.355,1.081-.983,1.081s-1-.389-1-1.113v-2.459H78.8v2.489a1.719,1.719,0,0,0,1.875,1.92A1.75,1.75,0,0,0,82.553,130v-2.456h-.886Zm10.2.5-1-2.984h-.714l-.983,2.984-.961-2.984h-.937l1.511,4.347h.73l.987-2.853.977,2.858h.742l1.519-4.347h-.914Zm3.456-.509h1.608v-.792H95.325v-.889h2.331v-.792h-3.2V131.9h3.281V131.1H95.325Zm3.463,1.858h.869v-4.339h-.873Zm-14.494-.9-.389.909H83l1.917-4.347H85.7l1.912,4.347h-.928l-.388-.909Zm.33-.781h1.33l-.675-1.562Z" transform="translate(-59.828 -102.55)" fill="#fff"/><path d="M115.373,79.073a5.547,5.547,0,0,1-5.533-5.533h.781a4.753,4.753,0,1,0,9.506,0h.781a5.542,5.542,0,0,1-5.533,5.533" transform="translate(-88.459 -59.613)" fill="#fff"/><path d="M271.629,62.819l-1.466,4.422h-1.875l4.777-14.062h2.187l4.8,14.062H278.11l-1.5-4.422Zm4.611-1.42-1.377-4.047c-.312-.916-.523-1.75-.73-2.572h-.045c-.2.834-.439,1.691-.714,2.545L272,61.387Z" transform="translate(-214.446 -43.426)" fill="#fff"/><path d="M332.3,74.936c0-1.286-.042-2.344-.081-3.3h1.639l.084,1.731h.041a3.97,3.97,0,0,1,3.594-1.961c2.441,0,4.277,2.066,4.277,5.122,0,3.63-2.211,5.43-4.589,5.43a3.544,3.544,0,0,1-3.109-1.586h-.041v5.5H332.3Zm1.816,2.691a4.014,4.014,0,0,0,.084.752,2.831,2.831,0,0,0,2.753,2.144c1.939,0,3.073-1.586,3.073-3.894,0-2.031-1.062-3.75-3-3.75a2.93,2.93,0,0,0-2.775,2.275,3.018,3.018,0,0,0-.125.75Z" transform="translate(-265.276 -57.921)" fill="#fff"/><path d="M387.874,74.936c0-1.286-.042-2.344-.084-3.3h1.639l.081,1.731h.042a3.968,3.968,0,0,1,3.594-1.961c2.441,0,4.277,2.066,4.277,5.122,0,3.63-2.211,5.43-4.589,5.43a3.538,3.538,0,0,1-3.109-1.586h-.044v5.5h-1.8Zm1.816,2.691a4.213,4.213,0,0,0,.081.752,2.833,2.833,0,0,0,2.753,2.144c1.941,0,3.073-1.586,3.073-3.894,0-2.031-1.062-3.75-3-3.75a3.18,3.18,0,0,0-2.9,3.025Z" transform="translate(-309.46 -57.921)" fill="#fff"/><path d="M452.5,66.058a13.137,13.137,0,0,1-4.319.77,6.6,6.6,0,0,1-7.217-7.091,7.052,7.052,0,0,1,7.614-7.259,8.667,8.667,0,0,1,3.5.647l-.439,1.478a7.308,7.308,0,0,0-3.109-.614,5.259,5.259,0,0,0-5.653,5.653,5.156,5.156,0,0,0,5.43,5.673,5.9,5.9,0,0,0,2.42-.375v-4.18h-2.858V59.3h4.631Z" transform="translate(-351.742 -42.869)" fill="#fff"/><path d="M511.141,81.742,511,80.468h-.061a3.762,3.762,0,0,1-3.088,1.5,2.872,2.872,0,0,1-3.087-2.9c0-2.441,2.17-3.777,6.07-3.75v-.208a2.081,2.081,0,0,0-2.294-2.344,5.032,5.032,0,0,0-2.628.752l-.409-1.211a6.286,6.286,0,0,1,3.317-.9c3.088,0,3.837,2.106,3.837,4.13v3.78a14.228,14.228,0,0,0,.169,2.42Zm-.27-5.156c-2-.042-4.277.312-4.277,2.275a1.625,1.625,0,0,0,1.731,1.752,2.511,2.511,0,0,0,2.441-1.689,1.9,1.9,0,0,0,.1-.584Z" transform="translate(-402.463 -57.926)" fill="#fff"/><path d="M554.89,49.52h1.844V64.332H554.89Z" transform="translate(-442.323 -40.515)" fill="#fff"/><path d="M575.75,49.52h1.844V64.332H575.75Z" transform="translate(-458.91 -40.515)" fill="#fff"/><path d="M595.661,77.021a3.234,3.234,0,0,0,3.464,3.506,6.622,6.622,0,0,0,2.8-.523l.313,1.313a8.168,8.168,0,0,1-3.361.625,4.688,4.688,0,0,1-4.963-5.089c0-3.041,1.792-5.444,4.733-5.444,3.3,0,4.173,2.9,4.173,4.755a6.93,6.93,0,0,1-.062.858Zm5.381-1.312a2.614,2.614,0,0,0-2.545-2.983,3.045,3.045,0,0,0-2.812,2.983Z" transform="translate(-473.354 -57.921)" fill="#fff"/><path d="M645.674,74.787c0-1.189-.02-2.211-.084-3.144H647.2l.062,1.981h.084a3.026,3.026,0,0,1,2.8-2.211,2,2,0,0,1,.52.061v1.731a2.79,2.79,0,0,0-.625-.061,2.572,2.572,0,0,0-2.459,2.356,5.038,5.038,0,0,0-.084.858v5.383h-1.817Z" transform="translate(-514.44 -57.918)" fill="#fff"/><path d="M675.935,72.515l2.211,5.966c.23.669.48,1.461.647,2.066h.041c.189-.614.4-1.377.647-2.106l2-5.923h1.934L680.661,79.7c-1.313,3.462-2.211,5.234-3.463,6.32a4.975,4.975,0,0,1-2.253,1.189l-.458-1.544a4.892,4.892,0,0,0,1.606-.9,5.594,5.594,0,0,0,1.544-2.048,1.3,1.3,0,0,0,.142-.439,1.565,1.565,0,0,0-.123-.48l-3.727-9.3Z" transform="translate(-536.974 -58.794)" fill="#fff"/><path d="M270.159,169.9a.614.614,0,0,1-1.209,0,.594.594,0,0,1,.614-.614.58.58,0,0,1,.594.614Zm-1.094,6.875v-5.366h.977v5.366Z" transform="translate(-214.968 -135.742)" fill="#fff"/><path d="M280.87,167.42h.977v7.869h-.977Z" transform="translate(-224.447 -134.258)" fill="#fff"/><path d="M291.721,182.036a1.719,1.719,0,0,0,1.844,1.858,3.511,3.511,0,0,0,1.486-.286l.166.7a4.32,4.32,0,0,1-1.783.334,2.5,2.5,0,0,1-2.639-2.7,2.6,2.6,0,0,1,2.516-2.894,2.272,2.272,0,0,1,2.217,2.527,3.867,3.867,0,0,1-.033.455Zm2.869-.7a1.389,1.389,0,0,0-1.353-1.584,1.616,1.616,0,0,0-1.5,1.584Z" transform="translate(-232.34 -143.508)" fill="#fff"/><path d="M331.392,169.37h.963v3.614h.034c.2-.286.4-.556.586-.8l2.286-2.8h1.2l-2.7,3.17,2.916,4.3h-1.144l-2.459-3.669-.714.82v2.85h-.963Z" transform="translate(-264.618 -135.809)" fill="#fff"/><path d="M364.109,173.336H361.2v2.7h3.237v.82h-4.2V169.37h4.034v.809H361.2v2.362h2.906Z" transform="translate(-287.554 -135.809)" fill="#fff"/><path d="M388.147,169.9a2.969,2.969,0,0,0-1.417-.355c-1.025,0-1.406.614-1.406,1.119,0,.7.453,1.042,1.483,1.428,1.264.487,1.908,1.094,1.908,2.187a2.1,2.1,0,0,1-1.944,2.1l-.3.5a.869.869,0,0,1,.781.831c0,.642-.572.9-1.131.9a1.76,1.76,0,0,1-.8-.189l.166-.5a1.285,1.285,0,0,0,.614.142c.256,0,.469-.1.469-.334,0-.3-.342-.42-.858-.469l.442-.82h-.045a3.793,3.793,0,0,1-1.906-.477l.244-.809a3.412,3.412,0,0,0,1.728.487c.986,0,1.563-.52,1.563-1.275,0-.7-.4-1.094-1.406-1.486-1.219-.428-1.972-1.062-1.972-2.116a2.144,2.144,0,0,1,2.416-2.031,3.39,3.39,0,0,1,1.652.367Z" transform="translate(-306.603 -135.309)" fill="#fff"/><path d="M411.1,169.37h4.023v.809h-3.059v2.481h2.827v.8h-2.827v3.383H411.1Z" transform="translate(-327.995 -135.809)" fill="#fff"/><path d="M439.169,173.336h-2.906v2.7H439.5v.82h-4.2V169.37h4.036v.809h-3.073v2.362h2.9Z" transform="translate(-347.236 -135.809)" fill="#fff"/><path d="M460.372,169.261a13.906,13.906,0,0,1,2.048-.156,4.269,4.269,0,0,1,3.025.938,3.48,3.48,0,0,1,1.053,2.681,3.97,3.97,0,0,1-1.073,2.9,4.641,4.641,0,0,1-3.3,1.076,15.6,15.6,0,0,1-1.752-.089Zm.964,6.6a6,6,0,0,0,.977.056,2.87,2.87,0,0,0,3.18-3.17,2.664,2.664,0,0,0-3.027-2.88,5.325,5.325,0,0,0-1.128.1Z" transform="translate(-367.17 -135.597)" fill="#fff"/><path d="M495.16,161.916a.563.563,0,0,1,.556-.556.552.552,0,0,1,.53.556.543.543,0,1,1-1.086,0ZM496.185,163v7.47h-.963V163Z" transform="translate(-394.832 -129.44)" fill="#fff"/><path d="M507.33,176.844v-7.472h1.047l2.394,3.778a21.115,21.115,0,0,1,1.342,2.428l.023-.012c-.091-1-.109-1.906-.109-3.073v-3.125h.908v7.472h-.977l-2.373-3.791a23.87,23.87,0,0,1-1.4-2.5l-.033.012c.056.938.078,1.844.078,3.073v3.192Z" transform="translate(-404.507 -135.811)" fill="#fff"/></g></svg>