<svg xmlns="http://www.w3.org/2000/svg" width="37.336" height="17.381" viewBox="0 0 37.336 17.381"><path d="M34.587,2.785A3.907,3.907,0,0,0,35.486,0a3.875,3.875,0,0,0-2.568,1.329A3.658,3.658,0,0,0,32,4.006a3.233,3.233,0,0,0,2.59-1.221" transform="translate(-24.964)"/><path d="M10.511,19.127c-1.431-.085-2.647.812-3.33.812s-1.73-.769-2.861-.748A4.219,4.219,0,0,0,.733,21.369C-.8,24.019.327,27.949,1.822,30.106c.726,1.068,1.6,2.243,2.753,2.2,1.089-.043,1.516-.705,2.84-.705s1.707.705,2.86.684c1.2-.021,1.943-1.068,2.669-2.137a9.483,9.483,0,0,0,1.2-2.456,3.88,3.88,0,0,1-2.327-3.525,3.954,3.954,0,0,1,1.879-3.311,4.09,4.09,0,0,0-3.181-1.73" transform="translate(0 -14.928)"/><g transform="translate(17.215 1.192)"><path d="M82.871,5.438v3.1h2.482v1.986H82.871v7.347c0,1.129.5,1.663,1.576,1.663a8.162,8.162,0,0,0,.893-.062V21.46a7.076,7.076,0,0,1-1.44.112c-2.52,0-3.512-.981-3.512-3.475V10.526H78.5V8.54h1.886v-3.1Z" transform="translate(-78.503 -5.438)"/><path d="M122.8,32.543h-2.619l-4.7-12.957h2.606l3.388,10.462h.05l3.388-10.462h2.582Z" transform="translate(-107.366 -16.483)"/></g></svg>