<svg xmlns="http://www.w3.org/2000/svg" width="204.454" height="50" viewBox="0 0 204.454 50"><path d="M33.971.239l9.765,26.836A54.283,54.283,0,0,1,25.438,38.6a55.239,55.239,0,0,1-16.7,3.117L0,15.473a62.391,62.391,0,0,0,17.28-4.2A57.377,57.377,0,0,0,33.966.232l.005.007" transform="translate(0 0.146)" fill="#cc1526"/><path d="M145.46,39.678h-7.266L152.174,7.766h7.264ZM155.532.01h7.375l-2.533,5.829H153Zm-12.925,0h7.264L132.478,39.678h-7.264ZM124.175,15.194a1.972,1.972,0,0,0-2.2-2.2c-2.092,0-5.451,2.586-8.535,7.041a24.551,24.551,0,0,0-1.541,2.588C118.619,22.183,124.175,19.1,124.175,15.194ZM109.044,30.6c0,2.256.935,3.3,2.969,3.3,2.644,0,5.889-1.869,9.852-5.719l2.53,5.555c-3.519,3.8-8.419,6.715-13.153,6.715-5.833,0-9.027-3.19-9.027-8.64,0-3.958,1.6-8.635,4.678-13.368C111.242,11.73,117.131,7,123.239,7c4.736,0,7.707,2.858,7.707,7.373,0,7.922-8.311,13.48-21.466,13.976A9.361,9.361,0,0,0,109.044,30.6ZM98.594,16.182c0-1.6-.768-2.474-2.7-2.474-2.312,0-5.4,2.256-8.09,5.943-3.3,4.51-4.954,8.415-4.954,11.5a2.373,2.373,0,0,0,2.588,2.588c2.641,0,6.492-2.967,9.9-7.755l2.806,5.887c-3.194,4.292-7.981,8.584-13.979,8.584-5.283,0-8.311-3.631-8.311-8.64,0-5.5,2.7-10.783,6.328-15.457C86.706,10.519,91.987,7,97.05,7c5.23,0,7.928,3.081,7.928,7.648a13.881,13.881,0,0,1-.443,3.468l-6.493.933A9.04,9.04,0,0,0,98.594,16.182Zm-18.7-8.911a6.834,6.834,0,0,1,3.633,1.1L79.671,15.14a5.817,5.817,0,0,0-1.983-.278c-4.072,0-8.09,4.348-11.391,11.885L60.625,39.676H53.361L67.342,7.765H74.5l-2.639,6C74.606,9.472,76.532,7.271,79.891,7.271ZM36.413,31.756a2.37,2.37,0,0,0,2.642,2.69c2.918,0,6.275-3.134,8.642-7.477.329-.608.659-1.265.935-1.871C39.659,25.646,36.413,28.453,36.413,31.756ZM51.163,16.4c0-1.926-.661-2.858-2.421-2.858-2.477,0-6.275,2.366-9.8,5.831l-1.651-6.161C40.817,9.913,45.6,7,50.174,7c4.731,0,7.705,3.19,7.705,8.143,0,3.9-1.817,9.353-4.237,13.587-3.579,6.328-8.7,11.722-15.246,11.722-5.228,0-8.7-3.245-8.7-8.141,0-7.7,7.1-12,20.971-12.546A12.928,12.928,0,0,0,51.163,16.4ZM83.679,41.876,85.6,47.138a10.067,10.067,0,0,1-6.863,2.872l-1.714-5.147a12.073,12.073,0,0,0,3.39-.821A11.238,11.238,0,0,0,83.679,41.876Zm74.761-2.2h-7.266L168.568.01h7.264l-7.76,17.605L181.775,6.5l1.815,6.163L171.208,22.29l3.027,17.386h-6.66l-2.366-15.571L158.44,39.678" transform="translate(20.864 -0.01)"/></svg>