<svg xmlns="http://www.w3.org/2000/svg" width="87.995" height="50" viewBox="0 0 87.995 50"><path d="M15.747,17.8a8.759,8.759,0,0,1-1.056,4.366,3.89,3.89,0,0,1-2.43,1.887,3.849,3.849,0,0,1-2.928-.525,4.957,4.957,0,0,1-1.826-2.559,11.116,11.116,0,0,1-.462-4.505A7.627,7.627,0,0,1,8.4,12.551a3.8,3.8,0,0,1,4.994-.922,4.656,4.656,0,0,1,1.69,2.188,10.084,10.084,0,0,1,.669,3.984Zm6.776-2.886a14.326,14.326,0,0,1-.031,5.289,10.844,10.844,0,0,1-2.219,4.861,10.539,10.539,0,0,1-4.935,3.305,13.439,13.439,0,0,1-5.429.566,11.317,11.317,0,0,1-6.036-2.349A10.21,10.21,0,0,1,.421,21.214,12.592,12.592,0,0,1,0,18.439Q0,9.22,0,0h7q0,3.507,0,7.014A14.253,14.253,0,0,1,14,6.474a10.246,10.246,0,0,1,8.523,8.441ZM45.631,0q3.383,0,6.764,0c.007,5.212-.007,10.426.009,15.639a1.031,1.031,0,0,0,.275-.333c1.879-2.851,3.771-5.7,5.644-8.551,2.934-.011,5.868,0,8.8,0q-4.275,5.111-8.561,10.21c-.062.059-.1.148-.019.209,3.17,3.768,6.364,7.517,9.53,11.288-2.87.005-5.74,0-8.611,0a.187.187,0,0,1-.193-.086c-2.29-3.326-4.567-6.66-6.868-9.979-.017,3.349.009,6.7-.013,10.046-.946.044-1.9.006-2.855.018h-3.9Q45.627,14.23,45.631,0ZM44.21,19.8q-7.011,0-14.022,0a3.889,3.889,0,0,0,1.29,2.587A6.9,6.9,0,0,0,35.567,23.9a19.557,19.557,0,0,0,6.783-.862c.294,1.528.6,3.053.89,4.582a21.8,21.8,0,0,1-8.1,1.336,14.862,14.862,0,0,1-4.874-.832,9.987,9.987,0,0,1-3.09-1.785,9.232,9.232,0,0,1-2.348-3.091,12.35,12.35,0,0,1-1.091-5.3,13.072,13.072,0,0,1,1.03-5.231,10.181,10.181,0,0,1,8.842-6.4,11.559,11.559,0,0,1,4.541.462,8.26,8.26,0,0,1,3.239,1.959,9.209,9.209,0,0,1,1.987,2.94A14.777,14.777,0,0,1,44.21,19.8ZM30.158,15.159h8a4.994,4.994,0,0,0-1.1-3.282,3.472,3.472,0,0,0-2.607-1.107,3.741,3.741,0,0,0-2.656.924,5.344,5.344,0,0,0-1.633,3.464Zm57.764.814a12.852,12.852,0,0,1-1.7,8.126,10.406,10.406,0,0,1-5.664,4.28,13.5,13.5,0,0,1-5.377.56,11.579,11.579,0,0,1-5.3-1.8,9.923,9.923,0,0,1-3.507-4.028,13.162,13.162,0,0,1-.913-7.846,10.366,10.366,0,0,1,8.123-8.632A14.623,14.623,0,0,1,75.793,6.3a13.123,13.123,0,0,1,5.42.707,10.006,10.006,0,0,1,5.159,4.207,11.288,11.288,0,0,1,1.549,4.761ZM80.927,19a11.178,11.178,0,0,0-.5-4.945,4.862,4.862,0,0,0-1.712-2.381,3.809,3.809,0,0,0-4.613.377,5.614,5.614,0,0,0-1.477,2.618,11.711,11.711,0,0,0-.343,3.907,8.748,8.748,0,0,0,.784,3.134A4.435,4.435,0,0,0,74.87,23.7a3.919,3.919,0,0,0,2.5.382,3.709,3.709,0,0,0,2.309-1.525A7.551,7.551,0,0,0,80.926,19ZM20.074,40.372Q52.7,35.781,85.33,31.2c.016,2.279.009,4.558,0,6.835-6.205.855-12.406,1.74-18.611,2.6Q33.363,45.317,0,50c0-2.273-.009-4.545,0-6.818C6.7,42.26,13.384,41.3,20.074,40.372Z" transform="translate(0 0.002)" fill="#0089cf" fill-rule="evenodd"/></svg>