<svg xmlns="http://www.w3.org/2000/svg" width="153.332" height="50" viewBox="0 0 153.332 50"><g transform="translate(0 -0.006)"><g transform="translate(0 0.006)"><path d="M0,.15H9.969V13.21A19.427,19.427,0,1,1,25.76,48.52a19.719,19.719,0,0,1-12.5,0A19.5,19.5,0,0,1,2.771,39.887,19.241,19.241,0,0,1,0,30.3Q0,15.2,0,.17ZM18.3,20.567a9.71,9.71,0,0,0-8.454,9.55A9.431,9.431,0,0,0,11.843,36.1,9.644,9.644,0,1,0,24.365,21.863a9.969,9.969,0,0,0-6.061-1.3ZM42.927.15H52.7V26.209c0,1.894,0,3.828.1,5.722a7.975,7.975,0,0,0,6.54,7.337V49.1a17.945,17.945,0,0,1-9.85-3.988,15.951,15.951,0,0,1-5.224-6.958,27,27,0,0,1-1.336-9.531Zm19.26,10.228h9.77v19.1a16.47,16.47,0,0,0,.4,3.988,8.394,8.394,0,0,0,4.267,5.124,7.218,7.218,0,0,0,6.54-.219,7.8,7.8,0,0,0,3.589-3.988,15.094,15.094,0,0,0,.658-5.324V10.438H96.9V23.1a93.172,93.172,0,0,1-.259,10.288,19.619,19.619,0,0,1-1,4.805,16.13,16.13,0,0,1-4.9,6.739,16.908,16.908,0,0,1-14.276,3.988,17.247,17.247,0,0,1-7.317-3.33,16.409,16.409,0,0,1-5.5-6.819,27.635,27.635,0,0,1-1.555-10.527V10.458Z" transform="translate(0 0.136)" fill="#0075fc"/><path d="M57.1,1.828A3.031,3.031,0,0,1,60.872.173a2.971,2.971,0,0,1,1.994,2.692V10.84h7.975a2.552,2.552,0,0,1,1.994.578,3.07,3.07,0,0,1,.9,1.376Q79.714,27.748,85.895,42.7q5.842-14.475,11.644-28.931a4.686,4.686,0,0,1,1.1-1.994,3.23,3.23,0,0,1,4.027.179,2.712,2.712,0,0,1,.638,2.931q-6.7,16.19-13.419,32.36a4.705,4.705,0,0,1-5.523,2.592,4.546,4.546,0,0,1-2.612-1.874,13.582,13.582,0,0,1-.778-1.635q-6.261-15.153-12.5-30.266H62.826V39.87A4.446,4.446,0,0,0,65.438,44.3V49.84A8.474,8.474,0,0,1,59.3,47.746a7.975,7.975,0,0,1-2.133-4.267,22.948,22.948,0,0,1-.219-4.386V16.064H52.737a2.572,2.572,0,0,1-1.715-.638,2.751,2.751,0,0,1-.16-3.848,2.393,2.393,0,0,1,1.874-.738h4.207V3.5A3.628,3.628,0,0,1,57.1,1.828Z" transform="translate(49.846 -0.006)" fill="#282842"/></g></g></svg>