<svg xmlns="http://www.w3.org/2000/svg" width="97.143" height="109.181" viewBox="0 0 97.143 109.181"><g transform="translate(0 -0.268)"><path d="M97.138,32.367a9.641,9.641,0,0,0-1.187-4.85,9.275,9.275,0,0,0-3.515-3.424Q73.038,12.907,53.631,1.737a9.527,9.527,0,0,0-10.324.1c-5.148,3.036-30.919,17.8-38.6,22.249A8.97,8.97,0,0,0,0,32.363Q0,54.858,0,77.352A9.683,9.683,0,0,0,1.136,82.11,9.243,9.243,0,0,0,4.7,85.627c7.68,4.448,33.455,19.212,38.6,22.249a9.527,9.527,0,0,0,10.327.1q19.393-11.2,38.809-22.356a9.246,9.246,0,0,0,3.567-3.517,9.7,9.7,0,0,0,1.135-4.758s0-29.985,0-44.981" transform="translate(0 0)" fill="#5c8dbc"/><path d="M50.573,143.509l-47.585,27.4a9.243,9.243,0,0,0,3.567,3.517c7.68,4.448,33.455,19.212,38.6,22.249a9.527,9.527,0,0,0,10.327.1q19.393-11.2,38.809-22.356A9.246,9.246,0,0,0,97.86,170.9L50.573,143.509" transform="translate(-1.852 -88.797)" fill="#1a4674"/><path d="M91.1,151.625a16.06,16.06,0,0,0,27.943-.093l-13.849-8.022L91.1,151.625" transform="translate(-56.475 -88.797)" fill="#1a4674"/><path d="M176.6,76.809a9.641,9.641,0,0,0-1.187-4.85l-47.231,27.2,47.288,27.394a9.7,9.7,0,0,0,1.135-4.758s0-29.985,0-44.981" transform="translate(-79.462 -44.442)" fill="#1b598e"/><path d="M208.657,136.608h-3.7v3.7h-3.7v-3.7h-3.695v-3.695h3.695v-3.7h3.7v3.7h3.7v3.695m-13.484,0h-3.695v3.7h-3.7v-3.7h-3.7v-3.695h3.7v-3.7h3.7v3.7h3.695v3.695" transform="translate(-114.119 -79.938)" fill="#fff"/><path d="M89.174,99.155a16.064,16.064,0,1,1-.1-15.936l14.041-8.085a32.26,32.26,0,1,0,.084,32.144l-14.02-8.123" transform="translate(-26.604 -36.421)" fill="#fff"/></g></svg>