<svg xmlns="http://www.w3.org/2000/svg" width="60.01" height="67.489" viewBox="0 0 60.01 67.489"><g transform="translate(-35.275 -21.685)"><path d="M95.269,41.542a5.978,5.978,0,0,0-.731-3,5.722,5.722,0,0,0-2.171-2.116Q80.388,29.511,68.4,22.614a5.874,5.874,0,0,0-6.376.063c-3.178,1.868-19.094,11-23.836,13.747a5.542,5.542,0,0,0-2.9,5.115V69.348a6.006,6.006,0,0,0,.7,2.941A5.691,5.691,0,0,0,38.2,74.463C42.94,77.222,58.858,86.34,62.036,88.216a5.878,5.878,0,0,0,6.378.063Q80.391,81.36,92.381,74.46a5.691,5.691,0,0,0,2.207-2.174,6.006,6.006,0,0,0,.7-2.941v-27.8Z" transform="translate(-0.008 -0.014)" fill="#004482"/><path d="M174,107.991a5.992,5.992,0,0,1-.7,2.941,5.126,5.126,0,0,1-.4.618L144,94.087,171.089,75.07a5.716,5.716,0,0,1,2.168,2.116,5.951,5.951,0,0,1,.734,3C174,89.454,174,107.991,174,107.991Z" transform="translate(-78.73 -38.657)" fill="#00599c"/><path d="M94.528,38.529,35.974,72.275a6,6,0,0,1-.7-2.938V41.525a5.547,5.547,0,0,1,2.9-5.115C42.924,33.659,58.84,24.53,62.02,22.657a5.869,5.869,0,0,1,6.373-.063q11.976,6.919,23.966,13.819A5.716,5.716,0,0,1,94.528,38.529Z" transform="translate(0)" fill="#659ad2"/><path d="M90.789,98.052a11.01,11.01,0,0,1-9.656-5.691q-.146-.259-.276-.53a11.019,11.019,0,0,1,18.429-11.8c.146.177.276.361.422.552.066.091.132.182.193.276l9.675-5.573q-.353-.568-.739-1.1c-.135-.19-.276-.372-.408-.552A22.043,22.043,0,0,0,71.422,97.279c.094.177.19.35.276.524a22.046,22.046,0,0,0,37.757,1l-9.46-5.719a11,11,0,0,1-9.206,4.969Z" transform="translate(-24.36 -31.388)" fill="#fff"/></g></svg>