<svg xmlns="http://www.w3.org/2000/svg" xmlns:xlink="http://www.w3.org/1999/xlink" width="80.883" height="53.326" viewBox="0 0 80.883 53.326"><defs><clipPath id="a"><rect width="80.883" height="53.326" fill="none"/></clipPath><clipPath id="c"><rect width="33.161" height="23.353" fill="none"/></clipPath><clipPath id="f"><rect width="79.776" height="23.218" fill="none"/></clipPath><clipPath id="g"><rect width="79.776" height="23.219" fill="none"/></clipPath><clipPath id="i"><rect width="74.886" height="27.726" fill="none"/></clipPath><clipPath id="j"><rect width="74.886" height="27.725" fill="none"/></clipPath></defs><g clip-path="url(#a)"><g clip-path="url(#a)"><path d="M16.9,149.51a2.463,2.463,0,0,1,1.659.487c.054.5-.4,1.316-.685,1.316a2.94,2.94,0,0,0-1.064-.2c-1.641,0-2.452,1.695-2.452,3.372,0,1.046.361,1.677,1.19,1.677a3.822,3.822,0,0,0,2.29-1.046.95.95,0,0,1,.288.7,1.379,1.379,0,0,1-.433,1.028,4.079,4.079,0,0,1-2.957,1.064c-1.623,0-2.74-.919-2.74-3.065,0-2.812,1.857-5.336,4.886-5.336Z" transform="translate(-8.389 -104.586)" fill="#292828"/><path d="M39.194,156.074c.883,0,2.488-1.551,2.939-4.507a3.334,3.334,0,0,1,.072-.415,2.353,2.353,0,0,0-2.7.9,5.1,5.1,0,0,0-.9,2.867c0,.757.216,1.154.577,1.154Zm-2.9-.811A6.279,6.279,0,0,1,38,150.99a5.086,5.086,0,0,1,3.84-1.479,15.63,15.63,0,0,1,2.722.415c-.18.793-.613,3.786-.811,5.517a13.653,13.653,0,0,0-.09,2.146,6.8,6.8,0,0,1-2.019.325c-.162,0-.2-.739-.144-1.442.018-.234.054-.577.072-.721a4.395,4.395,0,0,1-3.552,2.163c-1.046,0-1.731-.865-1.731-2.632Z" transform="translate(-25.386 -104.586)" fill="#292828"/><path d="M69.734,149.506a2.6,2.6,0,0,1,1.767.613c-.018.505-.415,1.352-1.046,1.118a2.681,2.681,0,0,0-.9-.162c-.487,0-.9.216-.9.667,0,.343.252.6,1.46,1.442a2.318,2.318,0,0,1,1.208,1.983c0,1.316-1.244,2.741-3.408,2.741A2.522,2.522,0,0,1,66,157.2c-.325-.541-.072-1.6.289-1.425a4.719,4.719,0,0,0,1.875.487c.595,0,.974-.27.974-.631,0-.306-.27-.577-1.37-1.352a2.423,2.423,0,0,1-1.208-2.037,2.9,2.9,0,0,1,3.155-2.74Z" transform="translate(-46.065 -104.582)" fill="#292828"/><path d="M90.433,149.506a2.593,2.593,0,0,1,1.767.613c-.018.505-.415,1.352-1.046,1.118a2.683,2.683,0,0,0-.9-.162c-.487,0-.9.216-.9.667,0,.343.252.6,1.46,1.442a2.318,2.318,0,0,1,1.208,1.983c0,1.316-1.244,2.741-3.408,2.741a2.521,2.521,0,0,1-1.911-.7c-.325-.541-.072-1.6.288-1.425a4.715,4.715,0,0,0,1.875.487c.595,0,.974-.27.974-.631,0-.306-.27-.577-1.37-1.352a2.423,2.423,0,0,1-1.208-2.037,2.9,2.9,0,0,1,3.155-2.74Z" transform="translate(-60.544 -104.582)" fill="#292828"/><path d="M111.61,156.074c.884,0,2.488-1.551,2.939-4.507a3.333,3.333,0,0,1,.072-.415,2.353,2.353,0,0,0-2.7.9,5.1,5.1,0,0,0-.9,2.867c0,.757.216,1.154.577,1.154Zm-2.9-.811a6.279,6.279,0,0,1,1.713-4.273,5.086,5.086,0,0,1,3.84-1.479,15.637,15.637,0,0,1,2.723.415c-.18.793-.613,3.786-.811,5.517a13.653,13.653,0,0,0-.09,2.146,6.8,6.8,0,0,1-2.019.325c-.162,0-.2-.739-.144-1.442.018-.234.054-.577.072-.721a4.395,4.395,0,0,1-3.552,2.163c-1.046,0-1.732-.865-1.732-2.632v-.018Z" transform="translate(-76.042 -104.586)" fill="#292828"/><path d="M142.3,151.855a4.135,4.135,0,0,1,3.425-2.344c1.28,0,1.695,1.19,1.461,2.885-.126.794-.343,1.929-.487,2.975a14.362,14.362,0,0,0-.2,2.218,7.571,7.571,0,0,1-2.146.325,4.285,4.285,0,0,1,.018-2.038c.144-.865.451-2.434.595-3.335.09-.523.072-1.154-.433-1.154-.667,0-2.253,1.064-3.047,5.427a.935.935,0,0,1-.4.7,4.449,4.449,0,0,1-2.019.325c.216-1.1.559-3.354.811-5.012a13.982,13.982,0,0,0,.27-2.867,19.307,19.307,0,0,1,2.091-.45c.2,0,.235.559.054,1.911-.018.126-.036.324-.054.432Z" transform="translate(-97.282 -104.586)" fill="#292828"/><path d="M173.155,146.573c.793,0,2.4-1.479,2.849-4.093.018-.144.072-.415.108-.577a1.413,1.413,0,0,0-1.028-.361c-1.822,0-2.633,2.182-2.633,3.751,0,.847.289,1.28.685,1.28Zm-1.19,1.857c-1.154,0-1.875-1.028-1.875-2.794,0-2.921,1.821-5.608,4.886-5.608a2.739,2.739,0,0,1,1.334.325c.162-.829.541-3.39.559-4.147a16.642,16.642,0,0,1,2.073-.252c.2,0,.253.2.18.649-.433,2.7-1.208,7.9-1.352,9.052a18.714,18.714,0,0,0-.108,2.469,6.818,6.818,0,0,1-2.055.306c-.127,0-.2-.829-.163-1.568.018-.234.054-.577.054-.631a4.083,4.083,0,0,1-3.516,2.2Z" transform="translate(-118.982 -95.103)" fill="#292828"/><path d="M204.4,152.107c.956-2.128,2.091-2.6,2.831-2.6a1.2,1.2,0,0,1,.757.325,3.811,3.811,0,0,1-.811,2.236,1.778,1.778,0,0,0-.794-.216c-.613,0-1.821.956-2.578,5.066-.054.343-.162.487-.361.577a7.332,7.332,0,0,1-2.091.343c.27-1.479.739-4.489.919-6.257a9.869,9.869,0,0,0,.036-1.6,9.438,9.438,0,0,1,2-.469c.163,0,.289.992.036,2.6Z" transform="translate(-140.848 -104.586)" fill="#292828"/><path d="M225.909,156.074c.884,0,2.488-1.551,2.94-4.507a3.227,3.227,0,0,1,.072-.415,2.353,2.353,0,0,0-2.7.9,5.1,5.1,0,0,0-.9,2.867c0,.757.216,1.154.577,1.154Zm-2.9-.811a6.279,6.279,0,0,1,1.713-4.273,5.086,5.086,0,0,1,3.84-1.479,15.644,15.644,0,0,1,2.723.415c-.18.793-.613,3.786-.811,5.517a13.615,13.615,0,0,0-.09,2.146,6.8,6.8,0,0,1-2.02.325c-.162,0-.2-.739-.144-1.442.018-.234.054-.577.072-.721a4.395,4.395,0,0,1-3.552,2.163c-1.046,0-1.731-.865-1.731-2.632v-.018Z" transform="translate(-155.998 -104.586)" fill="#292828"/><path d="M96.554,23.252c.595,6.93-10.312,13.527-24.361,14.732s-25.92-3.437-26.514-10.366S55.991,14.089,70.04,12.885,95.96,16.32,96.554,23.252" transform="translate(-31.937 -8.881)" fill="#ace2fa"/></g><g transform="translate(21.472 4.814)"><g clip-path="url(#c)"><g transform="translate(0 0)" opacity="0.35"><g clip-path="url(#c)"><path d="M88.5,16.022c-5.359-.087-11.63,2.041-16.3,4.033a13.482,13.482,0,0,0-.747,4.431c0,8.221,7.423,14.886,16.581,14.886s16.581-6.665,16.581-14.886a13.644,13.644,0,0,0-2.052-7.174A105.533,105.533,0,0,0,88.5,16.022" transform="translate(-71.459 -16.019)" fill="#fff"/></g></g></g></g><g clip-path="url(#a)"><path d="M95.555,15.989c-2.967-.18-8.08,1.367-12.345,2.911A12.673,12.673,0,0,0,82.2,23.857c0,7.2,6.532,13.044,13.44,13.044,6.863,0,12.936-5.849,13.44-13.042a11.268,11.268,0,0,0-1.762-6.453,115.228,115.228,0,0,0-11.765-1.418" transform="translate(-57.502 -11.174)" fill="#fff"/><path d="M96.269,22.908a8.753,8.753,0,0,1,1.449-1.876,4.19,4.19,0,0,1-.189-.864,1.465,1.465,0,0,1,2.008-1.361,10.691,10.691,0,0,1,8.837-1.939c.293.066.581.146.864.234a12.576,12.576,0,0,0-9.188,2.648,3.61,3.61,0,0,1,.281.879c0,.811-.524,1.007-1.334,1.007a1.465,1.465,0,0,1-.523-.1,14.864,14.864,0,0,0-1.553,3.024,11.462,11.462,0,0,0,4.147,2.233c0-.075.054-.145.054-.222a4.575,4.575,0,0,1,4.593-4.428,4.42,4.42,0,0,1,4.357,3.68,10.531,10.531,0,0,0,2.953-2.257,2.6,2.6,0,0,1-.391-1.2,1.332,1.332,0,0,1,1.331-1.331,1.315,1.315,0,0,1,.3.038,11.654,11.654,0,0,0,.914-2.648c-3.82-2.827-11.21-2.441-11.21-2.441s-5.881-.307-9.863,1.633a11.726,11.726,0,0,0,2.161,5.288" transform="translate(-65.831 -11.171)" fill="#292828"/><path d="M151.938,27.942a2.457,2.457,0,0,1,.533.665c.357.642-.359,1.23-1.095,1.23a1.318,1.318,0,0,1-.22-.022,14.01,14.01,0,0,1-3.568,3.789,11.216,11.216,0,0,1,5.324,2.338,15.8,15.8,0,0,0,1.908-7.1,5.061,5.061,0,0,0-2-4.1,14.558,14.558,0,0,1-.882,3.2" transform="translate(-103.242 -17.306)" fill="#292828"/><path d="M104.126,55.381c.658-1.818,2.278-3.227,3.81-4.467a8.541,8.541,0,0,1-.7-1.426,10.721,10.721,0,0,1-4.8-3.04c-.009.041-.021.081-.03.122a9.721,9.721,0,0,0-.166,3.223,1.927,1.927,0,0,1,1.572,1.893,2.946,2.946,0,0,1-.871,1.722,9.066,9.066,0,0,0,1.191,1.974" transform="translate(-71.471 -32.491)" fill="#292828"/><path d="M90.044,39.548a14.3,14.3,0,0,1-1.838-3.317,1.95,1.95,0,0,1-.293.025c-1.065,0-2.181-.894-1.929-1.928a1.913,1.913,0,0,1,1.178-1.259,13.551,13.551,0,0,1,.09-4.123,7.911,7.911,0,0,1,.357-.854,11.3,11.3,0,0,1-1.935-6.217c0-.082,0-.163.006-.244-1.986,1-3.475,2.565-3.475,5.036,0,5.464,3.146,10.824,7.829,12.925,0-.014.007-.03.01-.044" transform="translate(-57.504 -15.132)" fill="#292828"/><path d="M122.007,56.118a4.414,4.414,0,0,1-6.9,2.01,12.977,12.977,0,0,0-3.671,5.168,10.247,10.247,0,0,0,.9.934,16.656,16.656,0,0,0,3.751,0,13.192,13.192,0,0,0,11.3-5.783,11.908,11.908,0,0,0-5.386-2.33" transform="translate(-77.953 -39.256)" fill="#292828"/><path d="M95.866,25.033a10.686,10.686,0,0,1,1.354-2.228,1.465,1.465,0,0,1,1.914-1.876,10.691,10.691,0,0,1,8.837-1.939c.293.066.581.146.864.234a11.768,11.768,0,0,0-8.89,2.5,1.466,1.466,0,0,1-1.875,1.94A9.871,9.871,0,0,0,96.742,26.1a10.927,10.927,0,0,0,4.16,2.824c0-.075-.012-.15-.012-.227a4.42,4.42,0,0,1,8.778-.745,11.471,11.471,0,0,0,2.867-2.614,1.313,1.313,0,0,1-.3-.837,1.332,1.332,0,0,1,1.331-1.331,1.314,1.314,0,0,1,.3.038,11.654,11.654,0,0,0,.914-2.648c-3.819-2.829-11.21-2.443-11.21-2.443S97.686,17.8,93.7,19.745a11.726,11.726,0,0,0,2.161,5.288" transform="translate(-65.549 -12.657)" fill="#0075a3"/><path d="M152.686,29.646a1.326,1.326,0,0,1-.888,2.316,1.3,1.3,0,0,1-.219-.022,10.774,10.774,0,0,1-3.215,3.233,10.764,10.764,0,0,1,5.181,2.329,13.368,13.368,0,0,0,1.7-6.536,5.061,5.061,0,0,0-2-4.1,10.711,10.711,0,0,1-.555,2.782" transform="translate(-103.784 -18.792)" fill="#0075a3"/><path d="M104.049,57.3a10.729,10.729,0,0,1,3.335-4.689,4.415,4.415,0,0,1-.55-1,10.721,10.721,0,0,1-4.8-3.04c-.009.041-.021.081-.03.12a9.7,9.7,0,0,0-.166,3.224,1.926,1.926,0,0,1,.951,3.31,11.557,11.557,0,0,0,1.264,2.077" transform="translate(-71.19 -33.978)" fill="#0075a3"/><path d="M89.756,41.009A10.744,10.744,0,0,1,87.8,38.353a1.919,1.919,0,0,1-2.224-1.9v0a1.927,1.927,0,0,1,1.088-1.734,10.692,10.692,0,0,1,.18-3.648c.079-.352.175-.7.286-1.032A10.665,10.665,0,0,1,85.271,24c0-.082,0-.163.006-.243-1.986,1-3.475,2.565-3.475,5.035a13.439,13.439,0,0,0,7.945,12.266c0-.014.007-.029.01-.044" transform="translate(-57.222 -16.615)" fill="#0075a3"/><path d="M122.154,58.243a4.414,4.414,0,0,1-6.9,2.01,10.952,10.952,0,0,0-3.434,4.693,11.965,11.965,0,0,0,1.022.976,13.45,13.45,0,0,0,14.665-5.687,11.271,11.271,0,0,0-5.354-1.992" transform="translate(-78.221 -40.742)" fill="#0075a3"/></g><path d="M110.459,25.46l.072,4.618-2.314-4.139,1.253,4.4-3.756-2.73,2.941,3.7-4.662-1.713,3.679,2.721-4.717.145,4.823,1.245-4.827,1.044,4.765.345L103.7,37.659l4.138-1.5-2.871,3.635,3.628-2.926-1.306,4.88,2.8-3.972-.392,4.69,1.59-4.251,1.352,4.468.331-4.482,2.009,3.824-1.187-4.374,3.678,2.851-2.374-3.633,4.035,1.573-3.086-3.032,4.138.323-4.075-1.562,4.085-.975h0l-4.1-.21,3.338-2.551-3.786,1.358,2.572-3.566-3.555,2.363,1.243-4.177-2.441,3.443-.056-4.349L111.8,29.38Z" transform="translate(-72.017 -17.81)" fill="#fff"/><g transform="translate(0.586 0.961)"><g clip-path="url(#f)"><g transform="translate(0.001 0)" opacity="0.35"><g clip-path="url(#g)"><path d="M1.953,26.415C14.626,13.742,24.747,9.83,33.932,8.044c1.215-.236,1.445-2.892,1.445-2.892s.17,1.956,1.022,2.211S38.355,4.3,38.355,4.3s-1.022,2.977,0,3.147,2.892-2.892,2.892-2.892-.765,2.636-.255,2.806,3.06-3.827,3.06-3.827-1.532,2.636-.085,2.892,3.556-1.8,3.556-1.8-1.659,1.88-.919,2.139C49.751,7.874,52.3,3.784,52.3,3.784a13.777,13.777,0,0,1-2.121,3.75c3.317.85,5.78-4.147,5.78-4.147l-2.464,5c1.276.681,6.379-5.188,6.379-5.188S57.235,7.789,55.7,8.725c.85.681,3.912-2.041,3.912-2.041S57.15,9.745,58.084,9.916c1.361,1.106,6.378-5.7,6.378-5.7a34.517,34.517,0,0,1-4.848,7.144c2.417,1.209,8.42-6.549,8.42-6.549s-.17,2.467-4.507,6.379c3.232-.425,7.4-6.55,7.4-6.55a20.309,20.309,0,0,1-5.188,7.824c3.173-.331,8.25-8.165,8.25-8.165s-1.956,5.443-5.953,8.59c4.423.978,10.8-5.613,10.8-5.613s-2.509,4.678-5.784,6.591c3.658,1.4,8.676-4.379,8.676-4.379s-5.018,7.74-13.011,7.4C66.1,16.778,58.161,8.931,41.162,9.575c-22.454.85-27.217,10.376-39.209,16.84" transform="translate(-1.953 -3.196)" fill="#292828"/></g></g></g></g><g clip-path="url(#a)"><path d="M3.682,23.217C16.355,10.544,26.475,6.633,35.661,4.846c1.216-.236,1.446-2.892,1.446-2.892s.17,1.956,1.022,2.211S40.084,1.1,40.084,1.1s-1.022,2.977,0,3.147,2.892-2.892,2.892-2.892S42.211,4,42.72,4.165,45.782.338,45.782.338,44.25,2.975,45.7,3.23s3.555-1.8,3.555-1.8-1.659,1.88-.919,2.139C51.48,4.677,54.026.587,54.026.587a13.789,13.789,0,0,1-2.12,3.75c3.317.851,5.78-4.147,5.78-4.147l-2.464,5C56.5,5.868,61.6,0,61.6,0s-2.636,4.592-4.167,5.529c.85.681,3.912-2.041,3.912-2.041s-2.467,3.062-1.532,3.232c1.361,1.106,6.378-5.7,6.378-5.7a34.545,34.545,0,0,1-4.848,7.144c2.417,1.209,8.42-6.55,8.42-6.55s-.17,2.467-4.507,6.379c3.232-.425,7.4-6.55,7.4-6.55a20.311,20.311,0,0,1-5.188,7.825c3.173-.331,8.25-8.165,8.25-8.165S73.763,6.547,69.766,9.7c4.423.978,10.8-5.613,10.8-5.613s-2.509,4.677-5.784,6.591c3.657,1.4,8.675-4.381,8.675-4.381s-5.018,7.74-13.012,7.4c-2.622-.112-10.557-7.958-27.556-7.314-22.453.85-27.216,10.376-39.208,16.84" transform="translate(-2.576)" fill="#292828"/></g><g transform="translate(0.255 15.063)"><g clip-path="url(#i)"><g transform="translate(0 -0.001)" opacity="0.35"><g clip-path="url(#j)"><path d="M.848,60.631c6.7,3.36,12.822-.511,20.54,1.665,5.868,1.653,13.012,3.693,22.708,2.29s17.99-5.613,21.944-13.14c1.232-3.359,6.25.766,6.25.766s-3.657-1.532-3.571-.808S74.2,54.635,74.2,54.635s-4.891-1.531-4.593-.383,6.124,5.741,6.124,5.741-6.591-5.018-7.144-4.338S71.4,59.1,71.4,59.1s-5.571-3.445-7.527-2.429c-1.407.73,5.784,5.448,5.784,5.448s-4.678-3.572-5.784-2.637,5.273,8.59,5.273,8.59-7.23-7.825-7.952-7.442,2,4.125,2,4.125-3.572-3.913-4.55-3.232,5.1,10.844,5.1,10.844S57.151,61.95,54.43,63.692c4.274,9.377,2.679,10.717,2.679,10.717s-.545-9.566-5.869-9.315c-2.679.128,1.276,7.144,1.276,7.144s-3.64-6.409-6.064-6.28c4.468,8.455,2.875,11.894,2.875,11.894s.739-7.221-5.321-11.24c2.3,2.041-1.442,11.24-1.442,11.24S45.851,64.3,40.139,66.882c-.9.407-.064,6.761-.064,6.761s-1.147-7.271-2.87-6.888c-1,.223-6.379,10.078-6.379,10.078s4.4-10.652,3.062-10.206c-.976.326-2.807,4.72-2.807,4.72s.893-4.338,0-4.593-5.867,4.593-5.867,4.593,3.7-4.338,3.062-5.231a2.566,2.566,0,0,0-3.445-.893c-1.956.763-4.592,4.337-4.592,4.337s2.628-3.62,2.168-4.976c-.737-2.178-8.293,4.21-8.293,4.21s4.466-4.21,3.446-5.1S11,63.076,9.268,63.071c-5.1-.016-6.871-1.213-8.42-2.44" transform="translate(-0.848 -50.128)" fill="#292828"/></g></g></g></g><g clip-path="url(#a)"><path d="M0,58.083c6.7,3.36,12.821-.511,20.539,1.666,5.868,1.653,13.013,3.693,22.708,2.289S61.237,56.424,65.191,48.9c1.232-3.359,6.25.765,6.25.765s-3.657-1.531-3.571-.807,5.485,3.232,5.485,3.232-4.891-1.531-4.593-.382,6.124,5.741,6.124,5.741-6.592-5.018-7.144-4.337,2.807,3.443,2.807,3.443-5.571-3.443-7.527-2.428c-1.407.73,5.783,5.448,5.783,5.448S64.127,56,63.022,56.935s5.274,8.59,5.274,8.59-7.23-7.825-7.953-7.442,2,4.125,2,4.125-3.573-3.912-4.55-3.232,5.1,10.844,5.1,10.844S56.3,59.4,53.581,61.145c4.274,9.377,2.679,10.716,2.679,10.716s-.545-9.566-5.869-9.313c-2.679.128,1.276,7.144,1.276,7.144s-3.64-6.409-6.064-6.28c4.468,8.455,2.875,11.894,2.875,11.894s.739-7.223-5.321-11.241c2.3,2.041-1.441,11.24-1.441,11.24s3.288-13.557-2.424-10.973c-.9.408-.064,6.761-.064,6.761s-1.149-7.272-2.87-6.889c-1,.223-6.379,10.078-6.379,10.078s4.4-10.652,3.062-10.206c-.976.325-2.807,4.72-2.807,4.72s.893-4.337,0-4.592S24.367,68.8,24.367,68.8s3.7-4.335,3.062-5.229a2.566,2.566,0,0,0-3.444-.892c-1.957.762-4.593,4.337-4.593,4.337s2.628-3.62,2.169-4.976c-.738-2.178-8.293,4.21-8.293,4.21s4.466-4.21,3.446-5.1-6.562-.617-8.293-.622c-5.1-.016-6.871-1.213-8.42-2.44" transform="translate(0 -33.283)" fill="#292828"/></g></g></svg>