<svg xmlns="http://www.w3.org/2000/svg" xmlns:xlink="http://www.w3.org/1999/xlink" width="19.365" height="19.365" viewBox="0 0 19.365 19.365"><defs><linearGradient id="a" y1="0.5" x2="1" y2="0.5" gradientUnits="objectBoundingBox"><stop offset="0" stop-color="#d93025"/><stop offset="1" stop-color="#ea4335"/></linearGradient><linearGradient id="b" x1="-0.136" y1="0.991" x2="0.729" y2="-0.009" gradientUnits="objectBoundingBox"><stop offset="0" stop-color="#fcc934"/><stop offset="1" stop-color="#fbbc04"/></linearGradient><linearGradient id="c" x1="0.773" y1="0.958" x2="0.169" y2="-0.042" gradientUnits="objectBoundingBox"><stop offset="0" stop-color="#1e8e3e"/><stop offset="1" stop-color="#34a853"/></linearGradient></defs><ellipse cx="4.841" cy="4.841" rx="4.841" ry="4.841" transform="translate(4.842 4.84)" fill="#fff"/><path d="M1.295,14.519A9.681,9.681,0,1,0,4.838,1.295,9.681,9.681,0,0,0,1.295,14.519ZM13.871,7.258A4.841,4.841,0,1,1,7.258,5.487,4.841,4.841,0,0,1,13.871,7.258Z" transform="translate(0.004 0.004)" fill="none"/><path d="M11.6,4.841h8.383a9.679,9.679,0,0,0-16.766,0L7.409,12.1h0A4.835,4.835,0,0,1,11.6,4.841Z" transform="translate(-1.918 0.002)" fill="url(#a)"/><ellipse cx="3.832" cy="3.832" rx="3.832" ry="3.832" transform="translate(5.851 5.851)" fill="#1a73e8"/><path d="M28.19,19.264,24,26.524A9.679,9.679,0,0,0,32.38,12H24v0a4.835,4.835,0,0,1,4.193,7.257Z" transform="translate(-14.315 -7.16)" fill="url(#b)"/><path d="M5.49,19.266,1.3,12.006A9.679,9.679,0,0,0,9.683,26.525l4.191-7.26,0,0a4.835,4.835,0,0,1-8.381,0Z" transform="translate(0.001 -7.161)" fill="url(#c)"/></svg>