<svg xmlns="http://www.w3.org/2000/svg" xmlns:xlink="http://www.w3.org/1999/xlink" width="314" height="39.264" viewBox="0 0 314 39.264"><defs><linearGradient id="a" x1="0.991" y1="1.127" x2="0.339" y2="0.378" gradientUnits="objectBoundingBox"><stop offset="0.18" stop-color="#0052cc"/><stop offset="1" stop-color="#2684ff"/></linearGradient><linearGradient id="b" x1="4.599" y1="-53.649" x2="3.946" y2="-54.398" xlink:href="#a"/></defs><g transform="translate(0.049)"><g transform="translate(-0.049 0)"><path d="M117.137,38.4c-2.221,1.464-5.74,2.11-9.42,2.11-11.69,0-18.3-7.038-18.3-18.242,0-10.828,6.608-18.408,18.193-18.408,3.464,0,6.928.652,9.475,2.461v4.713a16.5,16.5,0,0,0-9.475-2.461c-8.337,0-13.32,5.537-13.32,13.7s5.144,13.591,13.591,13.591a19.971,19.971,0,0,0,9.229-2.166Z" transform="translate(-34.374 -1.485)" fill="#253858"/><path d="M140,31.712c0-8.121,4.762-14.022,12.883-14.022s12.779,5.9,12.779,14.022-4.713,14.151-12.779,14.151S140,39.833,140,31.712Zm4.547,0c0,5.144,2.547,9.8,8.337,9.8s8.232-4.657,8.232-9.8-2.461-9.69-8.226-9.69-8.331,4.547-8.331,9.69Z" transform="translate(-53.834 -6.806)" fill="#253858"/><path d="M213.54,45.3h-4.657V28.954c0-4.873-1.95-7.038-6.386-7.038-4.307,0-7.309,2.867-7.309,8.337V45.3H190.53V18.23h4.657v4.442a9.487,9.487,0,0,1,8.552-4.984c6.226,0,9.8,4.307,9.8,11.751Z" transform="translate(-73.276 -6.805)" fill="#253858"/><path d="M243.413,11.425H250.4v4.307h-6.983V38.5h-4.547V15.732H234.48V11.425h4.387V8.447c0-5.033,2.818-8.447,8.614-8.447a11.191,11.191,0,0,1,3.138.431V4.737a15.381,15.381,0,0,0-2.922-.271c-2.867,0-4.307,1.68-4.307,4.116Z" transform="translate(-90.185 0)" fill="#253858"/><path d="M275.754,38.726c-4.442,0-7.254-2.11-7.254-7.094V.18h4.657V31.09c0,2.461,1.624,3.3,3.63,3.3a11.794,11.794,0,0,0,1.354-.055V38.51a9.912,9.912,0,0,1-2.387.215Z" transform="translate(-103.274 -0.069)" fill="#253858"/><path d="M290.58,18.57h4.657V34.917c0,4.873,1.95,7.038,6.386,7.038,4.307,0,7.309-2.867,7.309-8.337V18.57h4.67V45.641h-4.657V41.2a9.487,9.487,0,0,1-8.552,4.984c-6.226,0-9.8-4.307-9.8-11.745Z" transform="translate(-111.77 -7.145)" fill="#253858"/><path d="M351.343,45.832c-10.127,0-14.563-5.845-14.563-14.151,0-8.177,4.547-14.022,12.779-14.022,8.337,0,11.69,5.8,11.69,14.022v2.11H341.493c.652,4.6,3.63,7.58,10.016,7.58a24,24,0,0,0,8.232-1.464v4.307C357.514,45.4,354.106,45.832,351.343,45.832Zm-9.906-16h15.1c-.271-5.033-2.547-7.906-7.2-7.906-4.928-.031-7.42,3.162-7.906,7.875Z" transform="translate(-129.545 -6.794)" fill="#253858"/><path d="M408.54,45.3h-4.657V28.954c0-4.873-1.95-7.038-6.386-7.038-4.307,0-7.309,2.867-7.309,8.337V45.3H385.53V18.23h4.657v4.442a9.487,9.487,0,0,1,8.552-4.984c6.226,0,9.8,4.307,9.8,11.751Z" transform="translate(-148.301 -6.805)" fill="#253858"/><path d="M451.579,44.567a14.988,14.988,0,0,1-6.608,1.231c-9.635,0-14.151-5.845-14.151-14.151,0-8.177,4.491-14.022,14.151-14.022a14.311,14.311,0,0,1,6.442,1.3V23.23a13.646,13.646,0,0,0-6.116-1.3c-7.039,0-9.906,4.442-9.906,9.69s2.922,9.752,10.01,9.752a17.1,17.1,0,0,0,6.153-.972Z" transform="translate(-165.726 -6.778)" fill="#253858"/><path d="M485.1,45.832c-10.127,0-14.563-5.845-14.563-14.151,0-8.177,4.547-14.022,12.779-14.022,8.337,0,11.69,5.8,11.69,14.022v2.11H475.247c.652,4.6,3.63,7.58,10.016,7.58a24,24,0,0,0,8.232-1.464v4.307C491.274,45.4,487.866,45.832,485.1,45.832Zm-9.906-16h15.1c-.271-5.033-2.547-7.906-7.2-7.906-4.928-.031-7.42,3.162-7.906,7.875Z" transform="translate(-181.009 -6.794)" fill="#253858"/><path d="M1.353,43.426c-.4.652-.849,1.409-1.231,2.012a1.231,1.231,0,0,0,.412,1.673l8,4.922a1.231,1.231,0,0,0,1.7-.418c.32-.535.732-1.231,1.181-1.975,3.169-5.23,6.356-4.59,12.1-1.846l7.931,3.772a1.231,1.231,0,0,0,1.655-.615l3.808-8.614a1.231,1.231,0,0,0-.615-1.612c-1.673-.788-5-2.356-8-3.8C17.522,31.687,8.361,32.026,1.353,43.426Z" transform="translate(0.049 -12.953)" fill="url(#a)"/><path d="M38.2,12.246c.4-.652.849-1.409,1.231-2.012a1.231,1.231,0,0,0-.412-1.673l-8-4.922a1.231,1.231,0,0,0-1.753.406c-.32.535-.732,1.231-1.181,1.975-3.169,5.23-6.356,4.59-12.1,1.846L8.079,4.112a1.231,1.231,0,0,0-1.655.615L2.615,13.341a1.231,1.231,0,0,0,.615,1.612c1.673.788,5,2.356,8,3.8C22.033,23.985,31.194,23.634,38.2,12.246Z" transform="translate(-0.936 -1.319)" fill="url(#b)"/></g></g></svg>