<svg xmlns="http://www.w3.org/2000/svg" width="64.266" height="90.11" viewBox="0 0 64.266 90.11"><g transform="translate(0 -0.818)"><g transform="translate(12.857 0.819)"><path d="M68.37.845C72.319.8,76.268.83,80.217.828c.009,1.235.028,2.471-.017,3.706-2.736-.019-5.47,0-8.2.017-.019,1.794-.055,3.588-.038,5.382,2.746.017,5.493.043,8.238.032.032,1.015.021,2.035-.009,3.052-3.938-.026-7.876-.015-11.813-.011C68.383,8.952,68.391,4.9,68.37.845Z" transform="translate(-68.37 -0.819)"/><path d="M138.777.832c4-.008,8-.032,12,.013-.015,1.168,0,2.334,0,3.5q-4.364-.014-8.729.038.006.688,0,1.377c2.905.047,5.809.053,8.712.07.011,2.394.006,4.786.021,7.178q-6-.011-12,.015c-.021-.967-.023-1.931.006-2.9,2.772.008,5.546.011,8.317-.011.017-.622.024-1.247.023-1.869-2.785,0-5.572.009-8.357-.009C138.762,5.769,138.762,3.3,138.777.832Z" transform="translate(-125.521 -0.819)"/><path d="M209.562,1h11.973c.017,1.173.034,2.347,0,3.518-2.922,0-5.845.015-8.767.021.008.48.019.959.043,1.439,2.905-.013,5.811.023,8.714.053.026,2.383.045,4.765.011,7.148q-6-.017-12,.008c-.024-.963-.032-1.929.009-2.892q4.149.031,8.3-.009c.008-.624.021-1.249.015-1.871-2.778.026-5.557.011-8.336,0C209.524,5.944,209.543,3.471,209.562,1Z" transform="translate(-182.972 -0.966)"/></g><g transform="translate(0 18.05)"><path d="M0,92.451q32.134,0,64.266,0c-1.179,13.323-2.339,26.647-3.567,39.966q-1.094,12.77-2.275,25.533c-4.572,1.211-9.1,2.591-13.667,3.808-4.2,1.232-8.428,2.347-12.628,3.569H32c-4-1.188-8.032-2.234-12.028-3.423-4.716-1.271-9.391-2.689-14.109-3.955-.615-6.377-1.17-12.757-1.717-19.138C3.118,127.024,2,115.242,1,103.452.658,99.9.412,96.343,0,92.8v-.352m32.234,5.256c-.045,2.559.034,5.121-.045,7.678-7.349-.026-14.7-.006-22.049,0,.126,2.484.459,4.951.8,7.415,6.838.254,13.684-.009,20.522.2-5.982,2.683-12.037,5.211-18.045,7.838a8.106,8.106,0,0,0-1.527.737c.051,2.729.491,5.442.685,8.165,3.644-.013,7.287-.071,10.931-.077,2.92-.015,5.843.043,8.763-.021-.139,4.487.043,8.979-.094,13.466-1.965-.291-3.906-.73-5.863-1.078-1.544-.337-3.125-.511-4.647-.953-.216-2.153-.367-4.314-.559-6.469a4.867,4.867,0,0,0-1.361-.13c-2.208.013-4.417-.008-6.627.026a123.161,123.161,0,0,0,1.222,12.383c2.178.568,4.359,1.125,6.533,1.717,3.33.906,6.7,1.66,10.038,2.552a4.215,4.215,0,0,0,1.209.2c.222,2.725.051,5.467.092,8.2a16.726,16.726,0,0,0,2.268-.543c6.315-1.715,12.622-3.462,18.933-5.194.314-2.482.461-4.981.709-7.469q.984-11.345,2.006-22.688c.807-8.65,1.5-17.31,2.317-25.96C49.707,97.7,40.97,97.678,32.234,97.707Z" transform="translate(0 -92.448)" fill="#0170ba"/></g><g transform="translate(32.121 23.294)"><path d="M170.923,120.35c8.737-.028,17.474,0,26.212-.011-.812,8.65-1.51,17.31-2.317,25.96q-1.032,11.342-2.007,22.688c-.248,2.488-.395,4.987-.709,7.469-6.311,1.732-12.618,3.479-18.933,5.194a16.721,16.721,0,0,1-2.268.543c-.041-2.732.13-5.474-.092-8.2l.228-.045c5.873-1.474,11.706-3.1,17.566-4.624.741-8.312,1.563-16.62,2.084-24.949-4.983.026-9.969.011-14.952.032-.726,0-1.452,0-2.174-.053,2.682-1.38,5.5-2.475,8.255-3.706,2.642-1.2,5.316-2.321,7.968-3.5a7.382,7.382,0,0,0,1.506-.78,12.41,12.41,0,0,0,.237-1.991c.152-2.106.423-4.2.525-6.309-7.058-.056-14.115-.008-21.174-.045C170.957,125.47,170.878,122.909,170.923,120.35Z" transform="translate(-170.81 -120.336)" fill="#29a9df"/><path d="M171.194,290.135c3.407-.058,6.817.034,10.226.011-.19,3.485-.48,6.964-.66,10.448-2.089.683-4.21,1.26-6.317,1.892A24.549,24.549,0,0,0,171.1,303.6C171.237,299.115,171.055,294.622,171.194,290.135Z" transform="translate(-171.045 -258.188)" fill="#29a9df"/></g><g transform="translate(10.14 30.973)"><path d="M53.92,161.186c7.349-.008,14.7-.028,22.049,0,.1,8.086-.024,16.172.081,24.255-2.92.064-5.843.006-8.763.021-3.644.006-7.287.064-10.931.077-.194-2.723-.634-5.437-.685-8.165a8.106,8.106,0,0,1,1.527-.737c6.008-2.627,12.063-5.154,18.045-7.838-6.838-.2-13.684.058-20.522-.2C54.379,166.137,54.046,163.67,53.92,161.186Z" transform="translate(-53.92 -161.171)" fill="#cfcfcf"/><path d="M69.76,315.966c2.21-.034,4.419-.013,6.627-.026a4.867,4.867,0,0,1,1.361.13c.192,2.155.342,4.316.559,6.469,1.521.442,3.1.617,4.647.953,1.958.348,3.9.786,5.863,1.078.188,2.73-.141,5.48.173,8.2l-.228.045a4.214,4.214,0,0,1-1.209-.2c-3.336-.891-6.708-1.645-10.038-2.552-2.174-.592-4.355-1.149-6.533-1.717A123.16,123.16,0,0,1,69.76,315.966Z" transform="translate(-66.781 -286.836)" fill="#cfcfcf"/></g><g transform="translate(32.175 30.986)"><path d="M171.113,161.24c7.059.038,14.117-.011,21.174.045-.1,2.108-.372,4.2-.525,6.309a12.409,12.409,0,0,1-.237,1.991,7.381,7.381,0,0,1-1.506.78c-2.652,1.175-5.326,2.3-7.968,3.5-2.753,1.232-5.574,2.326-8.255,3.706.722.053,1.448.056,2.174.053,4.983-.021,9.969-.006,14.952-.032-.521,8.329-1.343,16.637-2.084,24.949-5.86,1.527-11.693,3.15-17.566,4.624-.314-2.721.015-5.47-.173-8.2a24.549,24.549,0,0,1,3.344-1.115c2.106-.632,4.227-1.209,6.317-1.892.181-3.485.47-6.964.66-10.448-3.409.023-6.819-.07-10.226-.011C171.089,177.412,171.209,169.326,171.113,161.24Z" transform="translate(-171.1 -161.24)" fill="#fff"/></g></g></svg>