<svg xmlns="http://www.w3.org/2000/svg" xmlns:xlink="http://www.w3.org/1999/xlink" width="88.675" height="88.656" viewBox="0 0 88.675 88.656"><defs><radialGradient id="a" cx="0.5" cy="0.5" r="0.5" gradientTransform="matrix(1, 0, 0, -1, 0, 0.886)" gradientUnits="objectBoundingBox"><stop offset="0" stop-color="#fff" stop-opacity="0.102"/><stop offset="1" stop-color="#fff" stop-opacity="0"/></radialGradient></defs><g transform="translate(-1.88 -0.59)"><path d="M19.96,79.276,4.8,64.114a10.312,10.312,0,0,1-2.918-7,11.783,11.783,0,0,1,1.166-4.084l14-29.159Z" transform="translate(0 -8.118)" fill="#01579b"/><path d="M79.99,18.67,64.828,3.508A10.464,10.464,0,0,0,58.413.59a10.794,10.794,0,0,0-5.25,1.166l-27.993,14Z" transform="translate(-8.121)" fill="#40c4ff"/><path d="M48.972,123.586H85.719V107.837L58.305,99.09,33.23,107.837Z" transform="translate(-10.932 -34.347)" fill="#40c4ff"/><path d="M25.17,71.119c0,4.676.586,5.829,2.918,8.167l2.332,2.332H82.908L57.247,52.459,25.17,23.88Z" transform="translate(-8.121 -8.121)" fill="#29b6f6"/><path d="M71.819,23.87H25.16L82.9,81.608H98.647V45.448l-18.66-18.66C77.368,24.157,75.037,23.87,71.819,23.87Z" transform="translate(-8.118 -8.118)" fill="#01579b"/><path d="M28.664,79.863c-2.332-2.345-2.918-4.65-2.918-8.747V24.456l-.586-.586V71.109c.007,4.1.007,5.236,3.5,8.754l1.752,1.752h0Z" transform="translate(-8.118 -8.118)" fill="#fff" opacity="0.2"/><path d="M128.669,56.11V92.27H112.92l.586.58h15.749V56.7Z" transform="translate(-38.719 -19.36)" fill="#263238" opacity="0.2"/><path d="M79.99,26.788C77.1,23.9,74.728,23.87,71.243,23.87H25.17l.586.586H71.25c1.732,0,6.129-.293,8.74,2.332Z" transform="translate(-8.121 -8.118)" fill="#fff" opacity="0.2"/><path d="M89.953,36.75,71.873,18.67,56.71,3.508A10.464,10.464,0,0,0,50.295.59a10.794,10.794,0,0,0-5.25,1.166l-27.993,14-14,29.159A11.783,11.783,0,0,0,1.89,48.995a10.312,10.312,0,0,0,2.918,7L18.785,69.869a15.758,15.758,0,0,0,1.192,1.29l.586.586L22.315,73.5,37.477,88.659l.586.586H74.81V73.5H90.558V37.337Z" transform="translate(-0.003)" opacity="0.2" fill="url(#a)"/></g></svg>