<svg xmlns="http://www.w3.org/2000/svg" xmlns:xlink="http://www.w3.org/1999/xlink" width="139.562" height="75.71" viewBox="0 0 139.562 75.71"><defs><radialGradient id="a" cx="0.983" cy="0.998" r="2.714" gradientTransform="translate(0.319) scale(0.362 1)" gradientUnits="objectBoundingBox"><stop offset="0.007" stop-color="#021192"/><stop offset="0.03" stop-color="#021096"/><stop offset="0.057" stop-color="#010cb4"/><stop offset="0.084" stop-color="#0008ce"/><stop offset="0.111" stop-color="#0006d7"/><stop offset="0.138" stop-color="#0004e1"/><stop offset="0.165" stop-color="#0001fa"/><stop offset="0.191" stop-color="#0000fe"/><stop offset="0.216" stop-color="#0f1eff"/><stop offset="1" stop-color="aqua" stop-opacity="0"/></radialGradient></defs><g transform="translate(-0.465 -0.3)"><g transform="translate(0.465 0.3)"><g transform="translate(0 28.321)"><path d="M99.1,232.127a63.586,63.586,0,0,1-7.015.7l-.644,2.012a29.035,29.035,0,0,1,4.386-.027s.6-.067.671.684a11.6,11.6,0,0,1-.054,1.449s-.04.456-.684.563c-.7.121-5.473.3-5.473.3l-.778,2.616s-.282.6.362.429a44.709,44.709,0,0,1,6.264-.966,1.78,1.78,0,0,1,1.247,1.958c-.268,1.046-5.258,4.239-8.3,4.011,0,0-1.6.107-2.951-2.052-1.261-2.052.483-5.956.483-5.956s-.791-1.824-.215-2.428a2.433,2.433,0,0,1,1.341-.389l1.221-2.535a2.86,2.86,0,0,1-2.227-.926c-.778-.979-.832-1.422-.241-1.69a41.832,41.832,0,0,1,10.436-1.234s1.4-.134,2.589,2.28C99.5,230.92,100.094,231.9,99.1,232.127Zm-15.037,9.738c-.51,1.207-1.865,2.495-3.541,1.69s-4.306-6.211-4.306-6.211-1.006-2.012-1.194-1.972c0,0-.215-.389-.349,1.811s.027,6.479-.845,7.15a1.558,1.558,0,0,1-2.361-.389c-.469-.778-.671-2.629-.416-5.875.309-3.246,1.06-6.707,2.025-7.793a1.242,1.242,0,0,1,2.039-.013,23.584,23.584,0,0,1,3.421,4.6l.376.63a28.539,28.539,0,0,0,2.133,3.233s.161.148.3.04c.2-.054.121-1.1.121-1.1a62.984,62.984,0,0,0-2.16-9.51,2.767,2.767,0,0,1-.08-1.449c.174-.711.885-.376.885-.376s2.736,1.368,4.051,5.822A16.368,16.368,0,0,1,84.064,241.865ZM70.624,230.423a1.721,1.721,0,0,1-1.516,1.288s-11.04.751-11.563,1.529c0,0-.389.456.215.59s3.1.456,4.306.523c1.288.013,5.634.054,7.19,2a4.247,4.247,0,0,1,.885,3.018c-.04,2.146-.416,2.9-1.247,3.675-.872.724-8.357,4.078-13.186-1.073a2.73,2.73,0,0,1,.765-4.36s2.16-1.3,7.646.228c0,0,1.663.6,1.583,1.207-.094.644-1.368,1.328-3.219,1.288a6.121,6.121,0,0,1-2.857-.778c.241.094-1.932-1.046-2.6-.268-.671.711-.51,1.154.148,1.6,1.677.952,8.156.617,10.087-1.529,0,0,.765-.872-.4-1.583-1.167-.671-4.507-1.073-5.808-1.14-1.247-.067-5.889.013-6.559-1.221,0,0-.671-.832.067-3.192.778-2.468,6.184-3.421,8.518-3.635,0,0,6.425-.228,7.606,1.087A1.008,1.008,0,0,1,70.624,230.423ZM52.381,244.9a2.5,2.5,0,0,1-2.9-.322c-.469-.577-.63-2.871-.537-6.465.094-3.635.174-8.142.952-8.853.832-.724,1.341-.094,1.663.4a3.744,3.744,0,0,1,.858,2.16c.08,1.14.349,7.123.349,7.123S53.119,244.334,52.381,244.9Zm1.677-19.289a6.766,6.766,0,0,1-5.137-.067c-.577,1.006-.912,1.315-1.355,1.382-.644.067-1.221-.966-1.328-1.3a1.836,1.836,0,0,1-.04-1.7,3.9,3.9,0,0,1-1.167-3.756c.322-1.207,2.495-5.795,9.108-6.331,0,0,3.233-.241,3.783,1.489h.094s3.139.013,3.072,2.8C61.046,220.927,57.6,224.414,54.058,225.608Zm-6.17-6.211c-.671,1.073-.7,1.717-.389,2.16a15.888,15.888,0,0,1,4.212-4.4A4.784,4.784,0,0,0,47.887,219.4Zm9.135-1.8c-2.079.309-5.3,3.1-6.828,5.379,2.347.429,6.492.268,8.33-3.474C58.511,219.5,59.4,217.184,57.022,217.6Zm56.445,21.61c-1.247,2.173-4.748,6.707-9.416,5.647a48.411,48.411,0,0,0-3.568,13.172s-.161,1.1-1.073.711a5.161,5.161,0,0,1-2.7-3.9c-.322-2.736.9-7.364,3.38-12.663A7.271,7.271,0,0,1,99.3,236.9a15.536,15.536,0,0,1,5.1-8.478s.537-.469.845-.322c.349.148.188,1.6-.094,2.294s-2.28,4.158-2.28,4.158a7.737,7.737,0,0,0-.9,4.172c2.347-3.608,7.686-10.892,11-8.6,1.113.791,1.623,2.522,1.623,4.386A10.194,10.194,0,0,1,113.467,239.21ZM112.5,233.5s-.188-1.435-1.583.148a34.189,34.189,0,0,0-5.137,7.23,8.445,8.445,0,0,0,4.145-1.717C110.8,238.378,112.823,236.285,112.5,233.5ZM47.378,235.32c-.255,3.246-1.5,8.706-10.342,11.4a27.426,27.426,0,0,1-14.353.148c-.067,1.194-.2,1.7-.389,1.9-.255.255-2.16,1.355-3.206-.2a8.711,8.711,0,0,1-.845-3.273,25.238,25.238,0,0,1-9.993-7.793,2.719,2.719,0,0,1-.148-3.729c1.449-1.784,6.184-3.568,10.449-4.292a27.445,27.445,0,0,1,1.087-7.659c.617-1.462,1.4-.148,2.066.845.563.738.9,3.917.926,6.452a28.727,28.727,0,0,1,7.552.63c4.051.738,6.761,2.8,6.519,5.151a3.728,3.728,0,0,1-3.1,3.327,5.746,5.746,0,0,1-2.16-.537c-.9-.429-.067-.8,1.019-1.274,1.18-.577.912-1.167.912-1.167-.443-1.288-5.7-2.186-10.932-2.186-.027,2.884.121,7.673.188,10.463a30,30,0,0,0,6.4.563s13.36-.376,13.763-8.907-13.32-16.74-23.474-19.343c-10.141-2.656-15.882-.8-16.378-.55-.537.268-.04.349-.04.349a9.583,9.583,0,0,1,1.5.4c1.006.322.228.845.228.845-1.73.55-3.675.2-4.051-.59s.255-1.5.979-2.522c.724-1.073,1.516-1.033,1.516-1.033,12.542-4.346,27.82,3.514,27.82,3.514C45.2,223.515,47.646,232.02,47.378,235.32Zm-37.854-.443c-1.422.7-.443,1.7-.443,1.7a22.656,22.656,0,0,0,9.081,5.781c.362-4.95.309-6.693.349-9.188C13.629,233.509,10.812,234.287,9.524,234.877Z" transform="translate(-0.465 -211.434)" fill="#01147c"/></g><g transform="translate(118.247 40.872)"><path d="M903.315,314.872v1.771a.693.693,0,0,1-.7.7H894.18c0,.443.013.832.013,1.194a64.322,64.322,0,0,1-.362,7.149.7.7,0,0,1-.684.63h-1.824a.649.649,0,0,1-.483-.215.637.637,0,0,1-.161-.51,63.144,63.144,0,0,0,.376-7.056c0-.376,0-.765-.013-1.194H882.7a.693.693,0,0,1-.7-.7v-1.771a.693.693,0,0,1,.7-.7h8.223a61.813,61.813,0,0,0-1.086-8.478.616.616,0,0,1,.121-.483A.567.567,0,0,1,890.4,305h1.972a.644.644,0,0,1,.63.523,68.011,68.011,0,0,1,1.073,8.652h8.545A.71.71,0,0,1,903.315,314.872Z" transform="translate(-882 -305)" fill="#01147c"/></g><g transform="translate(24.422 0)"><path d="M198.728,204.3h-.013m-.094.013c-.04,0-.081-.013-.121-.013a.372.372,0,0,0,.121.013h0Zm0,0c-.04,0-.081-.013-.121-.013a.372.372,0,0,0,.121.013h0Z" transform="translate(-196.358 -176.936)" fill="none"/><path d="M286.189,37A58.876,58.876,0,0,0,182.649,26.537a.687.687,0,0,0-.08.6.654.654,0,0,0,.429.429l1.529.523a1,1,0,0,0,.268.04.883.883,0,0,0,.711-.376,55.738,55.738,0,0,1,46.13-24.44,55.811,55.811,0,0,1,51.388,34.058.8.8,0,0,0,.738.5h1.824a.614.614,0,0,0,.523-.282A.587.587,0,0,0,286.189,37ZM184.795,27.678a.391.391,0,0,1-.121-.027.391.391,0,0,0,.121.027h0Zm98.591,9.953a.545.545,0,0,0,.121.067C283.466,37.671,283.426,37.657,283.386,37.631Z" transform="translate(-182.532 -0.3)" fill="url(#a)"/></g></g></g></svg>