<svg xmlns="http://www.w3.org/2000/svg" xmlns:xlink="http://www.w3.org/1999/xlink" width="19.366" height="19.359" viewBox="0 0 19.366 19.359"><defs><linearGradient id="a" y1="-0.136" x2="1.001" y2="-0.136" gradientUnits="objectBoundingBox"><stop offset="0" stop-color="#0c59a4"/><stop offset="1" stop-color="#114a8b"/></linearGradient><radialGradient id="b" cx="0.553" cy="0.509" r="0.62" gradientTransform="matrix(0.863, 0, 0, -0.95, 0.076, -0.457)" gradientUnits="objectBoundingBox"><stop offset="0.7" stop-opacity="0"/><stop offset="0.9" stop-opacity="0.502"/><stop offset="1"/></radialGradient><linearGradient id="c" x1="0.906" y1="0.521" x2="0.245" y2="-0.063" gradientUnits="objectBoundingBox"><stop offset="0" stop-color="#1b9de2"/><stop offset="0.2" stop-color="#1595df"/><stop offset="0.7" stop-color="#0680d7"/><stop offset="1" stop-color="#0078d4"/></linearGradient><radialGradient id="d" cx="0.418" cy="0.726" r="0.69" gradientTransform="matrix(0.185, -0.989, -0.985, -0.121, -1.622, -1.971)" gradientUnits="objectBoundingBox"><stop offset="0.8" stop-opacity="0"/><stop offset="0.9" stop-opacity="0.502"/><stop offset="1"/></radialGradient><radialGradient id="e" cx="0.101" cy="0.278" r="1.189" gradientTransform="matrix(-0.025, 0.999, 1.416, 0.08, -4.263, 2.628)" gradientUnits="objectBoundingBox"><stop offset="0" stop-color="#35c1f1"/><stop offset="0.1" stop-color="#34c1ed"/><stop offset="0.2" stop-color="#2fc2df"/><stop offset="0.3" stop-color="#2bc3d2"/><stop offset="0.7" stop-color="#36c752"/></radialGradient><radialGradient id="f" cx="0.938" cy="0.454" r="0.571" gradientTransform="matrix(0.186, 0.96, 0.519, -0.228, -0.535, 2.663)" gradientUnits="objectBoundingBox"><stop offset="0" stop-color="#66eb6e"/><stop offset="1" stop-color="#66eb6e" stop-opacity="0"/></radialGradient></defs><path d="M76.341,111.846a7.087,7.087,0,0,1-.8.356,7.708,7.708,0,0,1-2.716.484c-3.578,0-6.695-2.458-6.695-5.62A2.383,2.383,0,0,1,67.37,105c-3.238.136-4.07,3.51-4.07,5.484,0,5.6,5.151,6.157,6.263,6.157a7.965,7.965,0,0,0,2.042-.348l.1-.03a9.705,9.705,0,0,0,5.038-3.994.3.3,0,0,0-.4-.424Z" transform="translate(-58.86 -97.436)" fill="url(#a)"/><path d="M76.341,111.846a7.087,7.087,0,0,1-.8.356,7.708,7.708,0,0,1-2.716.484c-3.578,0-6.695-2.458-6.695-5.62A2.383,2.383,0,0,1,67.37,105c-3.238.136-4.07,3.51-4.07,5.484,0,5.6,5.151,6.157,6.263,6.157a7.965,7.965,0,0,0,2.042-.348l.1-.03a9.705,9.705,0,0,0,5.038-3.994.3.3,0,0,0-.4-.424Z" transform="translate(-58.86 -97.436)" opacity="0.35" fill="url(#b)" style="isolation:isolate"/><path d="M12.683,67.714A5.991,5.991,0,0,1,10.966,66.1,6.1,6.1,0,0,1,13.2,57.026a2.57,2.57,0,0,1,1.18-.3,2.451,2.451,0,0,1,1.944.983,2.413,2.413,0,0,1,.477,1.415c0-.015,1.853-6.021-6.052-6.021A6.35,6.35,0,0,0,4.7,59.015a9.849,9.849,0,0,0,.915,4.236A9.682,9.682,0,0,0,17.441,68.32a5.711,5.711,0,0,1-4.75-.605Z" transform="translate(-4.688 -49.462)" fill="url(#c)"/><path d="M12.683,67.714A5.991,5.991,0,0,1,10.966,66.1,6.1,6.1,0,0,1,13.2,57.026a2.57,2.57,0,0,1,1.18-.3,2.451,2.451,0,0,1,1.944.983,2.413,2.413,0,0,1,.477,1.415c0-.015,1.853-6.021-6.052-6.021A6.35,6.35,0,0,0,4.7,59.015a9.849,9.849,0,0,0,.915,4.236A9.682,9.682,0,0,0,17.441,68.32a5.711,5.711,0,0,1-4.75-.605Z" transform="translate(-4.688 -49.462)" opacity="0.41" fill="url(#d)" style="isolation:isolate"/><path d="M16.128,16.256c-.068.076-.257.189-.257.424a.705.705,0,0,0,.363.552,6.147,6.147,0,0,0,3.139.651,4.508,4.508,0,0,0,2.292-.628,4.645,4.645,0,0,0,2.3-4,6.7,6.7,0,0,0-.855-3.321A9.717,9.717,0,0,0,14.282,5,9.683,9.683,0,0,0,4.6,14.547c.038-2.762,2.784-4.993,6.052-4.993a7.309,7.309,0,0,1,3.177.756,5.492,5.492,0,0,1,2.337,2.216,4.9,4.9,0,0,1,.545,2.232,2.706,2.706,0,0,1-.59,1.505Z" transform="translate(-4.6 -5)" fill="url(#e)"/><path d="M16.128,16.256c-.068.076-.257.189-.257.424a.705.705,0,0,0,.363.552,6.147,6.147,0,0,0,3.139.651,4.508,4.508,0,0,0,2.292-.628,4.645,4.645,0,0,0,2.3-4,6.7,6.7,0,0,0-.855-3.321A9.717,9.717,0,0,0,14.282,5,9.683,9.683,0,0,0,4.6,14.547c.038-2.762,2.784-4.993,6.052-4.993a7.309,7.309,0,0,1,3.177.756,5.492,5.492,0,0,1,2.337,2.216,4.9,4.9,0,0,1,.545,2.232,2.706,2.706,0,0,1-.59,1.505Z" transform="translate(-4.6 -5)" fill="url(#f)"/></svg>