<svg xmlns="http://www.w3.org/2000/svg" width="100.043" height="50" viewBox="0 0 100.043 50"><path d="M0,50H100.043V0H0Z" fill-rule="evenodd"/><g transform="translate(8.133 9.983)"><path d="M18.9,23.2H31.895v6.024H26.688V34.9h4.862v5.723H26.688V47.21h5.723v6.024H18.9Zm31.5,0L47.644,36.453l4.131,16.738H44.545a103.742,103.742,0,0,1-2.367-10.929c-.215,1.893-.473,3.916-.818,6.024l-.732,4.905H33.057L35.9,36.453,33.057,23.2h7.53c.129.818.387,2.194.818,4.131.344,1.463.6,2.84.818,4.045L43.9,23.2h6.5Z" transform="translate(-18.9 -23.2)" fill="#ffca05" fill-rule="evenodd"/><path d="M111.441,23.2l-2.754,13.253,4.131,16.738h-7.186a103.74,103.74,0,0,1-2.367-10.929c-.215,1.893-.473,3.916-.818,6.024l-.732,4.905H94.1l2.84-16.738L94.1,23.2h7.53c.129.818.387,2.194.818,4.131.344,1.463.6,2.84.818,4.045l1.678-8.176Zm1.807,0h13.038v6.024h-5.207V34.9h4.862v5.723h-4.862V47.21H126.8v6.024H113.291V23.2Zm32.358,0V53.191h-6.842l-4.045-13.64v13.64h-6.54V23.2h6.54l4.389,13.511V23.2h6.5Z" transform="translate(-61.742 -23.2)" fill="#ffca05" fill-rule="evenodd"/></g><path d="M145.4,55.88h4.819V50.2H145.4Z" transform="translate(-82.835 -28.599)" fill-rule="evenodd"/></svg>