<svg xmlns="http://www.w3.org/2000/svg" width="104.426" height="156.639" viewBox="0 0 104.426 156.639"><path d="M0,426.106A26.107,26.107,0,0,1,26.106,400H52.213v26.106a26.106,26.106,0,1,1-52.213,0Z" transform="translate(0 -295.574)" fill="#24cb71"/><path d="M200,0V52.213h26.106a26.106,26.106,0,1,0,0-52.213Z" transform="translate(-147.787)" fill="#ff7237"/><path d="M225.273,252.213a26.106,26.106,0,1,0-26.106-26.106A26.107,26.107,0,0,0,225.273,252.213Z" transform="translate(-147.172 -147.787)" fill="#00b6ff"/><path d="M0,26.106A26.107,26.107,0,0,0,26.106,52.213H52.213V0H26.106A26.107,26.107,0,0,0,0,26.106Z" fill="#ff3737"/><path d="M0,226.106a26.107,26.107,0,0,0,26.106,26.106H52.213V200H26.106A26.107,26.107,0,0,0,0,226.106Z" transform="translate(0 -147.787)" fill="#874fff"/></svg>