<svg xmlns="http://www.w3.org/2000/svg" xmlns:xlink="http://www.w3.org/1999/xlink" width="19.366" height="20" viewBox="0 0 19.366 20"><defs><linearGradient id="a" x1="0.914" y1="0.155" x2="0.083" y2="0.932" gradientUnits="objectBoundingBox"><stop offset="0.048" stop-color="#fff44f"/><stop offset="0.111" stop-color="#ffe847"/><stop offset="0.225" stop-color="#ffc830"/><stop offset="0.368" stop-color="#ff980e"/><stop offset="0.401" stop-color="#ff8b16"/><stop offset="0.462" stop-color="#ff672a"/><stop offset="0.534" stop-color="#ff3647"/><stop offset="0.705" stop-color="#e31587"/></linearGradient><radialGradient id="b" cx="0.865" cy="-0.127" r="1.284" gradientTransform="translate(-19.131) scale(0.813 1)" gradientUnits="objectBoundingBox"><stop offset="0.129" stop-color="#ffbd4f"/><stop offset="0.186" stop-color="#ffac31"/><stop offset="0.247" stop-color="#ff9d17"/><stop offset="0.283" stop-color="#ff980e"/><stop offset="0.403" stop-color="#ff563b"/><stop offset="0.467" stop-color="#ff3750"/><stop offset="0.71" stop-color="#f5156c"/><stop offset="0.782" stop-color="#eb0878"/><stop offset="0.86" stop-color="#e50080"/></radialGradient><radialGradient id="c" cx="0.478" cy="0.397" r="1.284" gradientTransform="translate(-19.204) scale(0.813 1)" gradientUnits="objectBoundingBox"><stop offset="0.3" stop-color="#960e18"/><stop offset="0.351" stop-color="#b11927" stop-opacity="0.741"/><stop offset="0.435" stop-color="#db293d" stop-opacity="0.341"/><stop offset="0.497" stop-color="#f5334b" stop-opacity="0.094"/><stop offset="0.53" stop-color="#ff3750" stop-opacity="0"/></radialGradient><radialGradient id="d" cx="0.515" cy="-0.285" r="1.855" gradientTransform="translate(299.225) scale(1.698 1)" gradientUnits="objectBoundingBox"><stop offset="0.132" stop-color="#fff44f"/><stop offset="0.252" stop-color="#ffdc3e"/><stop offset="0.506" stop-color="#ff9d12"/><stop offset="0.526" stop-color="#ff980e"/></radialGradient><radialGradient id="e" cx="0.193" cy="1.101" r="1.019" gradientTransform="translate(22.283) scale(1.096 1)" gradientUnits="objectBoundingBox"><stop offset="0.353" stop-color="#3a8ee6"/><stop offset="0.472" stop-color="#5c79f0"/><stop offset="0.669" stop-color="#9059ff"/><stop offset="1" stop-color="#c139e6"/></radialGradient><radialGradient id="f" cx="0.568" cy="0.36" r="0.541" gradientTransform="matrix(1.066, -0.235, 0.301, 1.138, 83.169, -23.165)" gradientUnits="objectBoundingBox"><stop offset="0.206" stop-color="#9059ff" stop-opacity="0"/><stop offset="0.278" stop-color="#8c4ff3" stop-opacity="0.063"/><stop offset="0.747" stop-color="#7716a8" stop-opacity="0.451"/><stop offset="0.975" stop-color="#6e008b" stop-opacity="0.6"/></radialGradient><radialGradient id="g" cx="2.085" cy="-0.994" r="2.922" gradientTransform="translate(3.126)" gradientUnits="objectBoundingBox"><stop offset="0" stop-color="#ffe226"/><stop offset="0.121" stop-color="#ffdb27"/><stop offset="0.295" stop-color="#ffc82a"/><stop offset="0.502" stop-color="#ffa930"/><stop offset="0.732" stop-color="#ff7e37"/><stop offset="0.792" stop-color="#ff7139"/></radialGradient><radialGradient id="h" cx="0.797" cy="-0.409" r="1.938" gradientTransform="translate(-17.512) scale(0.839 1)" gradientUnits="objectBoundingBox"><stop offset="0.113" stop-color="#fff44f"/><stop offset="0.456" stop-color="#ff980e"/><stop offset="0.622" stop-color="#ff5634"/><stop offset="0.716" stop-color="#ff3647"/><stop offset="0.904" stop-color="#e31587"/></radialGradient><radialGradient id="i" cx="0.08" cy="-0.104" r="1.651" gradientTransform="matrix(0.222, 0.994, -1.379, 0.069, -474.288, 168.153)" gradientUnits="objectBoundingBox"><stop offset="0" stop-color="#fff44f"/><stop offset="0.06" stop-color="#ffe847"/><stop offset="0.168" stop-color="#ffc830"/><stop offset="0.304" stop-color="#ff980e"/><stop offset="0.356" stop-color="#ff8b16"/><stop offset="0.455" stop-color="#ff672a"/><stop offset="0.57" stop-color="#ff3647"/><stop offset="0.737" stop-color="#e31587"/></radialGradient><radialGradient id="j" cx="0.175" cy="-0.421" r="2.387" gradientTransform="translate(-4.688) scale(0.981 1)" gradientUnits="objectBoundingBox"><stop offset="0.137" stop-color="#fff44f"/><stop offset="0.48" stop-color="#ff980e"/><stop offset="0.592" stop-color="#ff5634"/><stop offset="0.655" stop-color="#ff3647"/><stop offset="0.904" stop-color="#e31587"/></radialGradient><radialGradient id="k" cx="1.562" cy="-0.451" r="3.128" gradientTransform="translate(-28.753) scale(0.896 1)" gradientUnits="objectBoundingBox"><stop offset="0.094" stop-color="#fff44f"/><stop offset="0.231" stop-color="#ffe141"/><stop offset="0.509" stop-color="#ffaf1e"/><stop offset="0.626" stop-color="#ff980e"/></radialGradient><linearGradient id="l" x1="0.904" y1="0.151" x2="0.197" y2="0.836" gradientUnits="objectBoundingBox"><stop offset="0.167" stop-color="#fff44f" stop-opacity="0.8"/><stop offset="0.266" stop-color="#fff44f" stop-opacity="0.635"/><stop offset="0.489" stop-color="#fff44f" stop-opacity="0.216"/><stop offset="0.6" stop-color="#fff44f" stop-opacity="0"/></linearGradient></defs><path d="M18.667,6.712a5.44,5.44,0,0,0-1.945-2.454A10.072,10.072,0,0,1,17.7,7.2l0,.016c-1.1-2.731-2.954-3.834-4.472-6.233C13.157.861,13.08.74,13.006.611c-.043-.073-.077-.139-.107-.2a1.764,1.764,0,0,1-.145-.384A.025.025,0,0,0,12.732,0a.035.035,0,0,0-.018,0l0,0-.007,0,0-.007A7.071,7.071,0,0,0,9.369,5.388,4.85,4.85,0,0,0,6.7,6.416a2.9,2.9,0,0,0-.25-.19,4.5,4.5,0,0,1-.027-2.369A7.179,7.179,0,0,0,4.09,5.66h0A5.3,5.3,0,0,1,3.75,3.232a1.733,1.733,0,0,0-.324.172,7.059,7.059,0,0,0-.947.812A8.464,8.464,0,0,0,1.572,5.3v0a8.187,8.187,0,0,0-1.3,2.936L.259,8.3c-.018.085-.084.513-.1.605a.2.2,0,0,1,0,.021A9.24,9.24,0,0,0,0,10.266v.05a9.695,9.695,0,0,0,19.247,1.639c.016-.125.03-.249.044-.375a9.97,9.97,0,0,0-.629-4.87ZM7.494,14.3c.045.022.088.045.134.066l.007,0-.141-.07ZM9.715,8.453m7.992-1.234V7.209l0,.01Z" transform="translate(-0.004 0.004)" fill="url(#a)"/><path d="M18.673,19.167a5.44,5.44,0,0,0-1.945-2.454,10.073,10.073,0,0,1,.982,2.941v.009l0,.01a8.78,8.78,0,0,1-.3,6.543A8.332,8.332,0,0,1,9.4,30.925,9.76,9.76,0,0,1,.1,23a4.181,4.181,0,0,1,.069-1.617,7.224,7.224,0,0,0-.156,1.338v.05a9.695,9.695,0,0,0,19.247,1.639c.016-.125.03-.249.044-.375a9.97,9.97,0,0,0-.629-4.87Z" transform="translate(-0.01 -12.452)" fill="url(#b)"/><path d="M18.673,19.167a5.44,5.44,0,0,0-1.945-2.454,10.073,10.073,0,0,1,.982,2.941v.009l0,.01a8.78,8.78,0,0,1-.3,6.543A8.332,8.332,0,0,1,9.4,30.925,9.76,9.76,0,0,1,.1,23a4.181,4.181,0,0,1,.069-1.617,7.224,7.224,0,0,0-.156,1.338v.05a9.695,9.695,0,0,0,19.247,1.639c.016-.125.03-.249.044-.375a9.97,9.97,0,0,0-.629-4.87Z" transform="translate(-0.01 -12.452)" fill="url(#c)"/><path d="M41.351,7.849l.06.044a5.278,5.278,0,0,0-.9-1.174A4.9,4.9,0,0,1,40.1.006L40.1,0a7.071,7.071,0,0,0-3.337,5.385c.113-.008.225-.017.341-.017a4.892,4.892,0,0,1,4.247,2.481Z" transform="translate(-27.4 0.004)" fill="url(#d)"/><path d="M25.334,24.157a2.34,2.34,0,0,1-1.166,1.073c-2.756,0-3.2,1.668-3.2,1.668a4.091,4.091,0,0,0,2.283,3.172c.054.028.109.053.164.078q.142.063.285.117a4.312,4.312,0,0,0,1.261.243,4.012,4.012,0,0,0,2.281-7.521,3.347,3.347,0,0,1,2.337.568,4.892,4.892,0,0,0-4.247-2.481c-.115,0-.228.01-.341.017a4.85,4.85,0,0,0-2.669,1.028c.148.125.315.292.666.639a15.26,15.26,0,0,0,2.349,1.4Z" transform="translate(-15.625 -15.7)" fill="url(#e)"/><path d="M25.334,24.157a2.34,2.34,0,0,1-1.166,1.073c-2.756,0-3.2,1.668-3.2,1.668a4.091,4.091,0,0,0,2.283,3.172c.054.028.109.053.164.078q.142.063.285.117a4.312,4.312,0,0,0,1.261.243,4.012,4.012,0,0,0,2.281-7.521,3.347,3.347,0,0,1,2.337.568,4.892,4.892,0,0,0-4.247-2.481c-.115,0-.228.01-.341.017a4.85,4.85,0,0,0-2.669,1.028c.148.125.315.292.666.639a15.26,15.26,0,0,0,2.349,1.4Z" transform="translate(-15.625 -15.7)" fill="url(#f)"/><path d="M18.188,17.377c.079.05.143.094.2.133a4.5,4.5,0,0,1-.027-2.369,7.179,7.179,0,0,0-2.333,1.8A4.775,4.775,0,0,1,18.188,17.377Z" transform="translate(-11.946 -11.279)" fill="url(#g)"/><path d="M.2,20.01a9.759,9.759,0,0,0,9.3,7.924,8.335,8.335,0,0,0,8.009-4.707,8.78,8.78,0,0,0,.3-6.543v-.009c0-.007,0-.012,0-.009l0,.016a6.528,6.528,0,0,1-2.584,5.893l-.006.013c-3.479,2.834-6.808,1.709-7.481,1.251l-.141-.07a4.405,4.405,0,0,1-2.686-4.4,2.49,2.49,0,0,1-2.3-1.444,3.657,3.657,0,0,1,3.564-.143,4.827,4.827,0,0,0,3.639.143,15.281,15.281,0,0,1-2.349-1.4c-.351-.346-.518-.513-.666-.639a2.9,2.9,0,0,0-.25-.19c-.058-.039-.122-.082-.2-.133a4.773,4.773,0,0,0-2.16-.433h0A5.3,5.3,0,0,1,3.864,12.7a1.733,1.733,0,0,0-.324.172,7.059,7.059,0,0,0-.947.812,8.465,8.465,0,0,0-.91,1.085v0A8.187,8.187,0,0,0,.382,17.7,7.256,7.256,0,0,0,.2,20.011Z" transform="translate(-0.117 -9.461)" fill="url(#h)"/><path d="M46.924,6.705a5.277,5.277,0,0,1,.9,1.176c.053.04.1.08.145.119a4.646,4.646,0,0,1,.96,5.093A6.528,6.528,0,0,0,51.514,7.2c-1.1-2.734-2.957-3.837-4.472-6.236-.077-.121-.154-.243-.228-.371-.043-.073-.077-.139-.107-.2a1.764,1.764,0,0,1-.145-.384.025.025,0,0,0-.022-.025.035.035,0,0,0-.018,0l0,0-.007,0A4.895,4.895,0,0,0,46.925,6.7Z" transform="translate(-33.813 0.018)" fill="url(#i)"/><path d="M36.463,29.242c-.042-.039-.092-.079-.145-.119l-.06-.044a3.347,3.347,0,0,0-2.337-.568,4.012,4.012,0,0,1-2.281,7.521,4.312,4.312,0,0,1-1.261-.243q-.142-.053-.285-.117c-.055-.025-.11-.05-.164-.078l.007,0c.674.46,4,1.584,7.481-1.251l.006-.013a4.642,4.642,0,0,0-.96-5.093Z" transform="translate(-22.307 -21.224)" fill="url(#j)"/><path d="M12.674,34.34s.447-1.668,3.2-1.668A2.337,2.337,0,0,0,17.044,31.6a4.827,4.827,0,0,1-3.639-.143A3.657,3.657,0,0,0,9.84,31.6a2.49,2.49,0,0,0,2.3,1.444,4.408,4.408,0,0,0,2.686,4.4c.045.022.088.045.134.066a4.092,4.092,0,0,1-2.283-3.172Z" transform="translate(-7.335 -23.145)" fill="url(#k)"/><path d="M18.669,6.712a5.44,5.44,0,0,0-1.945-2.454A10.073,10.073,0,0,1,17.706,7.2l0,.016c-1.1-2.731-2.954-3.834-4.472-6.233-.077-.121-.154-.243-.228-.371-.043-.073-.077-.139-.107-.2a1.764,1.764,0,0,1-.145-.384A.025.025,0,0,0,12.734,0a.035.035,0,0,0-.018,0l0,0-.007,0,0-.007A7.071,7.071,0,0,0,9.371,5.388c.113-.008.225-.017.341-.017a4.893,4.893,0,0,1,4.247,2.481,3.347,3.347,0,0,0-2.337-.568A4.012,4.012,0,0,1,9.34,14.8a4.312,4.312,0,0,1-1.261-.243q-.142-.053-.285-.117c-.055-.025-.11-.05-.164-.078l.007,0L7.5,14.3c.045.022.088.045.134.066A4.093,4.093,0,0,1,5.347,11.2s.447-1.668,3.2-1.668A2.337,2.337,0,0,0,9.717,8.455a15.281,15.281,0,0,1-2.349-1.4c-.351-.346-.518-.513-.666-.639a2.9,2.9,0,0,0-.25-.19,4.5,4.5,0,0,1-.027-2.369,7.179,7.179,0,0,0-2.333,1.8h0a5.3,5.3,0,0,1-.335-2.428,1.733,1.733,0,0,0-.324.172,7.059,7.059,0,0,0-.947.812A8.464,8.464,0,0,0,1.574,5.3v0a8.187,8.187,0,0,0-1.3,2.936l-.013.064c-.018.085-.1.519-.112.612a11.278,11.278,0,0,0-.143,1.351v.05a9.695,9.695,0,0,0,19.247,1.639c.016-.125.03-.249.044-.375a9.97,9.97,0,0,0-.629-4.87Zm-.962.5,0,.01Z" transform="translate(-0.005 0.004)" fill="url(#l)"/></svg>