<svg xmlns="http://www.w3.org/2000/svg" xmlns:xlink="http://www.w3.org/1999/xlink" width="94.288" height="50" viewBox="0 0 94.288 50"><defs><clipPath id="a"><rect width="94.288" height="50" fill="none"/></clipPath></defs><g clip-path="url(#a)"><path d="M265.522,81.671l-1.029.823c-.21.2-1,.074-1.077.14-.046.04-.022.379-.139.5s-.45.088-.493.144.024.259-.042.379c-.022.039-.144.048-.179.107-.065.111-.4.7-.412.741-.1.446.8.812.963,1.218a5.9,5.9,0,0,1-.1,2.17c-.049.12-.608.489-.776.713-1.4,1.873-.709,5.745-.53,7.937.068.831.077,1.294.207,2.121.181,1.15-.458,2.285-.721,3.361.069.27,1.3.948,1.414,1.131.163.271-.07.7.151,1.013.2.276.674.2.76.32s.182,1.208.3,1.579a8.857,8.857,0,0,0,.551,1.036,10.064,10.064,0,0,1-.034,3.393,5.518,5.518,0,0,1-.212,1.005c-.11.067-.455-.027-.655.032-.216.064-.208.313-.365.4-.322.184-.982.2-1.368.4-.115.06-1,.607-1.044.65a.7.7,0,0,0-.151.43h-2.7a1.061,1.061,0,0,1-.159-.159V81.671Z" transform="translate(-200.859 -63.659)" fill="#060707"/><path d="M257.374,13.991h-1.693l.733-1.524c-3.223-1.857-6.915-5.882-4.7-9.8,2.109-3.735,8.245-3.528,9.869.5,1.583,3.929-1.842,7.414-4.94,9.3Z" transform="translate(-195.673 0)" fill="#de1c34"/><path d="M302.947,81.671l14.865,19.471V81.671h6.877v31.746h-5.872L303.949,93.9l-.314-.268v19.63a1.06,1.06,0,0,1-.159.159h-6.3c-.037,0-.078-.523-.187-.715s-.276-.206-.345-.314c-.439-.679-.022-3.1-.1-4.1-.079-.965-.506-1.872-.506-2.859,0-.94.351-.43.863-.6.3-.1.141-.888.175-1.2a43.133,43.133,0,0,0,.743-5.076c-.011-.557-.42-1.358-.431-2.021-.007-.457.2-.93.2-1.359a14.589,14.589,0,0,0-.295-1.61,9.974,9.974,0,0,0-.734-3.6c-.286-.622-.751-1.091-.97-1.727.851.278,1.188.754,2.062.1.614-.456.92-1.733,1.008-1.8s.392.124.47.216c.831.987-1.791,4.229-.1,5.286.075-.471.353.163.686.212l0-1.27.316.105a5.3,5.3,0,0,1,.214-2.01l.209.21a4.663,4.663,0,0,0,.111-1.327c-.092-1.1-.828-1.476-1.469-2.233-.1-.47.116-.886.091-1.356a3.225,3.225,0,0,0-1.216-2.07l-.9-.632Z" transform="translate(-230.401 -63.659)" fill="#060707"/><path d="M30.7,94.941,25.14,107.686c-.366.53-3.2,1.12-3.939,1.245a20.3,20.3,0,0,1-11.657-1.084c-12.522-5.473-12.67-23.638-.746-29.84,6.324-3.289,15.7-2.33,20.838,2.768l-4.5,5.216a13.779,13.779,0,0,0-6.151-3.139c-12.376-2.1-15.647,15.261-5.67,19.322a11.493,11.493,0,0,0,10.3-1.118l.059-4.479-7.044-.208V90.5c0-.035.115-.253.178-.268a10.753,10.753,0,0,1,1.572,0c3.97.118,7.971.252,11.957.211.108-.023.365.076.365.164Z" transform="translate(0 -59.309)" fill="#060707"/><path d="M146.808,113.467H142.84c-1.162-2.262-1.9-4.752-3.014-7.038l-13.159-.038-2.924,7.076h-7.089l13.5-31.732,6.443.088L146.808,105.8Zm-9.522-13.228-4.125-10.053-4.022,10.053Z" transform="translate(-90.926 -63.708)" fill="#060707"/></g></svg>