<svg xmlns="http://www.w3.org/2000/svg" width="129.206" height="22.309" viewBox="0 0 129.206 22.309"><g transform="translate(34.474 1.044)"><path d="M2372.838,60.9V73.667h-1.861V60.9H2366.9V59.1h10v1.8Z" transform="translate(-2295.774 -57.507)" fill="#5f6368"/><path d="M2625.371,74.362h-1.954L2618.3,59.8h2.084l3.989,11.819h.089l4.145-11.819h2.083Z" transform="translate(-2535.957 -58.176)" fill="#5f6368"/><path d="M781.056,39.9a8.25,8.25,0,1,1,0-16.5,7.891,7.891,0,0,1,5.653,2.262l-1.6,1.6a5.725,5.725,0,0,0-4.056-1.62,5.988,5.988,0,0,0,0,11.975,5.585,5.585,0,0,0,4.167-1.642,4.664,4.664,0,0,0,1.218-2.838h-5.385V30.878h7.585a6.694,6.694,0,0,1,.111,1.4,7.508,7.508,0,0,1-1.95,5.278A7.394,7.394,0,0,1,781.056,39.9Z" transform="translate(-772.7 -23.4)" fill="#5f6368"/><path d="M1171.167,161a5.234,5.234,0,1,1-5.234-5.3A5.189,5.189,0,0,1,1171.167,161Zm-2.285,0a2.96,2.96,0,1,0-2.949,3.217A3.032,3.032,0,0,0,1168.882,161Z" transform="translate(-1143.389 -149.797)" fill="#5f6368"/><path d="M1434.067,160.9a5.234,5.234,0,1,1-5.233-5.3A5.189,5.189,0,0,1,1434.067,160.9Zm-2.284,0a2.96,2.96,0,1,0-2.949,3.217A3.032,3.032,0,0,0,1431.782,160.9Z" transform="translate(-1394.56 -149.698)" fill="#5f6368"/><path d="M1697.154,155.721v9.534c0,3.926-2.306,5.519-5.055,5.519a5.053,5.053,0,0,1-4.7-3.128l2.039-.843a2.915,2.915,0,0,0,2.682,1.883c1.753,0,2.837-1.084,2.837-3.128V164.8h-.089a3.632,3.632,0,0,1-2.793,1.2,5.305,5.305,0,0,1,0-10.6,3.7,3.7,0,0,1,2.793,1.173h.089v-.866h2.195Zm-2.061,5.01a3,3,0,0,0-2.837-3.239,3.229,3.229,0,0,0,0,6.434A2.97,2.97,0,0,0,1695.093,160.732Z" transform="translate(-1646.208 -149.511)" fill="#5f6368"/><path d="M1956.129,36.5V52.106H1953.8V36.5Z" transform="translate(-1901.105 -35.916)" fill="#5f6368"/><path d="M2044.985,162.654l1.816,1.2a5.266,5.266,0,0,1-4.413,2.351,5.125,5.125,0,0,1-5.188-5.3,4.861,4.861,0,0,1,9.467-1.932l.245.6-7.094,2.927a2.7,2.7,0,0,0,2.57,1.619A3.019,3.019,0,0,0,2044.985,162.654Zm-5.585-1.91,4.742-1.972a2.061,2.061,0,0,0-1.972-1.129A2.923,2.923,0,0,0,2039.4,160.744Z" transform="translate(-1980.784 -149.702)" fill="#5f6368"/></g><path d="M123.749,0H108.674A2.378,2.378,0,0,0,106.3,2.374V4.747h18.377a2.378,2.378,0,0,1,2.374,2.374V3.3a3.3,3.3,0,0,0-3.3-3.3Z" transform="translate(-101.557)" fill="#4285f4"/><path d="M3.3,0A3.311,3.311,0,0,0,0,3.3v8.182a2.378,2.378,0,0,0,2.374,2.374H4.747V2.374A2.378,2.378,0,0,1,7.121,0Z" fill="#34a853"/><path d="M3.3,264.516H18.377a2.378,2.378,0,0,0,2.374-2.374v-2.374H2.374A2.372,2.372,0,0,1,0,257.4v3.837a3.292,3.292,0,0,0,3.3,3.279Z" transform="translate(0 -245.916)" fill="#fbbc04"/><path d="M415.619,120.158a3.311,3.311,0,0,0,3.3-3.3v-8.182a2.378,2.378,0,0,0-2.374-2.374h-2.374v11.484a2.375,2.375,0,0,1-2.374,2.374Z" transform="translate(-393.427 -101.557)" fill="#ea4335"/></svg>