<svg xmlns="http://www.w3.org/2000/svg" xmlns:xlink="http://www.w3.org/1999/xlink" width="152.822" height="50" viewBox="0 0 152.822 50"><defs><clipPath id="a"><path d="M41.728,29.427l-7.07-4.106-13.65-7.856c-.725-.422-1.509-.181-1.509.725V50.321c0,.664.544.967,1.209.6l13.95-8.086,7.07-4.112L48.553,34.8c.781-.483.725-1.094.059-1.45S41.728,29.427,41.728,29.427Z" transform="translate(-19.498 -17.263)"/></clipPath><linearGradient id="b" x1="0.5" y1="-0.765" x2="0.5" y2="0.236" gradientUnits="objectBoundingBox"><stop offset="0" stop-color="#287e96"/><stop offset="0.12" stop-color="#348698"/><stop offset="0.71" stop-color="#6ba89f"/><stop offset="1" stop-color="#81b5a2"/></linearGradient><linearGradient id="c" y1="-1.017" x2="1" y2="-1.017" gradientUnits="objectBoundingBox"><stop offset="0" stop-color="#51a593"/><stop offset="1" stop-color="#c4ce80"/></linearGradient><linearGradient id="d" x1="0.5" y1="-1.516" x2="0.5" y2="-0.516" gradientUnits="objectBoundingBox"><stop offset="0" stop-color="#d1403d"/><stop offset="0.04" stop-color="#ce4040"/><stop offset="0.69" stop-color="#974870"/><stop offset="1" stop-color="#814b83"/></linearGradient><linearGradient id="e" x1="0.5" y1="-2.839" x2="0.5" y2="-1.841" gradientUnits="objectBoundingBox"><stop offset="0" stop-color="#da807a"/><stop offset="0.48" stop-color="#df9877"/><stop offset="1" stop-color="#e3ad74"/></linearGradient></defs><path d="M6.764,0H146.058a6.765,6.765,0,0,1,6.764,6.759V43.236A6.765,6.765,0,0,1,146.062,50H6.764A6.728,6.728,0,0,1,0,43.236H0V6.764A6.765,6.765,0,0,1,6.759,0Z" transform="translate(0 0)"/><g transform="translate(11.774 9.085)"><g transform="translate(0 0)" clip-path="url(#a)"><path d="M19.5,16.4V51.128L37.016,33.734Z" transform="translate(-19.497 -16.92)" fill="url(#b)"/><path d="M41.727,28.966l-7.07-4.116L19.5,16.1v.181L37.016,33.616Z" transform="translate(-19.497 -16.8)" fill="url(#c)"/><path d="M19.5,62.5v.12L34.656,53.85,41.723,49.8l-4.708-4.7Z" transform="translate(-19.497 -28.285)" fill="url(#d)"/><path d="M53.211,37.4,48.5,42.052l4.711,4.711L61.3,42.052Z" transform="translate(-30.981 -25.235)" fill="url(#e)"/></g></g><path d="M199.111,49.5a4.622,4.622,0,0,1-1.811-.362A3.172,3.172,0,0,1,195.911,48h-.12a15.931,15.931,0,0,1,.12,1.691v4.161H194.4V39.177h1.269l.242,1.389h.059a3.814,3.814,0,0,1,1.389-1.209A4.622,4.622,0,0,1,199.172,39a3.567,3.567,0,0,1,3.08,1.389,7.415,7.415,0,0,1,0,7.73,3.925,3.925,0,0,1-3.141,1.383Zm-.242-9.181a2.748,2.748,0,0,0-2.236.845,4.3,4.3,0,0,0-.725,2.719v.363a4.81,4.81,0,0,0,.725,3.02,2.666,2.666,0,0,0,2.3.906,2.373,2.373,0,0,0,2.053-1.094,4.844,4.844,0,0,0,.725-2.9,4.844,4.844,0,0,0-.725-2.9,2.375,2.375,0,0,0-2.114-.97Z" transform="translate(-80.233 -16.305)" fill="#f9f9f9"/><path d="M214.009,46.675H212.5V32.3h1.509Z" transform="translate(-88.245 -13.498)" fill="#f9f9f9"/><path d="M225,49.4l-.3-1.45h-.059a4.355,4.355,0,0,1-1.509,1.269,4.922,4.922,0,0,1-1.875.363A3.373,3.373,0,0,1,218.9,48.8a2.794,2.794,0,0,1-.906-2.236c0-2.053,1.631-3.141,4.892-3.2l1.691-.059v-.6a2.344,2.344,0,0,0-.544-1.752,2.006,2.006,0,0,0-1.63-.544,6.428,6.428,0,0,0-2.837.781l-.483-1.147a5.959,5.959,0,0,1,1.631-.6,6.236,6.236,0,0,1,1.811-.242,4.072,4.072,0,0,1,2.656.781,3.181,3.181,0,0,1,.845,2.6V49.46L225,49.4Zm-3.437-1.094a3,3,0,0,0,2.236-.781,3.281,3.281,0,0,0,.845-2.173v-.906l-1.509.12a6.747,6.747,0,0,0-2.656.544,1.939,1.939,0,0,0-.3,2.839,2.092,2.092,0,0,0,1.389.362Z" transform="translate(-90.421 -16.293)" fill="#f9f9f9"/><path d="M232.9,39.26h1.631L236.767,45a22.2,22.2,0,0,1,.906,2.839h.059c.061-.3.242-.845.483-1.631s1.094-3.08,2.477-7.006h1.631l-4.348,11.536a5.652,5.652,0,0,1-1.509,2.416,3.323,3.323,0,0,1-2.114.725,5.484,5.484,0,0,1-1.389-.181V52.482a6.688,6.688,0,0,0,1.147.12,2.344,2.344,0,0,0,2.236-1.752l.544-1.45Z" transform="translate(-96.324 -16.39)" fill="#f9f9f9"/><path d="M150.054,40.387a3.548,3.548,0,0,1,1.509,2.839,3.719,3.719,0,0,1-1.752,3.02,1.406,1.406,0,0,0-.6,1.027,1.122,1.122,0,0,0,.544.906l.781.6a3.734,3.734,0,0,1,1.752,2.959c0,1.994-1.933,3.987-5.556,3.987-3.08,0-4.531-1.45-4.531-3.02a3.166,3.166,0,0,1,1.631-2.6,9.331,9.331,0,0,1,4.047-.967,2.5,2.5,0,0,1-.664-1.45,1.51,1.51,0,0,1,.242-.845c-.242,0-.483.059-.664.059a3.317,3.317,0,0,1-3.5-3.141v-.181a3.948,3.948,0,0,1,1.33-2.839,5.694,5.694,0,0,1,3.8-1.147h4.348l-1.33.781Zm-1.45,9.423h-.483a7.208,7.208,0,0,0-2.236.362,2.344,2.344,0,0,0-1.808,2.167c0,1.509,1.45,2.6,3.75,2.6,2.053,0,3.08-.967,3.08-2.3,0-1.148-.727-1.752-2.3-2.839Zm.6-4.047a2.366,2.366,0,0,0,.544-1.57c0-1.509-.906-3.866-2.656-3.866a1.992,1.992,0,0,0-1.45.725,2.837,2.837,0,0,0-.483,1.562c0,1.389.845,3.75,2.656,3.75a2.209,2.209,0,0,0,1.389-.6Z" transform="translate(-58.718 -16.587)" fill="#f9f9f9"/><path d="M129.834,49.247a4.914,4.914,0,0,1-5.134-4.831v-.18a5.22,5.22,0,0,1,5.5-5.134,4.923,4.923,0,0,1,5.014,4.831v.181a5.181,5.181,0,0,1-5.194,5.134Zm2.656-1.691a3.978,3.978,0,0,0,.666-2.359c0-1.875-.906-5.436-3.5-5.436a2.6,2.6,0,0,0-1.875.725,3.2,3.2,0,0,0-.967,2.6c0,2.114,1.027,5.556,3.562,5.556a3.03,3.03,0,0,0,2.114-1.094Z" transform="translate(-51.489 -16.253)" fill="#f9f9f9"/><path d="M110.834,49.247a4.914,4.914,0,0,1-5.134-4.831v-.18a5.22,5.22,0,0,1,5.5-5.134,4.923,4.923,0,0,1,5.014,4.831v.181a5.181,5.181,0,0,1-5.194,5.134Zm2.656-1.691A4.051,4.051,0,0,0,114.1,45.2c0-1.875-.906-5.436-3.5-5.436a2.849,2.849,0,0,0-1.933.725,3.2,3.2,0,0,0-.967,2.6c0,2.114,1.027,5.556,3.563,5.556a2.777,2.777,0,0,0,2.236-1.086Z" transform="translate(-43.642 -16.253)" fill="#f9f9f9"/><path d="M93.477,45.8l-3.08.725a17.248,17.248,0,0,1-3.5.362A7.534,7.534,0,0,1,78.8,39.22a8,8,0,0,1,8.577-7.912,15.092,15.092,0,0,1,3.263.422,7.88,7.88,0,0,1,2.778,1.33l-1.752,1.686-.725.181.544-.845a6.175,6.175,0,0,0-4.531-1.994A5.83,5.83,0,0,0,81.1,38.368,7.5,7.5,0,0,0,88.585,46.1a7.041,7.041,0,0,0,2.719-.544V42.118l-3.2.181,1.691-.906h4.475l-.544.544a.366.366,0,0,0-.181.362c0,.181-.059.781-.059,1.027V45.8Z" transform="translate(-32.583 -13.111)" fill="#f9f9f9"/><path d="M163.469,44.875c-.725-.059-.845-.181-.845-1.027V31.769c.059-.725.3-.845.967-1.269h-3.02l-1.57.781h1.631V44.391c0,.422-.059.483-.544,1.147h3.75l.781-.483C164.134,44.934,163.772,44.934,163.469,44.875Z" transform="translate(-65.563 -12.758)" fill="#f9f9f9"/><path d="M175.569,48.523c-.242.12-.483.3-.664.362a4.816,4.816,0,0,1-2.053.422,4.114,4.114,0,0,1-2.778-.845,5.55,5.55,0,0,1-2.173-4.469,4.8,4.8,0,0,1,4.711-4.892h.12a3.942,3.942,0,0,1,2.173.6,3.316,3.316,0,0,1,1.45,2.114L171.4,43.814l-1.631.12a4.719,4.719,0,0,0,4.347,4.228,5.6,5.6,0,0,0,2.6-.725Zm-1.931-6.342c.422-.12.6-.3.6-.544a2.1,2.1,0,0,0-2.114-1.811,2.586,2.586,0,0,0-2.416,2.9c0,.363.061.725.061,1.094Z" transform="translate(-69.291 -16.253)" fill="#f9f9f9"/><path d="M183.6,39.32v1.389h-.181V39.32H183V39.2h1.094v.12Z" transform="translate(-75.374 -16.161)" fill="#f9f9f9"/><path d="M186.394,40.709V39.32h0l-.422,1.389h-.12l-.422-1.389h0v1.389h-.13V39.2h.242l.362,1.209h0l.422-1.209h.242v1.509Z" transform="translate(-76.324 -16.161)" fill="#f9f9f9"/><path d="M83.108,21.588H82.081a8.828,8.828,0,0,0-.3-1.209H80.27a7.066,7.066,0,0,0-.3,1.209H79a19.728,19.728,0,0,1,.781-2.114c.3-.725.544-1.448.781-2.173h1.269a15.3,15.3,0,0,0,.725,2.173C82.684,20.138,82.925,20.862,83.108,21.588ZM81.6,19.713a10.331,10.331,0,0,1-.544-1.811H81a16.8,16.8,0,0,1-.6,1.811Z" transform="translate(-32.564 -7.148)" fill="#e0e0df"/><path d="M90.562,21.589h-.781a9.52,9.52,0,0,0-.906-1.45,9.494,9.494,0,0,1-1.094-1.875h-.059a9.357,9.357,0,0,1,.059,1.33c0,.544,0,1.209.059,1.994H87c.059-.664.059-1.45.059-2.236A20.079,20.079,0,0,0,87,17.3h.967a6.575,6.575,0,0,0,.845,1.389,10.221,10.221,0,0,1,1.027,1.752h0a9.787,9.787,0,0,1-.059-1.33c0-.6,0-1.209-.059-1.811h.845a20.088,20.088,0,0,0-.059,2.053C90.5,20.2,90.5,20.925,90.562,21.589Z" transform="translate(-35.855 -7.148)" fill="#e0e0df"/><path d="M98.425,19.286a2.281,2.281,0,0,1-.6,1.631,2.2,2.2,0,0,1-1.691.725,11.735,11.735,0,0,1-1.33-.059c0-.664.059-1.389.059-2.236a20.1,20.1,0,0,0-.059-2.053h1.389a2.314,2.314,0,0,1,1.752.6,2.153,2.153,0,0,1,.484,1.389Zm-.906.12a1.808,1.808,0,0,0-.362-1.094,1.378,1.378,0,0,0-1.147-.422h-.363c0,.422.059.906.059,1.389a14.183,14.183,0,0,0,.059,1.562c.12,0,.3.059.422.059a1.094,1.094,0,0,0,1.027-.422,2.461,2.461,0,0,0,.3-1.094Z" transform="translate(-39.072 -7.142)" fill="#e0e0df"/><path d="M105.8,21.548h-.967a7.387,7.387,0,0,0-.6-1.45.969.969,0,0,0-.664-.3H103.2v1.691h-.9c0-.664.059-1.389.059-2.236A20.075,20.075,0,0,0,102.3,17.2h1.563c1.027,0,1.509.362,1.509,1.027a1.181,1.181,0,0,1-.781,1.147v.059a1.061,1.061,0,0,1,.6.544C105.38,20.462,105.622,21,105.8,21.548Zm-1.209-3.02c0-.422-.3-.664-.845-.664a1.672,1.672,0,0,0-.544.059c0,.363.059.781.059,1.33h.3c.6,0,.967-.242,1.027-.725Z" transform="translate(-42.159 -7.108)" fill="#e0e0df"/><path d="M113.168,19.272a2.531,2.531,0,0,1-.6,1.691,2.053,2.053,0,0,1-1.509.664,1.875,1.875,0,0,1-1.45-.6,2.139,2.139,0,0,1-.6-1.562,2.531,2.531,0,0,1,.6-1.691,2.053,2.053,0,0,1,1.509-.664,1.875,1.875,0,0,1,1.45.6,2.544,2.544,0,0,1,.6,1.562Zm-.906.12a1.989,1.989,0,0,0-.362-1.147,1.153,1.153,0,0,0-.845-.422,1.027,1.027,0,0,0-.781.422,1.81,1.81,0,0,0-.363,1.094,1.989,1.989,0,0,0,.363,1.147,1.153,1.153,0,0,0,.845.422,1.027,1.027,0,0,0,.781-.422,1.949,1.949,0,0,0,.363-1.094Z" transform="translate(-44.931 -7.065)" fill="#e0e0df"/><path d="M118.406,21.589H117.5c0-.664.059-1.45.059-2.236s0-1.509-.059-2.053h.906c0,.544-.059,1.209-.059,2.053S118.406,20.862,118.406,21.589Z" transform="translate(-48.394 -7.148)" fill="#e0e0df"/><path d="M124.525,19.286a2.281,2.281,0,0,1-.6,1.631,2.2,2.2,0,0,1-1.691.725,11.737,11.737,0,0,1-1.33-.059c0-.664.059-1.389.059-2.236a20.083,20.083,0,0,0-.059-2.053h1.389a2.314,2.314,0,0,1,1.752.6A2.153,2.153,0,0,1,124.525,19.286Zm-.906.12a1.809,1.809,0,0,0-.363-1.094,1.378,1.378,0,0,0-1.147-.422h-.363c0,.422.059.906.059,1.389a14.182,14.182,0,0,0,.059,1.57c.12,0,.3.059.422.059a1.094,1.094,0,0,0,1.027-.422,2.461,2.461,0,0,0,.3-1.094Z" transform="translate(-49.828 -7.142)" fill="#e0e0df"/><path d="M134.667,21.588h-1.094a8.832,8.832,0,0,0-.3-1.209h-1.509a7.071,7.071,0,0,0-.3,1.209H130.5a19.718,19.718,0,0,1,.781-2.114c.3-.725.544-1.45.781-2.173h1.269c.181.725.422,1.45.664,2.173a21.619,21.619,0,0,1,.664,2.114Zm-1.57-1.875a10.329,10.329,0,0,1-.544-1.811h-.059a16.806,16.806,0,0,1-.6,1.811Z" transform="translate(-53.792 -7.148)" fill="#e0e0df"/><path d="M141.68,18.348a1.25,1.25,0,0,1-.6,1.147,2.869,2.869,0,0,1-1.45.362h-.181c0,.422,0,.967.059,1.631h-.9c0-.664.059-1.389.059-2.236,0-.781,0-1.509-.059-2.053h1.631a1.862,1.862,0,0,1,1.094.3,1.192,1.192,0,0,1,.362.847Zm-.845.181c0-.483-.3-.725-.967-.725a1.33,1.33,0,0,0-.483.059c0,.422.059.845.059,1.389h.181c.845.059,1.209-.181,1.209-.725Z" transform="translate(-57.114 -7.109)" fill="#e0e0df"/><path d="M148.241,18.348a1.25,1.25,0,0,1-.6,1.147,2.869,2.869,0,0,1-1.45.362h-.242c0,.422,0,.967.059,1.631h-.9c0-.664.059-1.389.059-2.236,0-.781,0-1.509-.059-2.053h1.631a1.863,1.863,0,0,1,1.094.3,1.269,1.269,0,0,1,.422.847Zm-.845.181c0-.483-.3-.725-.967-.725a1.33,1.33,0,0,0-.483.059c0,.422.059.845.059,1.389h.181C146.975,19.315,147.4,19.076,147.4,18.529Z" transform="translate(-59.794 -7.109)" fill="#e0e0df"/><path d="M158.228,19.272a2.531,2.531,0,0,1-.6,1.691,2.053,2.053,0,0,1-1.509.664,1.875,1.875,0,0,1-1.45-.6A2.2,2.2,0,0,1,154,19.459a2.531,2.531,0,0,1,.6-1.691,2.053,2.053,0,0,1,1.509-.664,1.875,1.875,0,0,1,1.45.6,2.2,2.2,0,0,1,.664,1.563Zm-.906.12a1.989,1.989,0,0,0-.362-1.147,1.153,1.153,0,0,0-.845-.422,1.269,1.269,0,0,0-.845.422,1.809,1.809,0,0,0-.362,1.094,1.989,1.989,0,0,0,.362,1.147,1.153,1.153,0,0,0,.845.422,1.269,1.269,0,0,0,.845-.422,1.949,1.949,0,0,0,.361-1.094Z" transform="translate(-63.478 -7.065)" fill="#e0e0df"/><path d="M166.064,21.59h-.845a9.515,9.515,0,0,0-.906-1.45,9.492,9.492,0,0,1-1.094-1.875h-.059a9.357,9.357,0,0,1,.059,1.33c0,.544,0,1.209.059,1.994H162.5c.059-.664.059-1.45.059-2.236s0-1.509-.059-2.053h.967a4.769,4.769,0,0,0,.845,1.389,7.134,7.134,0,0,1,.967,1.752h.059a9.775,9.775,0,0,1-.059-1.33c0-.6,0-1.209-.059-1.811h.845A20.1,20.1,0,0,0,166,19.352C166,20.2,166,20.926,166.064,21.59Z" transform="translate(-66.974 -7.149)" fill="#e0e0df"/></svg>