<svg xmlns="http://www.w3.org/2000/svg" width="32.41" height="36.416" viewBox="0 0 32.41 36.416"><g transform="translate(-25.74 -4.2)"><g transform="translate(27.354 5.388)"><g transform="translate(0)"><rect width="1.544" height="29.785" transform="matrix(-0.866, -0.5, 0.5, -0.866, 1.337, 26.566)" fill="#e535ab"/></g></g><g transform="translate(27.047 29.122)"><rect width="29.785" height="1.544" fill="#e535ab"/></g><g transform="translate(27.637 28.652)"><g transform="translate(0 0)"><rect width="17.203" height="1.544" transform="matrix(-0.866, -0.5, 0.5, -0.866, 14.898, 9.939)" fill="#e535ab"/></g></g><g transform="translate(40.579 6.234)"><g transform="translate(0)"><rect width="17.203" height="1.544" transform="matrix(-0.866, -0.5, 0.5, -0.866, 14.898, 9.939)" fill="#e535ab"/></g></g><g transform="translate(27.641 6.228)"><g transform="translate(0)"><rect width="1.544" height="17.203" transform="matrix(-0.5, -0.866, 0.866, -0.5, 0.772, 9.939)" fill="#e535ab"/></g></g><g transform="translate(40.31 5.389)"><g transform="translate(0 0)"><rect width="29.785" height="1.544" transform="matrix(-0.5, -0.866, 0.866, -0.5, 14.893, 26.566)" fill="#e535ab"/></g></g><g transform="translate(28.228 13.806)"><g transform="translate(0)"><rect width="1.544" height="17.203" fill="#e535ab"/></g></g><g transform="translate(54.117 13.806)"><g transform="translate(0)"><rect width="1.544" height="17.203" fill="#e535ab"/></g></g><g transform="translate(41.598 29.288)"><g transform="translate(0 0)"><rect width="1.348" height="14.962" transform="matrix(-0.5, -0.866, 0.866, -0.5, 0.674, 8.649)" fill="#e535ab"/></g></g><path d="M310.4,250.409a3.247,3.247,0,1,1-1.19-4.436,3.25,3.25,0,0,1,1.19,4.436" transform="translate(-252.693 -218.897)" fill="#e535ab"/><path d="M31.8,89.509a3.247,3.247,0,1,1-1.19-4.436,3.25,3.25,0,0,1,1.19,4.436" transform="translate(0 -72.96)" fill="#e535ab"/><path d="M26.273,250.409a3.247,3.247,0,1,1,4.436,1.19,3.253,3.253,0,0,1-4.436-1.19" transform="translate(-0.091 -218.897)" fill="#e535ab"/><path d="M304.873,89.509a3.247,3.247,0,1,1,4.436,1.19,3.253,3.253,0,0,1-4.436-1.19" transform="translate(-252.783 -72.96)" fill="#e535ab"/><path d="M168.345,332.491a3.245,3.245,0,1,1,3.245-3.245,3.242,3.242,0,0,1-3.245,3.245" transform="translate(-126.401 -291.875)" fill="#e535ab"/><path d="M168.345,10.691a3.245,3.245,0,1,1,3.245-3.245,3.242,3.242,0,0,1-3.245,3.245" transform="translate(-126.401)" fill="#e535ab"/></g></svg>