<svg xmlns="http://www.w3.org/2000/svg" width="190.171" height="35.105" viewBox="0 0 190.171 35.105"><rect width="17.903" height="3.503" transform="translate(148.177 30.864)" fill="#1f69ff"/><g transform="translate(0 0)"><g transform="translate(0 0.003)"><path d="M932.089,25.271a6.831,6.831,0,0,0,4.154-6.473q0-5.227-6.331-7.027l-3.53-1.038a7.449,7.449,0,0,1-2.993-1.471,2.835,2.835,0,0,1-.951-2.164A3.221,3.221,0,0,1,923.8,4.45a5.465,5.465,0,0,1,3.443-1.056,6.09,6.09,0,0,1,3.338.934,5.8,5.8,0,0,1,2.039,2.177l.172.31.3-.184L935.6,5.11q.068-.041.248-.167-.075-.183-.117-.267a7.81,7.81,0,0,0-3.191-3.359A10.421,10.421,0,0,0,927.246,0a10.677,10.677,0,0,0-4.515.917,7.3,7.3,0,0,0-3.114,2.614,6.856,6.856,0,0,0-1.124,3.877q0,5.123,6.194,6.958l3.806,1.108a7.233,7.233,0,0,1,2.872,1.471,2.863,2.863,0,0,1,.933,2.163,3.16,3.16,0,0,1-1.366,2.648,5.717,5.717,0,0,1-3.512,1.021,8.025,8.025,0,0,1-4.707-1.521,4.353,4.353,0,0,1-1.386-1.572q-.069-.135-.286-.543-.366.19-.529.281l-2.435,1.336q-.067.037-.266.158.078.189.122.28a7.984,7.984,0,0,0,3.587,3.574,12.7,12.7,0,0,0,6.038,1.4,10.8,10.8,0,0,0,4.532-.9Z" transform="translate(-746.074 0)" fill-rule="evenodd"/><path d="M675.147,39.355l-.692.005h-3.491l-.118.3L666.092,52.9,661.35,39.689c-.013-.037-.037-.11-.069-.216l-.033-.108-.328,0h-4.1l.226.551.051.128,6.937,18.051-3.371,7.922q-.054.127-.211.47l-.283.6.785.007h3.421L675.013,39.7l.132-.348Z" transform="translate(-533.913 -31.99)"/><path d="M572.353,38.337a7.2,7.2,0,0,0-3.586.884l-.131.075a5.9,5.9,0,0,0-1.972,1.873l-.054.085-.25-2.433h-3.328v18.4h4.008V46.689a4.672,4.672,0,0,1,1.2-3.354,4.077,4.077,0,0,1,3.106-1.267,3.587,3.587,0,0,1,2.809,1.16,4.53,4.53,0,0,1,1.05,3.15V57.221h3.974v-11.6a8.121,8.121,0,0,0-.865-3.807,6.258,6.258,0,0,0-2.411-2.57,6.9,6.9,0,0,0-3.555-.9Z" transform="translate(-457.679 -31.162)"/><path d="M462.9,39a8.928,8.928,0,0,1,4.622,1.187,8.241,8.241,0,0,1,3.15,3.355,11.3,11.3,0,0,1,0,9.856,8.267,8.267,0,0,1-3.15,3.337,8.927,8.927,0,0,1-4.622,1.187,9.017,9.017,0,0,1-4.638-1.186,8.233,8.233,0,0,1-3.166-3.338,11.334,11.334,0,0,1,0-9.874,8.233,8.233,0,0,1,3.166-3.338A9.019,9.019,0,0,1,462.9,39Zm0,3.544a4.442,4.442,0,0,0-3.586,1.619,6.5,6.5,0,0,0-1.368,4.314,6.428,6.428,0,0,0,1.368,4.28,4.742,4.742,0,0,0,7.138,0,6.449,6.449,0,0,0,1.367-4.28,6.483,6.483,0,0,0-1.367-4.314A4.407,4.407,0,0,0,462.9,42.547Z" transform="translate(-369.019 -31.702)"/><path d="M319.045,38.346a6.346,6.346,0,0,1,3.275.921,6.149,6.149,0,0,1,2.306,2.589,8.386,8.386,0,0,1,.81,3.586V57.229h-3.973V46.039a4.226,4.226,0,0,0-.948-2.891,3.233,3.233,0,0,0-2.565-1.072,3.747,3.747,0,0,0-2.863,1.163,4.246,4.246,0,0,0-1.1,2.942l0,.136V57.229h-3.974V46.039a4.176,4.176,0,0,0-.964-2.89,3.287,3.287,0,0,0-2.584-1.073,3.707,3.707,0,0,0-2.829,1.163,4.246,4.246,0,0,0-1.1,2.942l0,.136V57.228h-4.009v-18.4H301.9l.211,2.381.048-.075a5.828,5.828,0,0,1,1.867-1.825l.13-.078a6.482,6.482,0,0,1,3.347-.886,6.181,6.181,0,0,1,3.351.923,6.418,6.418,0,0,1,2.169,2.272l.014.024a5.941,5.941,0,0,1,2.169-2.226l.128-.075a7.007,7.007,0,0,1,3.392-.918l.161,0,.161,0Z" transform="translate(-242.669 -31.17)"/><path d="M237.457,38.673a6.752,6.752,0,0,0-3.365.807l-.124.072a5.346,5.346,0,0,0-1.789,1.721l-.034.054-.208-2.162h-3.7v18.4h4.054V46.911a4.2,4.2,0,0,1,1.28-3.228,4.924,4.924,0,0,1,3.5-1.2,10.851,10.851,0,0,1,1.385.077l.117.019.187.037.242.052.009-.468q0-.087,0-.134V38.858l-.115-.031q-.2-.054-.3-.071a6.887,6.887,0,0,0-1.145-.084Z" transform="translate(-185.532 -31.435)"/><path d="M134.537,36.656a8.1,8.1,0,0,1,5.49,1.77,6.218,6.218,0,0,1,2.047,4.85V55.757h-3.368l-.25-2.152-.058.083a5.384,5.384,0,0,1-1.7,1.522l-.14.078-.127.067a7.511,7.511,0,0,1-3.465.752,7.274,7.274,0,0,1-4.824-1.558,5.086,5.086,0,0,1-1.875-4.091,5.343,5.343,0,0,1,.992-3.188A6.471,6.471,0,0,1,130,45.119a9.785,9.785,0,0,1,3.82-.764h4.276v-.44a3.693,3.693,0,0,0-.865-2.622l-.065-.067-.07-.068a3.9,3.9,0,0,0-2.763-.938,5.387,5.387,0,0,0-2.535.595,4.988,4.988,0,0,0-1.694,1.446l-.027.037-.061.094-.086.137-.088.144-.35-.258-.082-.062-2.089-1.588q-.051-.039-.152-.122l-.189-.156.119-.216c.045-.079.081-.138.11-.18a7.571,7.571,0,0,1,2.889-2.459,9.8,9.8,0,0,1,4.444-.979Zm3.368,10.738h-3.788a4.477,4.477,0,0,0-2.793.808,2.422,2.422,0,0,0-1.041,2.011,2.3,2.3,0,0,0,.954,1.941,4.081,4.081,0,0,0,2.53.738,4.2,4.2,0,0,0,3.16-1.195,4.251,4.251,0,0,0,1.162-3V47.58a.187.187,0,0,0-.186-.186Z" transform="translate(-102.637 -29.794)"/><path d="M4.229,1.665H0V27.589H4.229V16.147h12.6V27.589H21.06V1.665H16.831v10.6H4.229Z" transform="translate(0 -1.353)"/></g><path d="M782.488,1a13.064,13.064,0,1,0,13.065,13.064A13.064,13.064,0,0,0,782.488,1Zm0,22.483a9.419,9.419,0,1,1,9.419-9.419h0A9.419,9.419,0,0,1,782.488,23.483Z" transform="translate(-625.452 -1)"/></g></svg>