<svg xmlns="http://www.w3.org/2000/svg" xmlns:xlink="http://www.w3.org/1999/xlink" width="122.125" height="96" viewBox="0 0 122.125 96"><defs><clipPath id="a"><path d="M255.938-938.745v96H378.062v-96H255.938" transform="translate(-255.938 938.745)"/></clipPath><clipPath id="b"><path d="M255.938-938.745h119.87v96.138H255.938v-96.138" transform="translate(-255.938 938.745)"/></clipPath><clipPath id="c"><path d="M255.938-842.745H375.685v-96H255.938v96" transform="translate(-255.938 938.745)"/></clipPath></defs><g transform="translate(-225.884 -342.545)"><g transform="translate(225.884 342.545)"><g transform="translate(0 0)" clip-path="url(#a)"><g clip-path="url(#b)"><path d="M292.914-762.188H284.58v2.514h2.331v9.181H284.58v2.52h8.334v-2.52h-2.336v-9.181h2.336v-2.514" transform="translate(-271.594 842.234)" fill="#274a5b"/><path d="M324.389-762.806a8.482,8.482,0,0,0-2.994.515,6.186,6.186,0,0,0-2.3,1.464,6.5,6.5,0,0,0-1.469,2.356,8.844,8.844,0,0,0-.5,3.065,8.943,8.943,0,0,0,.53,3.2,6.223,6.223,0,0,0,1.494,2.31,6.241,6.241,0,0,0,2.3,1.4,8.872,8.872,0,0,0,2.928.464,10.373,10.373,0,0,0,1.678-.1,12.853,12.853,0,0,0,1.306-.306,8.538,8.538,0,0,0,1.02-.362c.326-.143.668-.291,1.02-.449v-3.4h-.377c-.173.153-.393.332-.658.541a8.4,8.4,0,0,1-.872.587,5.04,5.04,0,0,1-1.2.541,4.537,4.537,0,0,1-1.321.2,4.58,4.58,0,0,1-1.413-.225,3.506,3.506,0,0,1-1.3-.744,4.038,4.038,0,0,1-.949-1.413,5.792,5.792,0,0,1-.377-2.229,5.949,5.949,0,0,1,.352-2.173,3.954,3.954,0,0,1,.908-1.438,3.592,3.592,0,0,1,1.29-.806,4.393,4.393,0,0,1,1.469-.245,4.05,4.05,0,0,1,1.306.209,6.245,6.245,0,0,1,1.137.515,8.435,8.435,0,0,1,.918.617c.27.209.495.388.673.541h.418v-3.448c-.26-.127-.561-.265-.908-.413a9.228,9.228,0,0,0-1.158-.408,11.366,11.366,0,0,0-1.331-.26,11.914,11.914,0,0,0-1.617-.1" transform="translate(-289.385 842.572)" fill="#274a5b"/><path d="M365.54-762.188h-4.218l-5.248,14.215h3.7l.99-2.866h5.258l.984,2.866h3.785l-5.248-14.215m-3.9,8.737,1.744-5.085,1.744,5.085h-3.489" transform="translate(-310.675 842.234)" fill="#274a5b"/><path d="M415.386-762.188H412.02v8.14l-5.187-8.14h-4.386v14.215h3.366v-9.757l6.034,9.757h3.54v-14.215" transform="translate(-336.024 842.234)" fill="#274a5b"/><g clip-path="url(#c)"><path d="M461.32-762.188h-3.366v8.14l-5.187-8.14H448.38v14.215h3.366v-9.757l6.034,9.757h3.54v-14.215" transform="translate(-361.132 842.234)" fill="#274a5b"/><path d="M334.1-935.525a33.928,33.928,0,0,0-6.635.667,39.053,39.053,0,0,0-10.277,4.417c-10.828,5.3-17.729,16.439-16.775,28.491l5.274-1.53c-.643-8.5,1.658-16.046,6.962-22.207a114.411,114.411,0,0,0,20.549,46.837c.946.061,1.862.122,2.771.122a13.744,13.744,0,0,0,2.753-.249,103.931,103.931,0,0,1-9.512-11.593,80.008,80.008,0,0,0,13.159-7.054,33.263,33.263,0,0,0-1.653-4.111,68.861,68.861,0,0,1-13.5,8.192c-2.208-3.31-4.111-6.717-5.952-10.155v-.337a66.242,66.242,0,0,0,14.475-7.941c-.8-1.474-1.653-3.01-2.545-4.325a94.136,94.136,0,0,1-13.251,8.834h-.459a102.255,102.255,0,0,1-6.626-18.555,35.35,35.35,0,0,1,4.968-4.631l5.1-1.444a115.05,115.05,0,0,1,25.732,48.367,7.926,7.926,0,0,0,2.545-4.075,74.084,74.084,0,0,0-2.667-7.4c-.581-1.75-1.719-3.372-2.086-5.09a106.256,106.256,0,0,0,9.721-8.069,12.86,12.86,0,0,0-1.652-6.07h-.245a96.258,96.258,0,0,1-10.155,9.844c-1.9-3.1-3.652-6.258-5.733-9.293a78.858,78.858,0,0,0,10.15-9.385,10.3,10.3,0,0,0-4.294-3.621,83.746,83.746,0,0,1-8.834,8.711,135.859,135.859,0,0,0-12.266-13.8,27.6,27.6,0,0,1,5.974-.62,27.338,27.338,0,0,1,5.955.62c10.553,1.9,20.825,12.267,22.513,22.85a29.3,29.3,0,0,1-11.685,29.935,31.612,31.612,0,0,1-10.743,1.877c-7.854,0-15.643-2.929-20.941-8.961a75.756,75.756,0,0,0,10.706-2.851,22.67,22.67,0,0,1-1.566-2.668,84.448,84.448,0,0,1-31.573,6.168q-2.021,0-4.068-.1a91.324,91.324,0,0,0,11.629.7c2.479,0,4.968-.085,7.452-.239a31.666,31.666,0,0,0,9.293,7.727,28.03,28.03,0,0,0,13.453,3.212,27.979,27.979,0,0,0,15.808-4.528,30.8,30.8,0,0,0,12.787-10.277c6.2-7.916,7.146-20.978,2.545-29.935l-1.989-3.407A29.085,29.085,0,0,0,334.1-935.525" transform="translate(-273.304 936.985)" fill="#274a5b"/></g><path d="M317.955-869.985a79.255,79.255,0,0,1-27.6,7.177q1.01.015,2.022.015c3.312,0,6.609-.123,9.694-.352a28.257,28.257,0,0,0,4.08,10.823,62.381,62.381,0,0,0,6.5-1.438,28.588,28.588,0,0,1-4.167-8.16c-.153-.7-.678-1.535-.245-2.209a65.64,65.64,0,0,0,11.037-2.882l-1.316-2.974" transform="translate(-274.749 901.159)" fill="#274a5b"/><path d="M317.665-782.035a285.677,285.677,0,0,0-58.51,5.857,528.064,528.064,0,0,1,56.717-2.937,599.189,599.189,0,0,1,60.113,3.028,276.587,276.587,0,0,0-58.32-5.948" transform="translate(-257.696 853.083)" fill="#274a5b"/></g></g></g></g></svg>