<svg xmlns="http://www.w3.org/2000/svg" width="70.391" height="68.631" viewBox="0 0 70.391 68.631"><path d="M12.465,0H57.926A12.455,12.455,0,0,1,70.391,12.465v43.7A12.455,12.455,0,0,1,57.926,68.631H12.465A12.455,12.455,0,0,1,0,56.166v-43.7A12.455,12.455,0,0,1,12.465,0Z" fill="#300"/><path d="M68.856,77.739H57.945l-2.229,6.892a.513.513,0,0,1-.557.411H49.645c-.323,0-.411-.176-.323-.528l9.444-27.189c.088-.293.176-.616.293-.968a10.244,10.244,0,0,0,.176-1.906.291.291,0,0,1,.235-.323h7.6c.235,0,.352.088.381.235l10.705,30.21c.088.323,0,.469-.293.469H71.73a.443.443,0,0,1-.469-.323Zm-9.21-5.954H67.1c-.176-.616-.411-1.349-.675-2.112-.264-.792-.528-1.642-.792-2.522-.293-.909-.557-1.789-.851-2.7s-.557-1.76-.792-2.61c-.235-.821-.44-1.584-.645-2.288h-.059a36.012,36.012,0,0,1-1,3.784c-.44,1.408-.88,2.874-1.349,4.341C60.526,69.175,60.087,70.554,59.647,71.785ZM84.694,59.262a3.63,3.63,0,0,1-2.61-1.027,3.81,3.81,0,0,1-1-2.7,3.451,3.451,0,0,1,1.056-2.61,3.756,3.756,0,0,1,2.61-1.027,3.512,3.512,0,0,1,2.669,1.027,4.032,4.032,0,0,1-.059,5.309,3.449,3.449,0,0,1-2.669,1.027ZM81.409,84.72V62.136c0-.293.117-.411.381-.411H87.6c.264,0,.381.147.381.411V84.72c0,.323-.117.469-.381.469H81.849A.41.41,0,0,1,81.409,84.72Z" transform="translate(-34.834 -36.678)" fill="#ff9a00"/></svg>