<svg xmlns="http://www.w3.org/2000/svg" width="38.833" height="19.268" viewBox="0 0 38.833 19.268"><path d="M.181,18.958H3.392V5.288H.181ZM1.78,3.495A1.748,1.748,0,1,0,1.78,0a1.748,1.748,0,1,0,0,3.495ZM14.084.039c-5.429,0-8.834,3.7-8.834,9.621s3.4,9.608,8.834,9.608,8.821-3.688,8.821-9.608S19.5.039,14.084.039Zm0,2.837c3.314,0,5.429,2.631,5.429,6.784S17.4,16.43,14.084,16.43,8.654,13.8,8.654,9.66s2.1-6.784,5.429-6.784ZM24.26,13.722c.142,3.431,2.953,5.546,7.235,5.546,4.5,0,7.338-2.218,7.338-5.752,0-2.773-1.6-4.333-5.378-5.2l-2.141-.49c-2.283-.542-3.224-1.264-3.224-2.5,0-1.548,1.419-2.579,3.521-2.579,2.128,0,3.585,1.045,3.74,2.786h3.173C38.446,2.257,35.738.039,31.637.039c-4.05,0-6.926,2.231-6.926,5.533,0,2.657,1.625,4.308,5.055,5.094l2.412.567c2.347.555,3.3,1.328,3.3,2.67,0,1.548-1.561,2.657-3.8,2.657-2.27,0-3.985-1.122-4.191-2.837H24.26Z"/></svg>