<svg xmlns="http://www.w3.org/2000/svg" width="85.659" height="19.684" viewBox="0 0 85.659 19.684"><path d="M9.714,16.962a1.862,1.862,0,0,0-.977-.262,1.819,1.819,0,0,0-.977.262,1.912,1.912,0,0,0-.7.7,1.89,1.89,0,0,0,0,1.919,1.913,1.913,0,0,0,.7.7,1.862,1.862,0,0,0,.977.262,1.819,1.819,0,0,0,.977-.262,1.913,1.913,0,0,0,.7-.7,1.89,1.89,0,0,0,0-1.919A1.912,1.912,0,0,0,9.714,16.962Z" transform="translate(-6.8 -16.7)"/><rect width="3.734" height="13.698" transform="translate(0.087 5.688)"/><path d="M56.81,23.845a5.827,5.827,0,0,0-2.024-1.291A7.23,7.23,0,0,0,52.2,22.1H44.7V40.544h3.856V34.733h3.455a7.651,7.651,0,0,0,2.67-.454,5.889,5.889,0,0,0,2.076-1.291A6.114,6.114,0,0,0,58.118,31a6.807,6.807,0,0,0,.471-2.582,7.161,7.161,0,0,0-.454-2.582A5.768,5.768,0,0,0,56.81,23.845Zm-3.071,7.032a3.685,3.685,0,0,1-2.582.855h-2.6V25.171h2.617a3.634,3.634,0,0,1,2.582.855,3.133,3.133,0,0,1,.907,2.425A3.168,3.168,0,0,1,53.739,30.877Z" transform="translate(-38.087 -21.158)"/><path d="M137.019,48.176a7.536,7.536,0,0,0-3.071-.576,7.884,7.884,0,0,0-3.141.576,5.052,5.052,0,0,0-2.076,1.57,4.345,4.345,0,0,0-.82,2.338h3.42a1.884,1.884,0,0,1,.768-1.221,2.725,2.725,0,0,1,1.675-.471,2.47,2.47,0,0,1,1.675.523,1.839,1.839,0,0,1,.628,1.483v.907l-3.455.209a7.046,7.046,0,0,0-3.944,1.221,3.477,3.477,0,0,0-1.378,2.931,3.912,3.912,0,0,0,.593,2.164,4.05,4.05,0,0,0,1.64,1.466,5.172,5.172,0,0,0,2.338.523,5.167,5.167,0,0,0,3.141-1.064,4.174,4.174,0,0,0,1.047-1.239h.07v2.094h3.612V52.189a4.13,4.13,0,0,0-.715-2.408A4.432,4.432,0,0,0,137.019,48.176Zm-.925,8.411a2.276,2.276,0,0,1-.4,1.309,2.772,2.772,0,0,1-1.082.907,3.487,3.487,0,0,1-1.483.332,2.507,2.507,0,0,1-1.536-.454,1.452,1.452,0,0,1-.576-1.221,1.4,1.4,0,0,1,.576-1.169,2.981,2.981,0,0,1,1.623-.523l2.9-.174v.995Z" transform="translate(-106.274 -42.208)"/><path d="M219.559,29.284h-.07a4.254,4.254,0,0,0-.942-1.344,4.652,4.652,0,0,0-1.431-.907A5.014,5.014,0,0,0,215.3,26.7a5.132,5.132,0,0,0-2.984.855A5.468,5.468,0,0,0,210.381,30a9.416,9.416,0,0,0-.681,3.752,9.594,9.594,0,0,0,.681,3.786,5.468,5.468,0,0,0,1.937,2.443,5.076,5.076,0,0,0,2.966.855,4.848,4.848,0,0,0,1.85-.332A4.506,4.506,0,0,0,218.6,39.6a4.042,4.042,0,0,0,.96-1.344h.07v2.356h3.682V22.2h-3.734v7.084Zm-.366,6.666a3.171,3.171,0,0,1-1.064,1.413,2.91,2.91,0,0,1-3.228,0,3.141,3.141,0,0,1-1.047-1.413,6.571,6.571,0,0,1,0-4.327,3.141,3.141,0,0,1,1.047-1.413,2.827,2.827,0,0,1,3.228,0,3.3,3.3,0,0,1,1.064,1.413,5.777,5.777,0,0,1,.384,2.164A5.45,5.45,0,0,1,219.192,35.95Z" transform="translate(-174.296 -21.24)"/><path d="M315.69,22.865a7.5,7.5,0,0,0-2.809-1.9,10.6,10.6,0,0,0-7.381,0,7.642,7.642,0,0,0-2.792,1.9,8.732,8.732,0,0,0-1.78,3,11.718,11.718,0,0,0-.628,3.961,11.718,11.718,0,0,0,.628,3.961,8.571,8.571,0,0,0,1.78,3,7.575,7.575,0,0,0,2.792,1.9,10.6,10.6,0,0,0,7.381,0,7.859,7.859,0,0,0,2.809-1.9,8.731,8.731,0,0,0,1.78-3,11.718,11.718,0,0,0,.628-3.961,11.718,11.718,0,0,0-.628-3.961A8.365,8.365,0,0,0,315.69,22.865Zm-2.146,10.33a4.838,4.838,0,0,1-1.728,2.181,4.41,4.41,0,0,1-2.617.768,4.592,4.592,0,0,1-2.635-.768,5.186,5.186,0,0,1-1.727-2.181,8.507,8.507,0,0,1-.611-3.35,8.507,8.507,0,0,1,.611-3.35,4.983,4.983,0,0,1,1.727-2.2,4.41,4.41,0,0,1,2.617-.768,4.5,4.5,0,0,1,2.617.768,5.241,5.241,0,0,1,1.727,2.2,8.568,8.568,0,0,1,.611,3.35A8.216,8.216,0,0,1,313.544,33.195Z" transform="translate(-249.086 -19.672)"/><path d="M425.958,30.159a8.731,8.731,0,0,0-4.258-1.815l-1.954-.4a6.05,6.05,0,0,1-2.356-.872,1.69,1.69,0,0,1-.715-1.4,1.91,1.91,0,0,1,.4-1.187,2.576,2.576,0,0,1,1.117-.785,4.434,4.434,0,0,1,1.675-.279,4.843,4.843,0,0,1,1.727.3,2.7,2.7,0,0,1,1.2.872,2.39,2.39,0,0,1,.506,1.344h3.647a5.28,5.28,0,0,0-.907-2.966A5.757,5.757,0,0,0,423.6,21a9.029,9.029,0,0,0-3.734-.7,9.62,9.62,0,0,0-2.827.4,6.612,6.612,0,0,0-2.233,1.152,5.489,5.489,0,0,0-1.466,1.78,4.952,4.952,0,0,0-.523,2.286,4.457,4.457,0,0,0,1.361,3.368,8.158,8.158,0,0,0,4.118,1.867l1.937.384a6.547,6.547,0,0,1,2.46.907,1.726,1.726,0,0,1,.715,1.466,1.8,1.8,0,0,1-.436,1.2,3.041,3.041,0,0,1-1.221.838,4.819,4.819,0,0,1-1.815.314,5.771,5.771,0,0,1-1.885-.3,3.191,3.191,0,0,1-1.361-.855,2.5,2.5,0,0,1-.646-1.326H412.4a5.06,5.06,0,0,0,.995,2.984,5.829,5.829,0,0,0,2.582,1.919,10.089,10.089,0,0,0,3.856.663,10.191,10.191,0,0,0,3.978-.715,6.033,6.033,0,0,0,2.565-2.042,5.483,5.483,0,0,0,.907-3.123A4.24,4.24,0,0,0,425.958,30.159Z" transform="translate(-341.626 -19.672)"/></svg>