<svg xmlns="http://www.w3.org/2000/svg" width="144.063" height="50.114" viewBox="0 0 144.063 50.114"><path d="M4.087,14.81A3.6,3.6,0,0,0,.48,18.39V39.352a3.606,3.606,0,0,0,7.212,0V18.39a3.594,3.594,0,0,0-3.605-3.58" transform="translate(-0.104 -3.396)" fill="#1e64ff" fill-rule="evenodd"/><g transform="translate(0 0)"><path d="M3.983.07A3.961,3.961,0,1,0,7.967,4.032,3.972,3.972,0,0,0,3.983.07" transform="translate(0 -0.07)" fill="#1e64ff" fill-rule="evenodd"/></g><path d="M80.621,39.219a3.6,3.6,0,0,0-3.61-3.586h-9.96L79.78,20.561a3.588,3.588,0,0,0-2.888-5.884c-.04,0-15.928,0-15.928,0a3.585,3.585,0,1,0,0,7.17h8.32L56.558,36.916A3.585,3.585,0,0,0,59.32,42.8H77.011a3.594,3.594,0,0,0,3.61-3.583M112.4,21.37a7.348,7.348,0,0,1,5.224,2.152,3.631,3.631,0,0,0,5.1,0,3.58,3.58,0,0,0,0-5.07,14.654,14.654,0,0,0-20.643,0,14.436,14.436,0,0,0,0,20.513,14.647,14.647,0,0,0,20.644,0,3.574,3.574,0,0,0,0-5.064,3.619,3.619,0,0,0-5.1,0,7.407,7.407,0,0,1-10.442,0A7.341,7.341,0,0,1,112.4,21.37m29.155,14.683a7.342,7.342,0,1,1,7.387-7.344,7.37,7.37,0,0,1-7.387,7.344m0-21.854a14.51,14.51,0,1,0,14.6,14.51,14.569,14.569,0,0,0-14.6-14.51m-52.08.478a3.592,3.592,0,0,0-3.6,3.58V39.219a3.6,3.6,0,0,0,7.208,0V18.257a3.592,3.592,0,0,0-3.606-3.58" transform="translate(-12.092 -3.263)" fill="#1e64ff" fill-rule="evenodd"/><g transform="translate(73.4 0)"><path d="M4.2.07A3.961,3.961,0,1,0,8.188,4.032,3.974,3.974,0,0,0,4.2.07" transform="translate(-0.215 -0.07)" fill="#1e64ff" fill-rule="evenodd"/></g><path d="M42.289,15.213a3.616,3.616,0,0,0-4.862,1.525L29.692,31.559,21.956,16.738a3.616,3.616,0,0,0-4.862-1.525,3.58,3.58,0,0,0-1.537,4.837l10.07,19.3-4.649,8.926A3.571,3.571,0,0,0,22.512,53.1a3.519,3.519,0,0,0,1.818.4,3.606,3.606,0,0,0,3.05-1.924L43.822,20.05a3.574,3.574,0,0,0-1.533-4.837" transform="translate(-3.288 -3.396)" fill="#1e64ff" fill-rule="evenodd"/></svg>