<svg xmlns="http://www.w3.org/2000/svg" width="80.425" height="152.719" viewBox="0 0 80.425 152.719"><g transform="translate(-5.001 -5)"><path d="M30.329,61.322s-4.083,2.485,2.842,3.2c8.363,1.065,12.785.887,22.017-.887a33.146,33.146,0,0,0,5.86,2.842C40.27,75.35,13.992,65.94,30.329,61.322ZM27.665,49.781s-4.44,3.374,2.485,4.083a84.055,84.055,0,0,0,28.411-1.418,10.841,10.841,0,0,0,4.262,2.663c-25.035,7.458-53.092.709-35.158-5.327ZM76.673,70.023s3.018,2.485-3.374,4.44c-11.9,3.551-49.9,4.618-60.549,0-3.727-1.6,3.374-3.909,5.682-4.262a17.7,17.7,0,0,1,3.551-.533c-4.083-2.842-27.168,5.86-11.719,8.363,42.438,6.927,77.419-3.018,66.409-7.99ZM32.281,37.705s-19.355,4.618-6.927,6.214c5.327.709,15.8.533,25.569-.178,7.99-.709,16-2.131,16-2.131A42.861,42.861,0,0,0,62.129,44.1C42.4,49.25,4.581,46.941,15.413,41.614A36.854,36.854,0,0,1,32.281,37.705ZM66.9,57.061c19.89-10.3,10.654-20.243,4.262-19a11.088,11.088,0,0,0-2.309.709,3.037,3.037,0,0,1,1.776-1.418C83.24,32.913,93.185,50.67,66.55,57.6a2.182,2.182,0,0,0,.355-.533ZM34.234,85.113C53.411,86.357,82.71,84.4,83.42,75.347c0,0-1.418,3.551-15.8,6.214-16.335,3.018-36.58,2.663-48.475.709,0,0,2.485,2.131,15.094,2.842Z" transform="translate(0 25.892)" fill="#4e7896"/><path d="M43.428,5S54.436,16.187,32.952,33.053c-17.224,13.672-3.909,21.486,0,30.362-10.121-9.054-17.4-17.046-12.43-24.5C27.819,27.908,47.882,22.581,43.428,5ZM37.746,55.961c5.149,5.86-1.418,11.187-1.418,11.187s13.139-6.745,7.1-15.094c-5.505-7.99-9.767-11.9,13.317-25.217,0,0-36.4,9.054-19,29.12Z" transform="translate(11.387)" fill="#f58219"/><path d="M39.176,99.075v-17.4c0-4.44-2.485-7.458-8.7-7.458a24.406,24.406,0,0,0-9.236,1.953l.887,3.2a21.045,21.045,0,0,1,7.1-1.418c3.374,0,4.972,1.418,4.972,4.262V84.52H32.425c-8.523,0-12.43,3.2-12.43,8.363,0,4.262,2.663,6.745,7.458,6.745,3.018,0,5.327-1.418,7.458-3.2l.355,2.663h3.909ZM34.2,93.394A8.557,8.557,0,0,1,28.7,95.879c-2.309,0-3.727-1.418-3.727-3.909s1.418-4.262,7.1-4.262H34.2V93.39Zm21.662,5.681H49.651L42.194,74.75h5.327l4.618,14.916L53.2,94.1A85.714,85.714,0,0,0,58,74.75h5.327a101.178,101.178,0,0,1-7.458,24.326Zm28.766,0v-17.4c0-4.44-2.485-7.458-8.7-7.458a24.406,24.406,0,0,0-9.236,1.953l.709,3.2a23.106,23.106,0,0,1,7.28-1.418c3.374,0,4.972,1.418,4.972,4.262V84.52H77.879c-8.523,0-12.43,3.2-12.43,8.363,0,4.262,2.485,6.745,7.28,6.745,3.2,0,5.505-1.418,7.636-3.2l.355,2.663h3.909Zm-4.972-5.681a8.557,8.557,0,0,1-5.505,2.485c-2.309,0-3.727-1.418-3.727-3.909s1.418-4.262,7.1-4.262h2.131V93.39ZM14.5,103.157a11.815,11.815,0,0,1-6.214,4.618l-2.309-2.842a11.829,11.829,0,0,0,4.262-4.083c.709-1.244.887-3.018.887-7.1V66.05h5.327V93.394c0,5.505-.533,7.636-1.953,9.767Z" transform="translate(0.794 49.944)" fill="#4e7896"/></g></svg>