<svg xmlns="http://www.w3.org/2000/svg" width="133" height="133" viewBox="0 0 133 133"><g transform="translate(-0.326 -0.133)"><rect width="133" height="133" transform="translate(0.326 0.133)" fill="#f7df1e"/><path d="M220.378,329.583c2.688,4.388,6.184,7.614,12.369,7.614,5.2,0,8.514-2.6,8.514-6.184,0-4.3-3.41-5.822-9.128-8.323L229,321.344c-9.048-3.855-15.058-8.684-15.058-18.892,0-9.4,7.165-16.562,18.362-16.562,7.972,0,13.7,2.774,17.833,10.039l-9.764,6.269c-2.15-3.855-4.469-5.373-8.069-5.373-3.672,0-6,2.33-6,5.373,0,3.761,2.33,5.284,7.709,7.614l3.135,1.343c10.653,4.568,16.668,9.226,16.668,19.7,0,11.289-8.868,17.473-20.777,17.473-11.644,0-19.167-5.549-22.848-12.822Zm-44.292,1.086c1.97,3.495,3.761,6.449,8.069,6.449,4.119,0,6.718-1.612,6.718-7.879V286.606h12.538v42.8c0,12.983-7.612,18.892-18.722,18.892-10.039,0-15.853-5.2-18.809-11.453Z" transform="translate(-130.748 -225.311)"/></g></svg>