<svg xmlns="http://www.w3.org/2000/svg" xmlns:xlink="http://www.w3.org/1999/xlink" width="110.46" height="36.318" viewBox="0 0 110.46 36.318"><defs><linearGradient id="a" x1="0.98" y1="0.002" x2="0.601" y2="0.419" gradientUnits="objectBoundingBox"><stop offset="0.176" stop-color="#0052cc"/><stop offset="1" stop-color="#2684ff"/></linearGradient><linearGradient id="b" x1="1.006" y1="0.003" x2="0.566" y2="0.46" xlink:href="#a"/></defs><g transform="translate(0 -3)"><g transform="translate(47.548 5.984)"><path d="M41.688,6.134H45.8V26.468c0,5.362-2.448,9.1-8.124,9.1a15,15,0,0,1-4.948-.759V30.919a11.628,11.628,0,0,0,4.27.759c3.489,0,4.687-2.023,4.687-4.957Z" transform="translate(-32.73 -4.566)" fill="#253858"/><path d="M47.787,5.054a2.535,2.535,0,0,1,2.76,2.681,2.561,2.561,0,0,1-2.76,2.681,2.535,2.535,0,0,1-2.76-2.681A2.561,2.561,0,0,1,47.787,5.054ZM45.756,13.6h3.958V35.859H45.756Z" transform="translate(-27.163 -5.054)" fill="#253858"/><path d="M56.193,33.313H52.34V11.056h3.854v3.895c1.354-2.63,3.645-4.5,8.124-4.249v3.743c-5.052-.506-8.124.961-8.124,5.716Z" transform="translate(-23.852 -2.508)" fill="#253858"/><path d="M78.586,29.341c-1.458,2.934-4.218,4.451-7.76,4.451-6.093,0-9.166-5.008-9.166-11.583,0-6.272,3.229-11.583,9.635-11.583a7.537,7.537,0,0,1,7.291,4.35V11.081h3.958V33.337H78.586Zm-6.718.91c3.541,0,6.666-2.175,6.666-7.132v-1.77c0-4.957-2.864-7.132-6.25-7.132-4.427,0-6.718,2.833-6.718,7.992C65.618,27.571,67.806,30.251,71.868,30.251Z" transform="translate(-19.632 -2.532)" fill="#253858"/></g><g transform="translate(0 3)"><path d="M30.28,3H12.26a8.02,8.02,0,0,0,8.124,7.891h3.333v3.086a8.021,8.021,0,0,0,8.124,7.891V4.517A1.513,1.513,0,0,0,30.28,3Z" transform="translate(5.551 -3)" fill="#2684ff"/><path d="M24.15,8.989H6.13a8.02,8.02,0,0,0,8.124,7.891h3.333v3.136a8.021,8.021,0,0,0,8.124,7.891v-17.4A1.545,1.545,0,0,0,24.15,8.989Z" transform="translate(2.775 -0.289)" fill="url(#a)"/><path d="M18.019,15.012H0A8.02,8.02,0,0,0,8.124,22.9h3.333v3.086a8.02,8.02,0,0,0,8.124,7.891V16.53A1.545,1.545,0,0,0,18.019,15.012Z" transform="translate(0 2.438)" fill="url(#b)"/></g></g></svg>