<svg xmlns="http://www.w3.org/2000/svg" width="78.061" height="78.295" viewBox="0 0 78.061 78.295"><g transform="translate(0 0)"><g transform="translate(0 0)"><g transform="translate(0 0)"><g transform="translate(0 0)"><path d="M54.523,21.361,54.444.3H42.7l.078,21.061,5.872,8.064Z" transform="translate(-9.581 -0.3)" fill="#fff" fill-rule="evenodd"/><path d="M42.8,71.064V92.2H54.544V71.064L48.672,63Z" transform="translate(-9.603 -13.909)" fill="#fff" fill-rule="evenodd"/><path d="M57.8,70.544,70.171,87.612l9.474-6.89L67.274,63.654,57.8,60.6Z" transform="translate(-12.858 -13.388)" fill="#00f2e6" fill-rule="evenodd"/><path d="M36.723,22.468,24.274,5.4,14.8,12.29,27.171,29.358l9.552,3.054Z" transform="translate(-3.525 -1.407)" fill="#00f2e6" fill-rule="evenodd"/><path d="M24.045,34.2,4,27.7.4,38.818l20.044,6.577,9.474-3.132Z" transform="translate(-0.4 -6.247)" fill="#00b9f1" fill-rule="evenodd"/><path d="M62.4,53.354l5.872,8.064,20.044,6.5,3.6-11.118L71.874,50.3Z" transform="translate(-13.857 -11.152)" fill="#00b9f1" fill-rule="evenodd"/><path d="M71.874,45.395l20.044-6.577L88.316,27.7,68.272,34.2,62.4,42.263Z" transform="translate(-13.857 -6.247)" fill="#d63aff" fill-rule="evenodd"/><path d="M20.444,50.3.4,56.8,4,67.916l20.044-6.5,5.872-8.064Z" transform="translate(-0.4 -11.152)" fill="#d63aff" fill-rule="evenodd"/><path d="M27.171,63.654,14.8,80.722l9.474,6.89L36.723,70.544V60.6Z" transform="translate(-3.525 -13.388)" fill="#fb015b" fill-rule="evenodd"/><path d="M67.274,29.358,79.644,12.29,70.171,5.4,57.8,22.468v9.944Z" transform="translate(-12.858 -1.407)" fill="#fb015b" fill-rule="evenodd"/></g></g></g></g></svg>