<svg xmlns="http://www.w3.org/2000/svg" xmlns:xlink="http://www.w3.org/1999/xlink" width="191.453" height="41.545" viewBox="0 0 191.453 41.545"><defs><linearGradient id="a" x1="1" y1="1.158" x2="0" y2="2.158" gradientUnits="objectBoundingBox"><stop offset="0.003" stop-color="#e44857"/><stop offset="0.469" stop-color="#c711e1"/><stop offset="1" stop-color="#7f52ff"/></linearGradient></defs><g transform="translate(-0.492)"><g transform="translate(0.492)"><g transform="translate(55.609)"><path d="M739.384,18.8h-7.891L714.486,37.043V18.926H708.2v39.3h6.286V39.246L731.62,58.229h8.008L721.511,37.9Z" transform="translate(-708.2 -17.321)"/><path d="M1114.311,147.675a15.507,15.507,0,0,0-7.521-1.975,14.372,14.372,0,0,0-7.639,1.975,14.641,14.641,0,0,0-5.3,5.3,16.4,16.4,0,0,0-1.849,7.765,16.043,16.043,0,0,0,1.849,7.765,12.943,12.943,0,0,0,5.3,5.3,15.619,15.619,0,0,0,7.639,1.975,14.372,14.372,0,0,0,7.639-1.975,13.425,13.425,0,0,0,5.177-5.3,16.726,16.726,0,0,0-.126-15.529A13.2,13.2,0,0,0,1114.311,147.675Zm-.488,18.1a7.82,7.82,0,0,1-2.958,3.328,7.368,7.368,0,0,1-4.311,1.235,8.033,8.033,0,0,1-4.437-1.235,9.643,9.643,0,0,1-2.958-3.328,10.712,10.712,0,0,1-.984-4.933,10.419,10.419,0,0,1,1.109-4.933,7.819,7.819,0,0,1,2.958-3.328,7.5,7.5,0,0,1,4.437-1.235,7.335,7.335,0,0,1,4.311,1.235,9.645,9.645,0,0,1,2.958,3.328,12.152,12.152,0,0,1-.126,9.865Z" transform="translate(-1061.807 -134.238)"/><path d="M1495.136,62.7h-6.042v4.933a2.01,2.01,0,0,1-.614,1.723,2.43,2.43,0,0,1-1.723.614H1483.8v5.176h5.176V90.675a9.666,9.666,0,0,0,.983,4.311,6.286,6.286,0,0,0,2.832,2.832,7.992,7.992,0,0,0,4.311.983h4.681v-5.42h-3.454a2.668,2.668,0,0,1-2.219-.983,3.948,3.948,0,0,1-.865-2.462V75.145h6.655V69.969h-6.655V62.7Z" transform="translate(-1422.784 -57.767)"/><rect width="6.16" height="40.908" transform="translate(83.814)"/><rect width="6.286" height="6.412" transform="translate(96.999 0.126)"/><rect width="6.16" height="28.824" transform="translate(96.999 12.202)"/><path d="M2133.3,151.12a8.812,8.812,0,0,0-3.7-3.941,10.4,10.4,0,0,0-5.546-1.479,11.725,11.725,0,0,0-5.916,1.6,11.159,11.159,0,0,0-3.328,3.454v-4.437H2108.9v28.824h6.159V159a9.056,9.056,0,0,1,.865-4.193,7.879,7.879,0,0,1,2.462-2.832,7.686,7.686,0,0,1,3.823-.983,5.793,5.793,0,0,1,3.328.865,5.457,5.457,0,0,1,2.093,2.344,8,8,0,0,1,.74,3.572V175.02h6.16V157.028A11.392,11.392,0,0,0,2133.3,151.12Z" transform="translate(-1998.709 -134.238)"/></g><g transform="translate(0 1.796)"><path d="M39.749,39.749H0V0H39.749L19.875,19.875Z" fill="url(#a)"/></g></g></g></svg>