<svg xmlns="http://www.w3.org/2000/svg" width="225.642" height="65.271" viewBox="0 0 225.642 65.271"><path d="M86,15.035V44.464H96.724V49.54H80.29V15.035Zm30.88,14.64v-3.1h5.411V49.54h-5.412V46.434a7.436,7.436,0,0,1-3.1,2.711,9.11,9.11,0,0,1-4.045.985,11.838,11.838,0,0,1-4.816-.961,11.263,11.263,0,0,1-3.749-2.637,12.314,12.314,0,0,1-3.3-8.479,12.4,12.4,0,0,1,.87-4.609,12.194,12.194,0,0,1,2.432-3.868,11.273,11.273,0,0,1,3.749-2.638,11.817,11.817,0,0,1,4.816-.962,9.106,9.106,0,0,1,4.046.988,7.458,7.458,0,0,1,3.1,2.71Zm-.5,11.19a8.182,8.182,0,0,0,0-5.62,7.115,7.115,0,0,0-1.389-2.316,6.727,6.727,0,0,0-2.16-1.577,6.563,6.563,0,0,0-2.806-.591,6.39,6.39,0,0,0-2.78.591,6.692,6.692,0,0,0-3.5,3.894,8.6,8.6,0,0,0,0,5.619,6.689,6.689,0,0,0,3.5,3.895,6.372,6.372,0,0,0,2.78.591,6.558,6.558,0,0,0,2.806-.59,6.713,6.713,0,0,0,2.16-1.577,7.109,7.109,0,0,0,1.389-2.317Zm10.178,8.675V26.569h14.7v5.286h-9.285V49.539Zm34.307-19.865v-3.1h5.411V49.54h-5.412V46.434a7.444,7.444,0,0,1-3.1,2.711,9.11,9.11,0,0,1-4.045.985,11.833,11.833,0,0,1-4.816-.961,11.263,11.263,0,0,1-3.749-2.637,12.314,12.314,0,0,1-3.3-8.479,12.376,12.376,0,0,1,.87-4.609,12.194,12.194,0,0,1,2.432-3.868,11.273,11.273,0,0,1,3.749-2.638,11.813,11.813,0,0,1,4.816-.962,9.106,9.106,0,0,1,4.046.988,7.466,7.466,0,0,1,3.1,2.71Zm-.5,11.19a8.2,8.2,0,0,0,0-5.62,7.115,7.115,0,0,0-1.39-2.316,6.726,6.726,0,0,0-2.16-1.577,6.553,6.553,0,0,0-2.8-.591,6.39,6.39,0,0,0-2.78.591,6.7,6.7,0,0,0-3.5,3.894,8.6,8.6,0,0,0,0,5.619,6.7,6.7,0,0,0,3.5,3.895,6.372,6.372,0,0,0,2.78.591,6.548,6.548,0,0,0,2.8-.59,6.713,6.713,0,0,0,2.16-1.577,7.109,7.109,0,0,0,1.39-2.317Zm27.6-14.295h5.481l-8.883,22.969h-6.8l-8.883-22.969h5.481l6.8,17.589Zm17.283-.59c7.369,0,12.394,6.483,11.45,14.072H198.753a6.481,6.481,0,0,0,6.8,5.812c4.117,0,6.874-3.595,6.877-3.6l3.655,2.809c-3.268,3.465-5.944,5.057-10.136,5.057-7.49,0-12.565-4.7-12.565-12.076A11.931,11.931,0,0,1,205.255,25.979Zm-6.488,10.079h12.969c-.04-.442-.743-5.812-6.523-5.812S198.809,35.616,198.767,36.058Zm21.463,13.48v-34.5h5.412v34.5ZM63.822,14.765a1.026,1.026,0,0,1,.036.267v14.01a1.021,1.021,0,0,1-.517.886L51.5,36.7V50.117a1.021,1.021,0,0,1-.517.885L26.263,65.134a1.04,1.04,0,0,1-.18.074c-.024.008-.046.022-.069.028a1.042,1.042,0,0,1-.528,0c-.028-.008-.054-.023-.081-.033a.921.921,0,0,1-.169-.069L.516,51A1.021,1.021,0,0,1,0,50.117V8.087a1.026,1.026,0,0,1,.036-.267.862.862,0,0,1,.036-.086,1.156,1.156,0,0,1,.067-.159.979.979,0,0,1,.069-.09A1.07,1.07,0,0,1,.3,7.365a1,1,0,0,1,.1-.077A1.088,1.088,0,0,1,.514,7.2h0L12.876.136a1.039,1.039,0,0,1,1.026,0L26.263,7.2h0c.041.026.074.059.113.087a.985.985,0,0,1,.1.077,1.184,1.184,0,0,1,.092.119.96.96,0,0,1,.071.091,1.156,1.156,0,0,1,.067.159c.01.028.027.055.036.086a1.026,1.026,0,0,1,.035.267V34.339l10.3-5.888V15.032a1.026,1.026,0,0,1,.035-.267c.009-.031.026-.056.037-.086a1.011,1.011,0,0,1,.065-.159.805.805,0,0,1,.071-.09.952.952,0,0,1,.092-.119.986.986,0,0,1,.1-.077.927.927,0,0,1,.114-.087h0L49.954,7.081a1.036,1.036,0,0,1,1.027,0l12.359,7.065h0a1.357,1.357,0,0,1,.115.087c.032.026.071.049.1.077a1.012,1.012,0,0,1,.091.119.961.961,0,0,1,.071.091,1.018,1.018,0,0,1,.067.159A.719.719,0,0,1,63.822,14.765ZM61.8,28.451V16.8l-4.326,2.473L51.5,22.688v11.65l10.3-5.888ZM49.439,49.526V37.868L43.56,41.2,26.778,50.71V62.477l22.66-12.953ZM2.06,9.856v39.67L24.719,62.479V50.714L12.881,44.063l0,0h-.005a1.007,1.007,0,0,1-.11-.085,1.169,1.169,0,0,1-.1-.074l0,0a.977.977,0,0,1-.085-.108.93.93,0,0,1-.077-.1v0a.818.818,0,0,1-.054-.128.694.694,0,0,1-.049-.114h0a.984.984,0,0,1-.022-.15,1.135,1.135,0,0,1-.015-.115V15.743L6.387,12.329ZM13.389,2.2,3.095,8.089l10.295,5.884,10.3-5.885ZM18.745,38.93l5.974-3.414V9.856l-4.325,2.473-5.975,3.415V41.4l4.326-2.473ZM50.469,9.148l-10.3,5.884,10.3,5.885,10.295-5.885L50.469,9.148Zm-1.03,13.541-5.975-3.415L39.139,16.8v11.65l5.974,3.415,4.326,2.473V22.687ZM25.747,48.941l15.1-8.559L48.4,36.1,38.109,30.222,26.263,36.993l-10.8,6.171Z" fill="#ff2d20" fill-rule="evenodd"/></svg>