<svg xmlns="http://www.w3.org/2000/svg" width="113.521" height="50" viewBox="0 0 113.521 50"><path d="M361.99,72.3h6.082v5.657a17.21,17.21,0,0,1-5.383.851c-6.727,0-8.964-3.415-8.964-10.349,0-6.618,2.13-10.512,8.85-10.512,3.745,0,5.87,1.175,7.632,3.416l4.647-4.269c-2.838-4.046-7.79-5.272-12.44-5.272-10.455,0-15.952,5.7-15.952,16.583,0,10.83,4.967,16.7,15.9,16.7,5.018,0,9.923-1.277,12.594-3.149V66.275H361.991Zm-31.9,6.029h15.477v6.3H322.621V52.3h7.469Z" transform="translate(-261.43 -43.598)" fill="#6b6c6b"/><path d="M52.674,52.466a25,25,0,1,0-35.355,0,25,25,0,0,0,35.355,0Z" transform="translate(-9.996 -9.788)" fill="#a50034"/><path d="M45.778,48.3a2.893,2.893,0,1,0-1.107-.217,2.885,2.885,0,0,0,1.107.217Zm26.443,5.668H59.508V52.084H74.085c.02.365.03.729.03,1.1A20.641,20.641,0,1,1,53.473,32.651q.451,0,.9.018v1.869q-.447-.02-.9-.02A18.664,18.664,0,1,0,72.22,54.02ZM59.479,61.814H54.37v-19.2H52.481V63.71h1.893V63.7h5.109Z" transform="translate(-28.363 -28.176)" fill="#fff"/></svg>