<svg xmlns="http://www.w3.org/2000/svg" width="79.679" height="79.866" viewBox="0 0 79.679 79.866"><g transform="translate(-0.806 -0.591)"><path d="M60.324.591H20.966A20.184,20.184,0,0,0,.806,20.8v39.45a20.184,20.184,0,0,0,20.16,20.208H60.324a20.184,20.184,0,0,0,20.16-20.208V20.8A20.184,20.184,0,0,0,60.324.591Z" transform="translate(0)" fill="#00ddb3"/><path d="M61.05,18.109c-13.716,0-18.8,9.816-22.885,17.7L35.5,40.856C31.168,49.219,27.935,54.3,19.6,54.3a3.948,3.948,0,0,0,0,7.9c13.721,0,18.8-9.816,22.89-17.7l2.664-5.045C49.49,31.09,52.723,26.006,61.05,26.006a3.948,3.948,0,0,0,0-7.9Z" transform="translate(0.313 0.369)" fill="#fff"/></g></svg>