<svg xmlns="http://www.w3.org/2000/svg" xmlns:xlink="http://www.w3.org/1999/xlink" width="58.423" height="58.424" viewBox="0 0 58.423 58.424"><defs><linearGradient id="a" x1="0.5" y1="1" x2="0.5" gradientUnits="objectBoundingBox"><stop offset="0" stop-color="#574c4a"/><stop offset="1" stop-color="#80716d"/></linearGradient><linearGradient id="b" x1="0.888" y1="0.983" x2="0.301" y2="-0.087" gradientUnits="objectBoundingBox"><stop offset="0" stop-color="#268d83"/><stop offset="1" stop-color="#2ea19e"/></linearGradient><radialGradient id="c" cx="0.414" cy="0.427" r="0.5" gradientUnits="objectBoundingBox"><stop offset="0" stop-color="#db7c7c"/><stop offset="1" stop-color="#c83737"/></radialGradient><radialGradient id="d" cx="0.443" cy="0.427" xlink:href="#c"/></defs><path d="M0,39.476V18.948C0,2.368,2.366,0,18.929,0H39.5C56.058,0,58.423,2.368,58.423,18.948V39.476c0,16.58-2.366,18.948-18.929,18.948H18.929C2.366,58.423,0,56.055,0,39.476Z" transform="translate(0 0)" fill="url(#a)"/><path d="M3.012.655A163.216,163.216,0,0,0,1.642,35.9h8.977c-.854-4.544-3.918-25.3-1.369-25.37,1.366.217,7.607,17.611,7.607,17.611a25.553,25.553,0,0,1,2.757-.171,25.56,25.56,0,0,1,2.758.171s6.241-17.394,7.607-17.611c2.549.068-.515,20.827-1.369,25.37h8.976A163.2,163.2,0,0,0,36.217.655H27.906c-1.582.019-7.6,10.574-8.292,10.574S12.9.674,11.323.655H3.012Z" transform="translate(9.597 10.357)" fill="url(#b)"/><path d="M59.036,137.178a2.125,2.125,0,1,1-2.125-2.125A2.125,2.125,0,0,1,59.036,137.178Z" transform="translate(-31.594 -93.05)" fill="url(#c)"/><path d="M92.818,137.178a2.124,2.124,0,1,1-2.124-2.124,2.124,2.124,0,0,1,2.124,2.124Z" transform="translate(-57.587 -93.051)" fill="url(#d)"/><path d="M82.895,48.355A159.46,159.46,0,0,1,84.47,71.807c-.024,6.412-.392,10.578-.392,10.578H76.523l-.812.609h8.976a163.2,163.2,0,0,0-1.369-35.241l-.423.6Zm-23.787-.221c2.358,2.623,6.437,9.585,7,9.585C64.611,55.806,60.939,49.706,59.108,48.133Zm-3.366,8.882c-2.549.068.515,20.827,1.369,25.37H49.275l-.532.609H57.72c-.85-4.521-3.887-25.094-1.407-25.37-.231-.347-.43-.586-.57-.609Zm20.73,0c-1.366.217-7.607,17.611-7.607,17.611a25.551,25.551,0,0,0-2.757-.171c-.818,0-1.523.05-2,.095l-.15.685a22.308,22.308,0,0,1,5.515,0s6.194-17.28,7.588-17.611c-.15-.38-.336-.6-.59-.609Z" transform="translate(-37.503 -36.741)" opacity="0.1"/><path d="M48.8,47.751a163.216,163.216,0,0,0-1.369,35.241l.529-.594A163.251,163.251,0,0,1,49.41,48.36h8.311a1.3,1.3,0,0,1,.685.38c-.544-.606-1-.986-1.293-.989H48.8Zm24.895,0c-1.582.019-7.6,10.574-8.292,10.574.282.361.511.609.609.609.691,0,6.71-10.555,8.292-10.574h7.334l.368-.609H73.7ZM55.61,58.23c2.019,3.032,7.037,17,7.037,17l.147-.681c-1.239-3.4-5.959-16.133-7.145-16.321-.013,0-.025,0-.038,0Zm20.768,0C77.732,61.684,75.169,78.9,74.4,82.992l.814-.636C76.254,76.258,78.757,58.294,76.378,58.23Z" transform="translate(-36.193 -36.74)" fill="#fff" opacity="0.3"/></svg>