<svg xmlns="http://www.w3.org/2000/svg" xmlns:xlink="http://www.w3.org/1999/xlink" width="74.822" height="69.602" viewBox="0 0 74.822 69.602"><defs><linearGradient id="a" x1="0.174" y1="1.067" x2="0.826" y2="-0.063" gradientUnits="objectBoundingBox"><stop offset="0" stop-color="#2368c4"/><stop offset="0.5" stop-color="#1a5dbe"/><stop offset="1" stop-color="#1146ac"/></linearGradient></defs><path d="M491.732,0H440.69a3.189,3.189,0,0,0-3.19,3.19h0V17.4l29.581,8.7,27.841-8.7V3.19A3.19,3.19,0,0,0,491.732,0Z" transform="translate(-420.1)" fill="#41a5ee"/><path d="M494.921,437.5H437.5v17.4l29.581,5.22,27.841-5.22Z" transform="translate(-420.1 -420.1)" fill="#2b7cd3"/><path d="M437.5,875v17.4l27.841,3.48,29.581-3.48V875Z" transform="translate(-420.1 -840.199)" fill="#185abd"/><path d="M440.69,1329.9h51.042a3.189,3.189,0,0,0,3.19-3.189h0V1312.5H437.5v14.211a3.189,3.189,0,0,0,3.19,3.189Z" transform="translate(-420.1 -1260.299)" fill="#103f91"/><path d="M458.671,350H437.5v43.5h21.171a3.2,3.2,0,0,0,3.189-3.19V353.189A3.2,3.2,0,0,0,458.671,350Z" transform="translate(-420.1 -336.08)" opacity="0.1"/><path d="M456.931,393.75H437.5v43.5h19.431a3.2,3.2,0,0,0,3.19-3.19V396.94A3.2,3.2,0,0,0,456.931,393.75Z" transform="translate(-420.1 -378.09)" opacity="0.2"/><path d="M456.931,393.75H437.5v40.021h19.431a3.2,3.2,0,0,0,3.19-3.19V396.94A3.2,3.2,0,0,0,456.931,393.75Z" transform="translate(-420.1 -378.09)" opacity="0.2"/><path d="M455.191,393.75H437.5v40.021h17.691a3.2,3.2,0,0,0,3.19-3.19V396.94A3.2,3.2,0,0,0,455.191,393.75Z" transform="translate(-420.1 -378.09)" opacity="0.2"/><path d="M3.19,393.75h31.9a3.19,3.19,0,0,1,3.19,3.19v31.9a3.189,3.189,0,0,1-3.19,3.189H3.19A3.189,3.189,0,0,1,0,428.841v-31.9A3.19,3.19,0,0,1,3.19,393.75Z" transform="translate(0 -378.09)" fill="url(#a)"/><path d="M154.368,629.858c.063.492.1.921.124,1.288h.073q.042-.522.174-1.258t.238-1.244l3.355-14.474h4.338l3.48,14.256a21.107,21.107,0,0,1,.433,2.69h.057a20.62,20.62,0,0,1,.362-2.61l2.775-14.343h3.948L168.85,634.9h-4.613l-3.306-13.736c-.1-.395-.205-.912-.325-1.547s-.195-1.1-.224-1.392h-.057q-.057.506-.224,1.5t-.268,1.476L156.724,634.9h-4.691l-4.9-20.731h4.019l3.022,14.5C154.241,628.971,154.305,629.367,154.368,629.858Z" transform="translate(-141.279 -589.736)" fill="#fff"/></svg>