<svg xmlns="http://www.w3.org/2000/svg" width="132.637" height="132.637" viewBox="0 0 132.637 132.637"><path d="M28.738,0H103.9a28.894,28.894,0,0,1,28.738,28.738V103.9A28.894,28.894,0,0,1,103.9,132.637H28.738A28.894,28.894,0,0,1,0,103.9V28.738A28.894,28.894,0,0,1,28.738,0Z" fill="#ffd02f"/><path d="M79.674,6H65.029L77.187,27.277,50.66,6H36.014L49.278,31.975,21.645,6H7L21.645,39.159,7,105.478H21.645L49.554,34.462l-13.54,71.016H50.66l26.8-75.713L65.3,105.478H79.95l26.527-82.9Z" transform="translate(12.343 10.58)" fill="#050038" fill-rule="evenodd"/></svg>