<svg xmlns="http://www.w3.org/2000/svg" width="227.917" height="57.496" viewBox="0 0 227.917 57.496"><path d="M17.026,5.924C14.8,3.277,12.874.589,12.482.031a.1.1,0,0,0-.145,0c-.392.558-2.313,3.246-4.544,5.893-19.148,24.421,3.016,40.9,3.016,40.9l.186.124c.165,2.543.578,6.2.578,6.2h1.652s.413-3.639.578-6.2l.186-.145C14.01,46.826,36.174,30.345,17.026,5.924ZM12.4,46.453a9.158,9.158,0,0,1-1.26-1.282V45.13l1.2-26.592a.062.062,0,1,1,.124,0l1.2,26.592v.042A9.157,9.157,0,0,1,12.4,46.453Z" transform="translate(0 0)" fill="#001e2b"/><path d="M196.649,111.62l-9.236-22.558L187.393,89h-7.186v1.516h1.16a1.31,1.31,0,0,1,1.3,1.329l-.207,22.7a1.324,1.324,0,0,1-1.284,1.309l-1.18.021v1.5h7v-1.5l-.725-.021a1.325,1.325,0,0,1-1.284-1.309V93.154l10.064,24.219a.91.91,0,0,0,1.7,0l9.836-23.679.145,20.854a1.332,1.332,0,0,1-1.3,1.329h-.746v1.5h8.2v-1.5h-1.118a1.342,1.342,0,0,1-1.3-1.309l-.062-22.7a1.329,1.329,0,0,1,1.284-1.329l1.2-.021V89h-7Z" transform="translate(-142.772 -70.593)" fill="#001e2b"/><path d="M495.828,144.83a1.256,1.256,0,0,1-.353-.915V132.762a6.548,6.548,0,0,0-1.869-4.973A6.985,6.985,0,0,0,488.561,126a8.015,8.015,0,0,0-6.955,3.579.161.161,0,0,1-.145.062.1.1,0,0,1-.1-.1l-.768-2.976H479.3l-3.3,1.893v1.04h.851a1.39,1.39,0,0,1,.955.312,1.226,1.226,0,0,1,.353.957v13.129a1.211,1.211,0,0,1-1.266,1.269h-.831v1.519h7.6v-1.519h-.83a1.211,1.211,0,0,1-1.267-1.269v-8.7a8.439,8.439,0,0,1,.706-3.288,6.581,6.581,0,0,1,2.118-2.642,5.5,5.5,0,0,1,3.343-1.02,3.806,3.806,0,0,1,3.239,1.373,5.743,5.743,0,0,1,1.038,3.516v10.737a1.211,1.211,0,0,1-1.267,1.269h-.83v1.519h7.6v-1.519h-.83A1.045,1.045,0,0,1,495.828,144.83Z" transform="translate(-377.553 -99.94)" fill="#001e2b"/><path d="M842.865,90.7a14.691,14.691,0,0,0-6.981-1.7H826v1.512h.968a1.4,1.4,0,0,1,1.03.476,1.464,1.464,0,0,1,.474,1.036v22.287a1.464,1.464,0,0,1-.474,1.036,1.448,1.448,0,0,1-1.03.476H826v1.512h9.884a14.691,14.691,0,0,0,6.981-1.7,12.748,12.748,0,0,0,5.045-4.888,16.187,16.187,0,0,0,0-15.12A12.849,12.849,0,0,0,842.865,90.7Zm2.945,12.448a14.538,14.538,0,0,1-1.4,6.69,9.449,9.449,0,0,1-3.686,4.018,9.994,9.994,0,0,1-5.025,1.3h-2a1.4,1.4,0,0,1-1.029-.477,1.463,1.463,0,0,1-.474-1.036V92.625a1.419,1.419,0,0,1,.474-1.036,1.448,1.448,0,0,1,1.029-.476h2a9.994,9.994,0,0,1,5.025,1.3,9.448,9.448,0,0,1,3.686,4.018A14.75,14.75,0,0,1,845.81,103.147Z" transform="translate(-655.165 -70.593)" fill="#001e2b"/><path d="M974.676,104.659a9.184,9.184,0,0,0-4.753-2.424c2.865-1.429,4.337-3.438,4.337-6.027a6.434,6.434,0,0,0-1.121-3.749,7.453,7.453,0,0,0-3.154-2.548A11.529,11.529,0,0,0,965.272,89H954.083v1.512h.893a1.42,1.42,0,0,1,1.038.476,1.459,1.459,0,0,1,.477,1.036v22.287a1.645,1.645,0,0,1-1.515,1.512H954v1.512h12.145a13.764,13.764,0,0,0,5.127-.932,8.333,8.333,0,0,0,3.7-2.734,7.045,7.045,0,0,0,1.369-4.37A6.939,6.939,0,0,0,974.676,104.659ZM960.747,114.7a1.458,1.458,0,0,1-.478-1.036v-10h5.772a6.486,6.486,0,0,1,4.67,1.553,5.345,5.345,0,0,1,1.62,4.039,6.279,6.279,0,0,1-.705,2.858,5.447,5.447,0,0,1-2.138,2.2,6.639,6.639,0,0,1-3.446.849h-4.257A1.474,1.474,0,0,1,960.747,114.7Zm-.457-13.173V92.645a1.413,1.413,0,0,1,.477-1.036,1.465,1.465,0,0,1,1.038-.476h2.74a5.8,5.8,0,0,1,4.339,1.45,5.253,5.253,0,0,1,1.369,3.749,5.486,5.486,0,0,1-1.286,3.79,4.962,4.962,0,0,1-3.841,1.408Z" transform="translate(-756.692 -70.593)" fill="#001e2b"/><path d="M371.718,127.321A10.867,10.867,0,0,0,366.444,126a10.588,10.588,0,0,0-5.274,1.321,9.737,9.737,0,0,0-3.77,3.715,11.543,11.543,0,0,0,0,11.023,9.739,9.739,0,0,0,3.77,3.716,10.869,10.869,0,0,0,5.274,1.321,10.59,10.59,0,0,0,5.274-1.321,9.739,9.739,0,0,0,3.77-3.716,11.543,11.543,0,0,0,0-11.023A9.737,9.737,0,0,0,371.718,127.321Zm1.524,9.227a9.3,9.3,0,0,1-1.854,6.089,6.557,6.557,0,0,1-9.888,0,10.926,10.926,0,0,1,0-12.178,6.557,6.557,0,0,1,9.888,0A9.3,9.3,0,0,1,373.243,136.548Z" transform="translate(-282.371 -99.94)" fill="#001e2b"/><path d="M724.718,127.321A10.867,10.867,0,0,0,719.444,126a10.588,10.588,0,0,0-5.274,1.321,9.737,9.737,0,0,0-3.77,3.715,11.543,11.543,0,0,0,0,11.023,9.739,9.739,0,0,0,3.77,3.716,10.87,10.87,0,0,0,5.274,1.321,10.589,10.589,0,0,0,5.274-1.321,9.738,9.738,0,0,0,3.77-3.716,11.543,11.543,0,0,0,0-11.023A9.878,9.878,0,0,0,724.718,127.321Zm1.525,9.227a9.3,9.3,0,0,1-1.854,6.089,6.557,6.557,0,0,1-9.888,0,10.926,10.926,0,0,1,0-12.178,6.557,6.557,0,0,1,9.888,0A9.415,9.415,0,0,1,726.243,136.548Z" transform="translate(-562.363 -99.94)" fill="#001e2b"/><path d="M607.233,126a9.777,9.777,0,0,0-4.544,1.057,8.04,8.04,0,0,0-3.216,2.882,7.311,7.311,0,0,0-1.162,3.982,7.014,7.014,0,0,0,.892,3.525,7.981,7.981,0,0,0,2.365,2.571l-2.967,4.023a1.627,1.627,0,0,0-.145,1.7,1.609,1.609,0,0,0,1.452.892h.851a6.2,6.2,0,0,0-1.95,2.011,5.314,5.314,0,0,0-.809,2.779,5.128,5.128,0,0,0,2.344,4.355,10.9,10.9,0,0,0,6.411,1.659,15.478,15.478,0,0,0,5.332-.913,9.374,9.374,0,0,0,4-2.654,6.176,6.176,0,0,0,1.535-4.189,4.8,4.8,0,0,0-2.075-4.064,9.176,9.176,0,0,0-5.622-1.493h-8.3a.073.073,0,0,1-.041-.021s-.021-.041,0-.062l2.158-2.9a7.632,7.632,0,0,0,1.6.539,8.307,8.307,0,0,0,1.68.145,10.135,10.135,0,0,0,4.689-1.057,8.3,8.3,0,0,0,3.258-2.882,7.161,7.161,0,0,0,1.182-3.981,7.572,7.572,0,0,0-2.78-5.765.02.02,0,0,1,.021-.021l4.461.5V126.56h-7.137A11.57,11.57,0,0,0,607.233,126Zm2.489,12.981a5.361,5.361,0,0,1-2.489.643,5.183,5.183,0,0,1-3.652-1.472,6.529,6.529,0,0,1,0-8.461,5.183,5.183,0,0,1,3.652-1.472,5.137,5.137,0,0,1,4.44,2.551,6.166,6.166,0,0,1,.768,3.152,5.868,5.868,0,0,1-.768,3.152A4.916,4.916,0,0,1,609.722,138.981Zm-5.622,7.631h5.622a4.293,4.293,0,0,1,3.216.975,3.549,3.549,0,0,1,1,2.592,4.463,4.463,0,0,1-1.8,3.691,7.677,7.677,0,0,1-4.813,1.41,7.318,7.318,0,0,1-4.253-1.141,3.859,3.859,0,0,1-1.6-3.339,4.452,4.452,0,0,1,.747-2.509A4.747,4.747,0,0,1,604.1,146.612Z" transform="translate(-474.321 -99.94)" fill="#001e2b"/><path d="M1077.313,205.825a2.535,2.535,0,0,1-1.313-2.239,2.584,2.584,0,0,1,.349-1.3,2.368,2.368,0,0,1,.964-.936,2.907,2.907,0,0,1,2.751,0,2.534,2.534,0,0,1,1.313,2.239,2.583,2.583,0,0,1-.349,1.3,2.367,2.367,0,0,1-.964.937,2.817,2.817,0,0,1-1.375.346A2.661,2.661,0,0,1,1077.313,205.825Zm2.525-.285a2.139,2.139,0,0,0,.8-.794,2.485,2.485,0,0,0,0-2.321,1.893,1.893,0,0,0-.8-.794,2.462,2.462,0,0,0-2.3,0,2.138,2.138,0,0,0-.8.794,2.484,2.484,0,0,0,0,2.321,1.891,1.891,0,0,0,.8.794,2.408,2.408,0,0,0,1.15.285A2.349,2.349,0,0,0,1079.839,205.54Zm-2.259-.713v-.183l.041-.02h.124a.158.158,0,0,0,.1-.041.111.111,0,0,0,.041-.1v-1.893a.154.154,0,0,0-.041-.1.113.113,0,0,0-.1-.041h-.124l-.041-.02v-.183l.041-.02h1.067a1.11,1.11,0,0,1,.718.2.663.663,0,0,1,.267.57.625.625,0,0,1-.2.489.811.811,0,0,1-.513.244l.246.081.471.753a.156.156,0,0,0,.145.081h.122l.021.02v.183l-.021.02h-.635l-.041-.02-.658-1.1h-.163v.733a.154.154,0,0,0,.041.1.113.113,0,0,0,.1.041h.124l.041.02v.183l-.041.02h-1.088Zm1.047-1.344a.487.487,0,0,0,.391-.143.562.562,0,0,0,.143-.387.591.591,0,0,0-.122-.387.428.428,0,0,0-.349-.143h-.083a.153.153,0,0,0-.1.041.111.111,0,0,0-.041.1v.916Z" transform="translate(-853.46 -159.429)" fill="#001e2b"/></svg>