<svg xmlns="http://www.w3.org/2000/svg" width="194.14" height="100.26" viewBox="0 0 194.14 100.26"><g transform="translate(0 61.213)"><path d="M0,31.892H6.4V6.636l9.9,22.018c1.168,2.665,2.768,3.608,5.9,3.608s4.674-.943,5.843-3.608l9.9-22.018V31.892h6.4V6.677c0-2.46-.984-3.649-3.014-4.264C36.47.9,33.21,2.208,31.734,5.488l-9.717,21.73L12.607,5.488C11.193,2.208,7.872.9,3.014,2.413.984,3.028,0,4.217,0,6.677Z" transform="translate(0 -1.785)" fill="#00618a"/></g><g transform="translate(49.659 70.694)"><path d="M0,.068H6.4V13.982c-.06.756.243,2.53,3.746,2.585,1.788.028,13.8,0,13.908,0V0h6.409c.029,0-.006,22.594-.006,22.69.035,5.572-6.914,6.782-10.117,6.876H.141v-4.3c.035,0,20.18,0,20.231,0,4.116-.435,3.63-2.481,3.63-3.17V20.415H10.408C4.083,20.357.055,17.6.005,14.421,0,14.127.142.207,0,.068Z" transform="translate(-0.002)" fill="#00618a"/></g><g transform="translate(85.046 61.8)"><path d="M0,29.52H18.388a14.183,14.183,0,0,0,5.9-1.23c2.767-1.271,4.12-2.992,4.12-5.248V18.368c0-1.845-1.537-3.568-4.551-4.715a15.721,15.721,0,0,0-5.474-.943H10.639c-2.582,0-3.813-.779-4.12-2.5a1.824,1.824,0,0,1-.062-.574V6.724a1.7,1.7,0,0,1,.062-.533C6.826,4.879,7.5,4.509,9.778,4.3c.185,0,.43-.041.615-.041H28.659V0H10.7A17.255,17.255,0,0,0,5.535.532C1.722,1.722.061,3.608.061,6.888v3.731c0,2.87,3.26,5.33,8.733,5.9.616.041,1.23.082,1.845.082h6.642a3.4,3.4,0,0,1,.677.041c2.03.164,2.89.533,3.506,1.271a1.525,1.525,0,0,1,.492,1.148V22.8a2.135,2.135,0,0,1-.922,1.517,4.536,4.536,0,0,1-2.706.9c-.246,0-.43.041-.676.041H0Z" fill="#e48e00"/></g><g transform="translate(153.358 61.8)"><path d="M0,22.1c0,4.387,3.259,6.847,9.84,7.339.615.041,1.23.082,1.845.082H28.352V25.256H11.562c-3.751,0-5.166-.943-5.166-3.2V0H0Z" fill="#e48e00"/></g><g transform="translate(117.541 61.854)"><path d="M0,22.268V7.067C0,3.2,2.712.863,8.073.123A12.267,12.267,0,0,1,9.8,0h12.14a13.147,13.147,0,0,1,1.788.123C29.088.863,31.8,3.2,31.8,7.067v15.2c0,3.133-1.151,4.81-3.806,5.9l6.3,5.687H26.868l-5.1-4.6-5.131.325H9.8a14.177,14.177,0,0,1-3.759-.534C1.972,27.939,0,25.8,0,22.268Zm6.9-.37a2.8,2.8,0,0,0,.123.657c.37,1.767,2.034,2.753,4.56,2.753H17.4L12.06,20.49h7.426l4.655,4.2a3.03,3.03,0,0,0,1.62-2.054,2.107,2.107,0,0,0,.061-.616V7.437a1.979,1.979,0,0,0-.061-.576c-.37-1.643-2.034-2.588-4.5-2.588H11.587C8.752,4.273,6.9,5.506,6.9,7.437Z" transform="translate(0)" fill="#e48e00"/></g><g transform="translate(120.963 0)"><path d="M68.4,59.843a22.5,22.5,0,0,0-9.5,1.342c-.73.308-1.893.316-2.012,1.23.4.42.463,1.048.782,1.565A12.344,12.344,0,0,0,60.234,67c1.009.762,2.049,1.576,3.131,2.236,1.924,1.173,4.072,1.843,5.925,3.019,1.092.693,2.176,1.565,3.242,2.347.526.386.881.988,1.565,1.23v-.112c-.36-.458-.452-1.087-.782-1.565L71.86,72.7a23.848,23.848,0,0,0-5.142-4.919c-1.529-1.1-4.952-2.58-5.59-4.36l-.112-.112a24.574,24.574,0,0,0,3.354-.782c1.681-.451,3.183-.334,4.919-.782l2.348-.671v-.447c-.878-.9-1.5-2.092-2.46-2.907a71.76,71.76,0,0,0-8.049-6.037c-1.56-.985-3.489-1.625-5.142-2.46-.556-.281-1.533-.427-1.9-.894a23.671,23.671,0,0,1-2.012-3.8c-1.4-2.7-2.782-5.654-4.025-8.5a45.788,45.788,0,0,0-2.459-5.59c-5.076-8.346-10.54-13.383-19-18.334a22.781,22.781,0,0,0-6.261-2.012L16.635,9.87A19.626,19.626,0,0,1,14.4,8.193c-2.8-1.771-10-5.624-12.073-.559-1.311,3.2,1.96,6.318,3.13,7.938a23.993,23.993,0,0,1,2.459,3.689c.386.84.453,1.682.783,2.571a59.18,59.18,0,0,0,2.571,6.6,23.363,23.363,0,0,0,1.789,3.018c.412.562,1.118.809,1.229,1.677-.69.966-.73,2.465-1.118,3.689-1.747,5.509-1.088,12.357,1.453,16.434.78,1.252,2.617,3.936,5.142,2.907,2.209-.9,1.716-3.689,2.348-6.149.143-.558.055-.968.335-1.341v.112L24.461,52.8a27.385,27.385,0,0,0,6.372,6.6c1.161.877,2.076,2.394,3.577,2.907V62.19H34.3c-.291-.454-.746-.641-1.118-1.006a25.619,25.619,0,0,1-2.571-2.907,68.029,68.029,0,0,1-5.478-8.944c-.783-1.5-1.464-3.164-2.125-4.7-.255-.59-.252-1.483-.782-1.789A22.344,22.344,0,0,0,19.877,46.2c-.895,2.118-1.01,4.7-1.341,7.378-.2.07-.109.022-.224.112-1.557-.376-2.1-1.978-2.682-3.353a21.134,21.134,0,0,1-.448-13.08c.333-1.035,1.839-4.3,1.23-5.254-.291-.955-1.251-1.507-1.789-2.236a17.592,17.592,0,0,1-1.789-3.13c-1.2-2.712-1.757-5.755-3.018-8.5a24.807,24.807,0,0,0-2.459-3.8,22.165,22.165,0,0,1-2.683-3.8c-.255-.554-.6-1.442-.224-2.012a.886.886,0,0,1,.671-.671c.648-.5,2.454.166,3.13.447a27.247,27.247,0,0,1,4.808,2.46c.729.483,1.466,1.418,2.347,1.677h1.006c1.574.362,3.337.112,4.807.559a29.074,29.074,0,0,1,7.043,3.354A43.6,43.6,0,0,1,43.577,33.124c.58,1.112.831,2.174,1.341,3.354,1.03,2.379,2.328,4.828,3.353,7.155a33.412,33.412,0,0,0,3.466,6.6c.761,1.016,3.7,1.56,5.031,2.124a29.641,29.641,0,0,1,3.354,1.341c1.692,1.021,3.332,2.236,4.919,3.354C65.835,57.607,68.273,58.833,68.4,59.843Z" transform="translate(-2.021 -5.117)" fill="#00618a"/></g><g transform="translate(135.353 12.131)"><path d="M2.013.029A8,8,0,0,0,0,.252V.364H.112A15.341,15.341,0,0,0,1.677,2.377Q2.236,3.55,2.8,4.724l.112-.111a2.73,2.73,0,0,0,1.006-2.46c-.277-.292-.318-.658-.559-1.006C3.034.683,2.416.419,2.013.029Z" transform="translate(0 -0.027)" fill="#00618a" fill-rule="evenodd"/></g><g transform="translate(184.712 82.221)"><path d="M0,4.713A4.65,4.65,0,0,0,4.714,9.427,4.65,4.65,0,0,0,9.427,4.713,4.65,4.65,0,0,0,4.714,0,4.65,4.65,0,0,0,0,4.713Zm8.371,0a3.658,3.658,0,1,1-7.315,0,3.658,3.658,0,1,1,7.315,0ZM5.984,7.4H7.039L5.493,5.04c.829-.088,1.457-.491,1.457-1.471,0-1.094-.691-1.546-2.023-1.546h-2.1V7.4h.9V5.078h.842ZM3.733,4.324V2.778H4.776c.541,0,1.194.1,1.194.729,0,.754-.591.817-1.27.817Z" fill="#e48e00" fill-rule="evenodd"/></g></svg>