<svg xmlns="http://www.w3.org/2000/svg" width="186.103" height="50" viewBox="0 0 186.103 50"><path d="M143.726,45.369q3.924.3,7.837.647V0h-7.837ZM17.654,28.3,7.448,0H0V50q3.911-.558,7.837-1.067V21.745l9.076,26.071q4.282-.5,8.579-.939V0H17.654ZM33.028,46.149q10.834-.984,21.769-1.617V36.808q-6.986.4-13.932.952V26.07c3.039-.03,7.039-.123,10.583-.08V18.269c-2.831-.007-7.383.039-10.583.081V7.8H54.8V.005H33.028V46.149ZM59.82,7.795h8.2V43.9q3.912-.147,7.837-.248V7.795h8.2V0H59.82V7.795Zm29.265,35.65h7.837V25.615h10.624V17.893H96.922V7.8h14.041V.005H89.086V43.447ZM186.1,0H177.5l-5.674,13.152L166.722,0h-8.478l9.111,23.5-9.947,23.056q4.128.4,8.237.857l5.785-13.405,5.729,14.777q4.476.575,8.932,1.208l.012-.005-10.209-26.33Zm-62.28,0h-7.837V43.829q10.683.368,21.277,1.076V37.183q-6.7-.448-13.441-.76Z" fill="#e50914"/></svg>