<svg xmlns="http://www.w3.org/2000/svg" width="184.146" height="37.125" viewBox="0 0 184.146 37.125"><path d="M261.919.033h32.075v5.92H281.27V37.1h-6.362V5.953H261.919Z" transform="translate(-139.504 -0.018)"/><path d="M112.5.033v5.92H86.789v9.524h20.676V21.4H86.789v9.781H112.5V37.1H80.427V5.953h0V.033Z" transform="translate(-42.836 -0.018)"/><path d="M173.832.066h-8.326l29.821,37.066h8.35l-14.913-18.52L203.654.094l-8.326.013L184.6,13.435Z" transform="translate(-88.152 -0.035)"/><path d="M182.348,50.807l-4.169-5.184-12.724,15.8h8.35Z" transform="translate(-88.125 -24.3)"/><path d="M37.814,37.081,7.952,0H0V37.066H6.362V7.923l23.46,29.158Z" fill-rule="evenodd"/><path d="M331.686,75.089a1.649,1.649,0,0,1-1.194-.484A1.557,1.557,0,0,1,330,73.428a1.54,1.54,0,0,1,.492-1.16,1.649,1.649,0,0,1,1.194-.484,1.628,1.628,0,0,1,1.172.484,1.572,1.572,0,0,1,.509,1.16,1.607,1.607,0,0,1-.237.837,1.718,1.718,0,0,1-.616.6A1.59,1.59,0,0,1,331.686,75.089Z" transform="translate(-175.765 -38.234)"/><path d="M348.749,45.445h2.819V56.307a5.02,5.02,0,0,1-.642,2.57,4.273,4.273,0,0,1-1.776,1.652,5.782,5.782,0,0,1-2.643.578,6.071,6.071,0,0,1-2.474-.488,3.983,3.983,0,0,1-1.741-1.444,4.155,4.155,0,0,1-.643-2.383h2.824a2.105,2.105,0,0,0,.28,1.079,1.8,1.8,0,0,0,.75.692,2.456,2.456,0,0,0,1.112.242,2.193,2.193,0,0,0,1.155-.285,1.806,1.806,0,0,0,.724-.841,3.461,3.461,0,0,0,.254-1.372Z" transform="translate(-181.97 -24.205)"/><path d="M377.341,49.456a2.048,2.048,0,0,0-.9-1.538,3.52,3.52,0,0,0-2.056-.552,3.989,3.989,0,0,0-1.521.263,2.288,2.288,0,0,0-.974.718,1.754,1.754,0,0,0-.345,1.032,1.512,1.512,0,0,0,.229.837,1.876,1.876,0,0,0,.616.6,4.116,4.116,0,0,0,.862.412q.478.166.957.28l1.47.361a10.16,10.16,0,0,1,1.712.552,6.059,6.059,0,0,1,1.478.875,3.918,3.918,0,0,1,1.035,1.274,3.791,3.791,0,0,1,.384,1.75,4.124,4.124,0,0,1-.7,2.387,4.631,4.631,0,0,1-2.034,1.606,8.063,8.063,0,0,1-3.211.578,8.182,8.182,0,0,1-3.168-.561,4.495,4.495,0,0,1-2.914-4.235h2.793a2.343,2.343,0,0,0,.5,1.342,2.716,2.716,0,0,0,1.16.8,4.661,4.661,0,0,0,1.6.263,4.475,4.475,0,0,0,1.629-.276,2.547,2.547,0,0,0,1.1-.769,1.8,1.8,0,0,0,.405-1.155,1.487,1.487,0,0,0-.358-1,2.748,2.748,0,0,0-.983-.663,10.1,10.1,0,0,0-1.474-.48l-1.784-.45a7.157,7.157,0,0,1-3.057-1.491,3.378,3.378,0,0,1-1.121-2.659,3.919,3.919,0,0,1,.755-2.391,4.9,4.9,0,0,1,2.052-1.593A7.262,7.262,0,0,1,374.426,45a7,7,0,0,1,2.927.569,4.769,4.769,0,0,1,1.978,1.576,3.988,3.988,0,0,1,.742,2.311Z" transform="translate(-196.143 -23.968)"/></svg>