<svg xmlns="http://www.w3.org/2000/svg" width="62.355" height="70.843" viewBox="0 0 62.355 70.843"><path d="M.5,53.145a3.451,3.451,0,0,0,1.358,1.322L29.373,70.333h0a3.516,3.516,0,0,0,3.645,0L60.533,54.467a3.617,3.617,0,0,0,1.822-3.18V19.555h0a3.617,3.617,0,0,0-1.822-3.18L33.018.509h0a3.516,3.516,0,0,0-3.645,0h0L1.858,16.375A3.579,3.579,0,0,0,0,19.555H0V51.323a3.343,3.343,0,0,0,.5,1.822" fill="#009639"/><path d="M69.865,109.041a3.538,3.538,0,0,1-7.075,0h0V84.777c0-1.894,1.679-3.43,4-3.43a6.311,6.311,0,0,1,4.824,2.144l1.072,1.286,14.794,17.688V84.849h0a3.538,3.538,0,0,1,7.075,0h0v24.263c0,1.894-1.679,3.43-4,3.43a6.311,6.311,0,0,1-4.824-2.144L69.865,91.46v17.581Z" transform="translate(-47.496 -61.506)" fill="#fff"/></svg>