<svg xmlns="http://www.w3.org/2000/svg" xmlns:xlink="http://www.w3.org/1999/xlink" width="141.675" height="43.47" viewBox="0 0 141.675 43.47"><defs><linearGradient id="a" x1="0.684" y1="0.277" x2="0.276" y2="-0.443" gradientUnits="objectBoundingBox"><stop offset="0" stop-color="#3f873f"/><stop offset="0.33" stop-color="#3f8b3d"/><stop offset="0.64" stop-color="#3e9638"/><stop offset="0.93" stop-color="#3da92e"/><stop offset="1" stop-color="#3dae2b"/></linearGradient><linearGradient id="b" x1="0.432" y1="-0.101" x2="1.597" y2="0.628" gradientUnits="objectBoundingBox"><stop offset="0.14" stop-color="#3f873f"/><stop offset="0.4" stop-color="#52a044"/><stop offset="0.71" stop-color="#64b749"/><stop offset="0.91" stop-color="#6abf4b"/></linearGradient><linearGradient id="c" x1="-0.044" y1="-0.047" x2="1.016" y2="-0.047" gradientUnits="objectBoundingBox"><stop offset="0.09" stop-color="#6abf4b"/><stop offset="0.29" stop-color="#64b749"/><stop offset="0.6" stop-color="#52a044"/><stop offset="0.86" stop-color="#3f873f"/></linearGradient></defs><g transform="translate(0 0.003)"><g transform="translate(0 -0.002)"><path d="M225,56.1a2.219,2.219,0,0,1-1.063-.281l-3.371-2.016c-.507-.281-.253-.38-.1-.435a6.238,6.238,0,0,0,1.52-.689.227.227,0,0,1,.253.028l2.583,1.553a.326.326,0,0,0,.3,0l10.113-5.894a.3.3,0,0,0,.154-.281V36.329a.289.289,0,0,0-.154-.281L225.13,30.182a.326.326,0,0,0-.3,0l-10.113,5.866a.323.323,0,0,0-.154.281v11.76a.312.312,0,0,0,.154.281l2.765,1.608c1.5.766,2.435-.127,2.435-1.019V37.353a.31.31,0,0,1,.3-.308h1.294a.307.307,0,0,1,.3.308V48.959c0,2.016-1.091,3.189-2.991,3.189a4.305,4.305,0,0,1-2.33-.639l-2.66-1.531a2.146,2.146,0,0,1-1.063-1.862V36.356a2.157,2.157,0,0,1,1.063-1.862L223.946,28.6a2.239,2.239,0,0,1,2.126,0l10.113,5.894a2.146,2.146,0,0,1,1.063,1.862v11.76a2.157,2.157,0,0,1-1.063,1.862l-10.113,5.894a2.838,2.838,0,0,1-1.063.231Z" transform="translate(-95.573 -12.725)" fill="#5fa04e"/><path d="M236.328,54.835c-4.44,0-5.348-2.038-5.348-3.773a.31.31,0,0,1,.3-.308H232.6a.263.263,0,0,1,.281.253c.2,1.349.788,2.016,3.476,2.016,2.132,0,3.04-.485,3.04-1.63,0-.661-.253-1.146-3.575-1.482-2.765-.281-4.489-.892-4.489-3.112,0-2.066,1.724-3.288,4.616-3.288,3.244,0,4.842,1.124,5.045,3.569a.429.429,0,0,1-.077.231.319.319,0,0,1-.2.1h-1.344a.3.3,0,0,1-.281-.231c-.3-1.4-1.091-1.862-3.167-1.862-2.33,0-2.611.815-2.611,1.427,0,.738.331.969,3.47,1.377,3.118.408,4.588,1,4.588,3.189s-1.851,3.52-5.045,3.52Z" transform="translate(-103.753 -19.543)" fill="#5fa04e"/><path d="M24.054,35.792a1.3,1.3,0,0,0-.661-1.124L12.669,28.416a1.441,1.441,0,0,0-.584-.176h-.1a1.224,1.224,0,0,0-.584.176L.661,34.646A1.306,1.306,0,0,0,0,35.792L.028,52.525a.635.635,0,0,0,.33.562.575.575,0,0,0,.633,0l6.389-3.674a1.3,1.3,0,0,0,.661-1.124V40.457A1.3,1.3,0,0,1,8.7,39.333l2.71-1.581a1.229,1.229,0,0,1,.661-.176,1.078,1.078,0,0,1,.633.176l2.71,1.581a1.3,1.3,0,0,1,.661,1.124V48.29a1.3,1.3,0,0,0,.661,1.124l6.34,3.674a.622.622,0,0,0,.661,0,.635.635,0,0,0,.33-.562V35.792Z" transform="translate(0 -12.684)" fill="#333" fill-rule="evenodd"/><path d="M123.562.076a.678.678,0,0,0-.633,0,.662.662,0,0,0-.33.562V17.217a.46.46,0,0,1-.689.408l-2.688-1.553a1.294,1.294,0,0,0-1.294,0l-10.746,6.252a1.3,1.3,0,0,0-.661,1.124v12.47a1.3,1.3,0,0,0,.661,1.124l10.746,6.252a1.294,1.294,0,0,0,1.294,0l10.746-6.252a1.3,1.3,0,0,0,.661-1.124V4.818a1.3,1.3,0,0,0-.661-1.146Zm-.986,31.732a.289.289,0,0,1-.154.281l-3.674,2.143a.386.386,0,0,1-.33,0l-3.674-2.143a.323.323,0,0,1-.154-.281V27.523a.289.289,0,0,1,.154-.281l3.674-2.143a.386.386,0,0,1,.33,0l3.674,2.143a.323.323,0,0,1,.154.281Z" transform="translate(-47.847 0.002)" fill="#333" fill-rule="evenodd"/><path d="M183.337,40.255a1.271,1.271,0,0,0,.633-1.124V36.1a1.338,1.338,0,0,0-.633-1.124l-10.675-6.224a1.294,1.294,0,0,0-1.294,0l-10.746,6.246a1.3,1.3,0,0,0-.661,1.124v12.47a1.3,1.3,0,0,0,.661,1.124l10.669,6.12a1.243,1.243,0,0,0,1.267,0l6.467-3.624a.643.643,0,0,0,0-1.124l-10.8-6.252a.662.662,0,0,1-.33-.562v-3.9a.635.635,0,0,1,.33-.562L171.6,37.87a.622.622,0,0,1,.661,0l3.371,1.939a.662.662,0,0,1,.331.562v3.063a.635.635,0,0,0,.33.562.622.622,0,0,0,.661,0l6.389-3.751Z" transform="translate(-71.852 -12.834)" fill="#333" fill-rule="evenodd"/><path d="M179.771,48.69a.234.234,0,0,1,.253,0l2.055,1.2a.264.264,0,0,1,.127.231v2.4a.271.271,0,0,1-.127.231l-2.055,1.2a.234.234,0,0,1-.253,0l-2.055-1.2a.264.264,0,0,1-.127-.231v-2.4a.271.271,0,0,1,.127-.231Z" transform="translate(-79.771 -21.853)" fill="#5fa04e" fill-rule="evenodd"/><path d="M66.027,28.849a1.294,1.294,0,0,0-1.294,0l-10.669,6.2a1.271,1.271,0,0,0-.633,1.124V48.59a1.338,1.338,0,0,0,.633,1.124l10.669,6.2a1.294,1.294,0,0,0,1.294,0l10.669-6.2a1.271,1.271,0,0,0,.633-1.124V36.169a1.338,1.338,0,0,0-.633-1.124l-10.669-6.2Z" transform="translate(-24 -12.879)" fill="url(#a)"/><path d="M76.908,35.083l-10.724-6.2a1.513,1.513,0,0,0-.33-.127L53.84,49.449a1.329,1.329,0,0,0,.353.308l10.724,6.2a1.223,1.223,0,0,0,.986.127L77.183,35.32a.8.8,0,0,0-.281-.231Z" transform="translate(-24.184 -12.917)" fill="url(#b)"/><path d="M77.236,49.71a1.438,1.438,0,0,0,.633-.815l-11.738-20.2a1.28,1.28,0,0,0-.914.154L54.57,35.02,66.054,56.089a1.737,1.737,0,0,0,.479-.154l10.7-6.224Z" transform="translate(-24.512 -12.876)" fill="url(#c)"/></g></g></svg>