<svg xmlns="http://www.w3.org/2000/svg" width="160.616" height="62.462" viewBox="0 0 160.616 62.462"><path d="M0,0H160.615V53.539H80.308v8.923H44.615V53.539H0ZM8.923,44.615H26.769V17.846h8.923V44.615h8.923V8.923H8.923ZM53.539,8.923V53.539H71.385V44.615H89.231V8.923Zm17.846,8.923h8.923V35.692H71.385ZM98.154,8.923V44.615H116V17.846h8.923V44.615h8.923V17.846h8.923V44.615h8.923V8.923Z" fill="#cb3837"/><path d="M1,36.692H18.846V9.923h8.923V36.692h8.923V1H1Z" transform="translate(7.923 7.923)" fill="#fff"/><path d="M6,1V45.615H23.846V36.692H41.692V1ZM32.769,27.769H23.846V9.923h8.923Z" transform="translate(47.538 7.923)" fill="#fff"/><path d="M11,1V36.692H28.846V9.923h8.923V36.692h8.923V9.923h8.923V36.692h8.923V1Z" transform="translate(87.154 7.923)" fill="#fff"/></svg>