<svg xmlns="http://www.w3.org/2000/svg" width="272.687" height="50" viewBox="0 0 272.687 50"><path d="M374.118-464.785h-14.65v19.077h-15.25v-19.077h-14.65v48h14.65v-18.879h15.25v18.879h14.65Zm50.962,38.351v-38.351H410.43v48h26.49l2.2-9.644ZM399.6-464.785h-14.65v48H399.6Zm59.392,0H444.347v48h14.644Zm72.228,12.249c0-2.612,2.612-3.819,6.82-3.819a36.694,36.694,0,0,1,13.047,2.421l-1.2-10.449a57.3,57.3,0,0,0-13.443-1.405c-11.84,0-19.868,4.672-19.868,14.459,0,16.867,22.882,13.457,22.882,21.287,0,3.008-2.217,4.611-7.632,4.611a43.819,43.819,0,0,1-16.655-3.813l1.61,11.049a48.351,48.351,0,0,0,15.25,2.408c12.236,0,22.269-4.017,22.269-16.069,0-16.055-23.08-13.047-23.08-20.68m-41.325,24.3c13.634,0,22.269-7.032,22.269-19.281,0-13.45-9.228-18.272-24.281-18.272a165.393,165.393,0,0,0-17.856,1v48h14.65v-11.445Zm7.823-19.077c0,6.22-3.008,10.442-10.64,10.442h-2.4V-456.7c.852-.048,1.651-.048,2.4-.048,7.223,0,10.64,3.411,10.64,9.44M301.48-428.234c13.641,0,22.268-7.032,22.268-19.281,0-13.45-9.228-18.272-24.274-18.272a165.526,165.526,0,0,0-17.863,1v48h14.65v-11.445Zm7.83-19.077c0,6.22-3.015,10.442-10.64,10.442h-2.408V-456.7c.852-.048,1.657-.048,2.408-.048,7.223,0,10.64,3.411,10.64,9.44" transform="translate(-281.612 465.787)" fill="#0b5ed7"/></svg>