<svg xmlns="http://www.w3.org/2000/svg" width="83.52" height="81.432" viewBox="0 0 83.52 81.432"><path d="M14.79,0H68.73A14.778,14.778,0,0,1,83.52,14.79V66.642a14.778,14.778,0,0,1-14.79,14.79H14.79A14.778,14.778,0,0,1,0,66.642V14.79A14.778,14.778,0,0,1,14.79,0Z" fill="#001e36"/><g transform="translate(18.792 20.706)"><path d="M54,95.9V60.092c0-.244.1-.383.348-.383.592,0,1.148,0,1.949-.035.835-.035,1.705-.035,2.645-.07s1.949-.035,3.028-.07,2.123-.035,3.167-.035A20.462,20.462,0,0,1,72.3,60.579a12.427,12.427,0,0,1,4.663,2.854,11.08,11.08,0,0,1,2.54,3.967,13.32,13.32,0,0,1,.8,4.524,12.441,12.441,0,0,1-2.088,7.412,11.922,11.922,0,0,1-5.6,4.246,22.554,22.554,0,0,1-7.83,1.183c-.835,0-1.392,0-1.74-.035s-.835-.035-1.5-.035V95.866a.433.433,0,0,1-.383.487H54.418C54.139,96.353,54,96.214,54,95.9Zm7.586-29.475V78.118c.487.035.94.07,1.357.07h1.844a13,13,0,0,0,4-.626,5.985,5.985,0,0,0,2.854-1.844,5.377,5.377,0,0,0,1.079-3.584,5.728,5.728,0,0,0-.8-3.1,5.046,5.046,0,0,0-2.436-1.984,10.211,10.211,0,0,0-4.106-.7c-.9,0-1.705,0-2.366.035a7.969,7.969,0,0,0-1.427.035Z" transform="translate(-54 -59.5)" fill="#31a8ff"/><path d="M158.283,92.165a12.317,12.317,0,0,0-3.341-1.183,18.345,18.345,0,0,0-3.9-.452,7.007,7.007,0,0,0-2.088.244,1.787,1.787,0,0,0-1.079.7,1.844,1.844,0,0,0-.278.94,1.548,1.548,0,0,0,.348.9,3.927,3.927,0,0,0,1.183.94c.8.418,1.636.8,2.471,1.148a25.2,25.2,0,0,1,5.359,2.54,8.1,8.1,0,0,1,2.749,2.888,7.513,7.513,0,0,1,.8,3.584,8.1,8.1,0,0,1-1.357,4.628,8.721,8.721,0,0,1-3.9,3.1,15.945,15.945,0,0,1-6.3,1.114,23.971,23.971,0,0,1-4.733-.452,14.037,14.037,0,0,1-3.55-1.114.684.684,0,0,1-.383-.661v-6.055a.378.378,0,0,1,.139-.313.265.265,0,0,1,.313.035,14.9,14.9,0,0,0,4.315,1.705,16.2,16.2,0,0,0,4.106.522,6.642,6.642,0,0,0,2.888-.487,1.617,1.617,0,0,0,.94-1.462,1.844,1.844,0,0,0-.835-1.392,14.759,14.759,0,0,0-3.41-1.636,21.292,21.292,0,0,1-4.942-2.506,9.011,9.011,0,0,1-2.645-2.958,7.467,7.467,0,0,1-.8-3.55,8.185,8.185,0,0,1,1.183-4.211,8.578,8.578,0,0,1,3.654-3.2,13.5,13.5,0,0,1,6.16-1.218,30,30,0,0,1,4.315.313,12.245,12.245,0,0,1,2.993.8.611.611,0,0,1,.348.313,1.747,1.747,0,0,1,.07.418v5.672a.428.428,0,0,1-.174.348A.927.927,0,0,1,158.283,92.165Z" transform="translate(-110.259 -75.67)" fill="#31a8ff"/></g></svg>