<svg xmlns="http://www.w3.org/2000/svg" width="162.897" height="81.441" viewBox="0 0 162.897 81.441"><g transform="translate(0 -0.001)"><g transform="translate(0)"><path d="M784.647,3985.389H808.8q10.637.09,15.414,6.1t3.155,16.415a31.4,31.4,0,0,1-2.794,9.329,27.722,27.722,0,0,1-5.769,8.252,20.138,20.138,0,0,1-9.645,5.92,44.642,44.642,0,0,1-10.637,1.256H787.712l-3.425,17.043h-12.53l12.89-64.315m10.546,10.226-5.408,26.91a6.6,6.6,0,0,0,1.082.09h1.262a47.611,47.611,0,0,0,14.422-1.7q5.769-1.883,7.752-13.1,1.622-9.418-3.245-10.854a40.609,40.609,0,0,0-11.989-1.345q-1.082.089-2.073.09H795.1l.09-.09" transform="translate(-771.757 -3968.262)"/><path d="M1064.247,3901.273h12.439l-3.516,17.132h11.178q9.194.179,13.7,3.768,4.6,3.588,2.7,13.634l-6.039,29.87H1082.1l5.769-28.524q.9-4.485-.541-6.369t-6.22-1.883l-10.006-.09-7.392,36.866h-12.439l12.98-64.4" transform="translate(-994.354 -3901.273)"/><path d="M1309.5,3985.389h24.158q10.636.09,15.414,6.1t3.155,16.415a31.391,31.391,0,0,1-2.794,9.329,27.721,27.721,0,0,1-5.769,8.252,20.138,20.138,0,0,1-9.645,5.92,44.644,44.644,0,0,1-10.637,1.256h-10.817l-3.425,17.043h-12.53l12.89-64.315m10.547,10.226-5.408,26.91a6.6,6.6,0,0,0,1.082.09h1.262a47.609,47.609,0,0,0,14.422-1.7q5.769-1.883,7.752-13.1,1.622-9.418-3.245-10.854a40.608,40.608,0,0,0-11.989-1.345q-1.082.089-2.073.09h-1.893l.09-.09" transform="translate(-1189.744 -3968.262)"/></g></g></svg>