<svg xmlns="http://www.w3.org/2000/svg" width="162.497" height="50" viewBox="0 0 162.497 50"><g transform="translate(0 -0.049)"><g transform="translate(0 0.049)"><path d="M396.5,245.364v-.081a.386.386,0,0,1,.345-.142c.589-.02,1.157-.02,1.746,0a.445.445,0,0,1,.345.142v.081Z" transform="translate(-315.993 -195.364)" fill="#d1effa"/><path d="M237.945,172.2q-1.218-.03-2.437,0c-1.117-.061-2.233-.1-3.35-.183a58.175,58.175,0,0,1-8.792-1.34,59.545,59.545,0,0,1-26.355-13.726c-.711-.629-1.381-1.279-2.071-1.929a1.5,1.5,0,0,1-.386-.548.748.748,0,0,1,.142-.812.718.718,0,0,1,.812-.183,4.272,4.272,0,0,1,.528.264,79,79,0,0,0,23.594,9.746,86.017,86.017,0,0,0,8.467,1.523,77.912,77.912,0,0,0,12.3.548,65.212,65.212,0,0,0,6.6-.548,79.783,79.783,0,0,0,15.066-3.431,71.06,71.06,0,0,0,7.553-2.964,1.7,1.7,0,0,1,1.218-.162,1.261,1.261,0,0,1,.914,1.523,1.412,1.412,0,0,1-.1.264,2.226,2.226,0,0,1-.67.772,45.2,45.2,0,0,1-7.513,4.772,59.507,59.507,0,0,1-15.9,5.381A69.73,69.73,0,0,1,237.945,172.2Z" transform="translate(-155.002 -122.28)" fill="#00a8e1"/><path d="M206.366,35.585c.508-.3,1.036-.629,1.584-.914a9.075,9.075,0,0,1,4.609-1.015,4.056,4.056,0,0,1,4.162,4.061c.02.223.02.447.02.69V48.925c0,.914-.122,1.036-1.036,1.036h-2.477a3.913,3.913,0,0,1-.487-.02.56.56,0,0,1-.487-.467,3.712,3.712,0,0,1-.041-.67V39.4a3.434,3.434,0,0,0-.122-1.117,1.519,1.519,0,0,0-1.381-1.117,7.168,7.168,0,0,0-3.492.67.334.334,0,0,0-.244.365v10.68a2.875,2.875,0,0,1-.041.589.486.486,0,0,1-.508.487h0c-.3.02-.609.02-.934.02h-2.152c-.751,0-.914-.183-.914-.934v-9.6a4.653,4.653,0,0,0-.1-1.056,1.533,1.533,0,0,0-1.421-1.218,7.148,7.148,0,0,0-3.553.69.324.324,0,0,0-.223.386V49.067c0,.751-.162.914-.914.914h-2.721c-.711,0-.893-.2-.893-.893V35a2,2,0,0,1,.061-.487.592.592,0,0,1,.569-.386h2.538a.733.733,0,0,1,.711.569c.1.284.162.548.264.853.2,0,.325-.142.467-.223a10.545,10.545,0,0,1,3.614-1.523,7.69,7.69,0,0,1,3.046,0,3.805,3.805,0,0,1,2.355,1.584.885.885,0,0,0,.122.142C206.326,35.545,206.346,35.545,206.366,35.585Z" transform="translate(-153.494 -26.824)" fill="#00a8e1"/><path d="M436.327,47.458c.122-.406.244-.792.365-1.2.934-3.147,1.868-6.274,2.8-9.421l.122-.365a.829.829,0,0,1,.812-.589h3.086c.772,0,.934.223.67.954l-1.218,3.228c-1.36,3.533-2.721,7.086-4.081,10.619-.041.122-.1.244-.142.365a.989.989,0,0,1-1.015.67q-1.34-.03-2.68,0a1.149,1.149,0,0,1-1.218-.832c-.508-1.34-1.036-2.7-1.543-4.041-1.218-3.188-2.457-6.376-3.675-9.584a3.629,3.629,0,0,1-.264-.792c-.061-.406.081-.609.487-.609,1.157-.02,2.315,0,3.452,0,.487,0,.711.325.833.751.223.772.447,1.563.69,2.335.832,2.822,1.645,5.665,2.477,8.487C436.266,47.458,436.286,47.458,436.327,47.458Z" transform="translate(-341.362 -28.585)" fill="#232f3e"/><path d="M95.784,37.536a.605.605,0,0,0,.345-.244,14.029,14.029,0,0,1,1.157-1.036,5.4,5.4,0,0,1,3.7-1.117c.528.02.711.183.751.69.041.69.02,1.4.02,2.091a3.817,3.817,0,0,1-.041.832.581.581,0,0,1-.589.548,5.7,5.7,0,0,1-.832-.02,9.727,9.727,0,0,0-3.959.569c-.284.1-.284.3-.284.528v9.746a4.592,4.592,0,0,1-.02.528.49.49,0,0,1-.487.467,3.29,3.29,0,0,1-.447.02h-2.64a3.29,3.29,0,0,1-.447-.02.544.544,0,0,1-.487-.508,3.914,3.914,0,0,1-.02-.487V36.317c0-.934.1-1.036,1.036-1.036h1.949a.805.805,0,0,1,.914.69C95.541,36.48,95.662,36.988,95.784,37.536Z" transform="translate(-72.921 -28.003)" fill="#00a8e1"/><path d="M541.43,148.4a17.306,17.306,0,0,1,3.959.467,6.574,6.574,0,0,1,1.056.386,1.369,1.369,0,0,1,.833,1.117,8.333,8.333,0,0,1,.061,1.746,22.388,22.388,0,0,1-3.127,9.807,13.541,13.541,0,0,1-2.355,2.9,1.674,1.674,0,0,1-.65.406.475.475,0,0,1-.65-.487,2.2,2.2,0,0,1,.142-.609c.711-1.909,1.4-3.8,1.949-5.766a20.151,20.151,0,0,0,.69-3.289,6.121,6.121,0,0,0,.02-1.218,1.585,1.585,0,0,0-1.137-1.482,7.876,7.876,0,0,0-1.949-.365,32.052,32.052,0,0,0-5.584.244l-2.457.3a.608.608,0,0,1-.65-.244.686.686,0,0,1,.061-.731,2.037,2.037,0,0,1,.609-.569,13.942,13.942,0,0,1,4.974-2.152A24.22,24.22,0,0,1,541.43,148.4Z" transform="translate(-423.583 -118.278)" fill="#00a8e1"/><path d="M520.648,43.919v7.31a.581.581,0,0,1-.63.609c-1.1.02-2.172.02-3.269,0a.566.566,0,0,1-.629-.589,2.462,2.462,0,0,1-.02-.386V36.812c.02-.629.183-.812.812-.812h2.924c.629,0,.812.183.812.812v7.107Z" transform="translate(-411.309 -28.7)" fill="#232f3e"/><path d="M151.52,43.739V36.531c.02-.487.2-.67.69-.69q1.584-.03,3.168,0c.467,0,.609.142.65.609a4.592,4.592,0,0,1,.02.528V50.5c0,.223-.02.447-.041.67a.505.505,0,0,1-.487.467,1.97,1.97,0,0,1-.345.02h-2.822a1.341,1.341,0,0,1-.284-.02.587.587,0,0,1-.548-.528,3.914,3.914,0,0,1-.02-.487C151.52,48.368,151.52,46.053,151.52,43.739Z" transform="translate(-120.739 -28.561)" fill="#00a8e1"/><path d="M152.579.085a2.536,2.536,0,0,1,.954.142A2.3,2.3,0,0,1,155.1,2.785a2.267,2.267,0,0,1-1.929,2.071,3.828,3.828,0,0,1-1.36,0,2.273,2.273,0,0,1-1.929-2.538C150,.877,150.955.085,152.579.085Z" transform="translate(-119.443 -0.074)" fill="#00a8e1"/><path d="M517.142.059a2.455,2.455,0,0,1,1.2.2,2.136,2.136,0,0,1,1.381,1.888A2.393,2.393,0,0,1,517,4.892a3.776,3.776,0,0,1-.67-.081,2.3,2.3,0,0,1-1.787-2.68A2.274,2.274,0,0,1,516.716.08,1.505,1.505,0,0,1,517.142.059Z" transform="translate(-410.056 -0.049)" fill="#232f3e"/><path d="M15.574,40.294a9.247,9.247,0,0,0-.792-3.046,5.875,5.875,0,0,0-4.061-3.472,7.175,7.175,0,0,0-6.071,1.36,1.626,1.626,0,0,1-.426.3c-.041-.02-.081-.041-.081-.061-.061-.2-.1-.406-.162-.609a.805.805,0,0,0-.914-.69c-.609,0-1.239.02-1.848,0A1.415,1.415,0,0,0,0,34.487c0,7.107,0,14.233.02,21.32a1.132,1.132,0,0,0,1.137.487c.731-.02,1.462,0,2.193,0,1.279,0,1.279,0,1.279-1.259V49.248c0-.142-.061-.3.081-.426a6.821,6.821,0,0,0,3.533,1.4,5.957,5.957,0,0,0,4.772-1.482,7.512,7.512,0,0,0,2.112-3.391A12.552,12.552,0,0,0,15.574,40.294Zm-4.853,4.2a3.129,3.129,0,0,1-.934,1.624,2.891,2.891,0,0,1-1.868.711,5.572,5.572,0,0,1-2.964-.65.576.576,0,0,1-.345-.569V41.939c0-1.218.02-2.437,0-3.655a.617.617,0,0,1,.406-.629,5.49,5.49,0,0,1,3.492-.528,2.48,2.48,0,0,1,1.929,1.462,5.673,5.673,0,0,1,.528,2.071A10.146,10.146,0,0,1,10.721,44.5Z" transform="translate(0 -26.781)" fill="#00a8e1"/><path d="M800.1,82.14Z" transform="translate(-637.644 -65.46)" fill="#232f3e"/><path d="M738.595,40.573v.081a.292.292,0,0,1-.081-.3v-.162a.02.02,0,0,1,.02-.02h-.02v-.2h.041c0-.02-.02-.02-.02-.041a7.027,7.027,0,0,0-.223-1.137,6.829,6.829,0,0,0-5.178-5.137,9.977,9.977,0,0,0-3.878-.142,6.664,6.664,0,0,0-5.665,4.467,10.862,10.862,0,0,0,.02,7.675,6.473,6.473,0,0,0,4.772,4.264,10.056,10.056,0,0,0,3.817.2,6.976,6.976,0,0,0,6.315-6.538h-.02v-.284c-.02-.122-.041-.223.081-.3v.041a.153.153,0,0,1,.041-.081V40.614C738.615,40.594,738.595,40.594,738.595,40.573Zm-4.873,3.858a3.72,3.72,0,0,1-.568,1.178,2.629,2.629,0,0,1-1.929,1.1,3.7,3.7,0,0,1-1.157-.041,2.609,2.609,0,0,1-1.909-1.523,5.807,5.807,0,0,1-.548-2.01,11.112,11.112,0,0,1,.162-3.574,4.546,4.546,0,0,1,.548-1.34,2.646,2.646,0,0,1,2.071-1.259,3.694,3.694,0,0,1,1.157.041,2.616,2.616,0,0,1,1.848,1.442,6,6,0,0,1,.589,2.294,9.9,9.9,0,0,1,.02,1.1A7.422,7.422,0,0,1,733.722,44.431Z" transform="translate(-576.118 -26.614)" fill="#232f3e"/><path d="M567.414.8h-2.822c-.772,0-.914.142-.914.914V8.292c0,.142.061.284-.041.426-.183-.02-.284-.142-.426-.223a6.75,6.75,0,0,0-6.558-.426,6.388,6.388,0,0,0-3.167,3.614,11.532,11.532,0,0,0-.711,4.69A9.671,9.671,0,0,0,553.79,20.7,5.84,5.84,0,0,0,557.3,23.8a6.574,6.574,0,0,0,6.173-1.056c.142-.081.223-.223.406-.264a2.888,2.888,0,0,1,.223.711.72.72,0,0,0,.711.548h.487c.731,0,1.442.02,2.152,0,.569,0,.731-.183.751-.772V1.572C568.186.942,568.024.8,567.414.8ZM563.7,15.744v3.7a.533.533,0,0,1-.325.569,5.005,5.005,0,0,1-3.188.609,2.781,2.781,0,0,1-2.173-1.5,5.632,5.632,0,0,1-.568-2.051,10.5,10.5,0,0,1,.244-3.817,4.656,4.656,0,0,1,.406-.995,2.62,2.62,0,0,1,2.132-1.36,6.13,6.13,0,0,1,3.127.548.559.559,0,0,1,.365.589c-.041,1.259-.02,2.477-.02,3.716Z" transform="translate(-440.532 -0.648)" fill="#232f3e"/><path d="M329.152,43.7a13.516,13.516,0,0,0,4.609.061,7.434,7.434,0,0,0,2.538-.812,3.778,3.778,0,0,0,1.868-2.274,4.842,4.842,0,0,0-3.046-6.091,9.086,9.086,0,0,0-4.041-.386,6.926,6.926,0,0,0-6.254,5.2,11.209,11.209,0,0,0-.041,6.335,6.349,6.349,0,0,0,5.2,4.873,13.089,13.089,0,0,0,7.046-.609.931.931,0,0,0,.69-.995c-.02-.487,0-.995,0-1.5,0-.609-.244-.792-.833-.65s-1.157.264-1.746.386a10.06,10.06,0,0,1-3.817.041,3.4,3.4,0,0,1-2.741-3.655A5.476,5.476,0,0,1,329.152,43.7Zm-.508-3.107a5.515,5.515,0,0,1,.386-1.4,3.027,3.027,0,0,1,3.188-1.909,3.314,3.314,0,0,1,1.076.244,1.549,1.549,0,0,1,.934,1.279,2.329,2.329,0,0,1-.061,1.056,1.813,1.813,0,0,1-1.543,1.178,4.1,4.1,0,0,1-1.32.1,15.867,15.867,0,0,1-2.4-.183C328.6,40.915,328.6,40.915,328.644,40.59Z" transform="translate(-258.492 -27.199)" fill="#00a8e1"/><path d="M652.068,44.016a8.322,8.322,0,0,0,3.411-.873,3.776,3.776,0,0,0,2.051-2.7,5.517,5.517,0,0,0-.02-2.233,4.706,4.706,0,0,0-3.33-3.553,8.987,8.987,0,0,0-3.025-.386,7.071,7.071,0,0,0-7.066,5.218,11.273,11.273,0,0,0,.081,6.8,6.239,6.239,0,0,0,4.65,4.345,11.016,11.016,0,0,0,3.046.3,12.909,12.909,0,0,0,4.365-.832.9.9,0,0,0,.731-1.056V47.59c-.02-.589-.264-.792-.853-.65-.447.122-.873.223-1.32.325a10.27,10.27,0,0,1-4.162.142,3.181,3.181,0,0,1-2.68-2.437,8.32,8.32,0,0,1-.223-1.239.646.646,0,0,1,.284.041A16.02,16.02,0,0,0,652.068,44.016Zm-4.244-3.249a5.034,5.034,0,0,1,.812-2.213A3.048,3.048,0,0,1,651.6,37.4c.1,0,.183.041.284.041a1.814,1.814,0,0,1,1.5,2.457,1.789,1.789,0,0,1-1.624,1.259,5.19,5.19,0,0,1-1.259.1,19.713,19.713,0,0,1-2.457-.2c-.183-.02-.264-.1-.223-.284Z" transform="translate(-512.921 -27.316)" fill="#232f3e"/></g></g></svg>