<svg xmlns="http://www.w3.org/2000/svg" width="311.755" height="50" viewBox="0 0 311.755 50"><g transform="translate(-91.539 -188.022)"><g transform="translate(91.539 188.022)"><path d="M144.585,190.074h-7.013a.4.4,0,0,0-.408.4v11.755a4.8,4.8,0,1,1-9.59,0V190.473a.4.4,0,0,0-.408-.4h-7.013a.4.4,0,0,0-.41.4v11.755a12.627,12.627,0,0,0,25.252,0V190.473a.4.4,0,0,0-.409-.4" transform="translate(68.227 -177.335)" fill-rule="evenodd"/><path d="M153.755,190.473a.4.4,0,0,0-.408-.4h-7.013a.4.4,0,0,0-.409.4v11.755a4.8,4.8,0,1,1-9.59,0V190.473a.4.4,0,0,0-.409-.4h-7.012a.4.4,0,0,0-.409.4v11.755a12.626,12.626,0,0,0,25.25,0Z" transform="translate(117.591 -177.336)" fill-rule="evenodd"/><path d="M128.069,207.293a4.826,4.826,0,0,1-4.8-4.862,4.8,4.8,0,0,1,9.59,0,4.826,4.826,0,0,1-4.8,4.862m0-17.253a12.513,12.513,0,0,0-4.8.956v-.34a.4.4,0,0,0-.409-.4h-7.012a.4.4,0,0,0-.409.4v35.956a.4.4,0,0,0,.409.4h7.012a.4.4,0,0,0,.409-.4V213.981a12.486,12.486,0,0,0,4.8.958,12.451,12.451,0,1,0,0-24.9" transform="translate(44.008 -177.528)" fill-rule="evenodd"/><path d="M136.749,200.4a12.489,12.489,0,0,0-4.8.958V188.6a.4.4,0,0,0-.409-.4h-7.012a.4.4,0,0,0-.409.4v36.065h0a.4.4,0,0,0,.409.4h7.013a.4.4,0,0,0,.408-.4V212.913a4.8,4.8,0,1,1,9.59,0v11.754a.4.4,0,0,0,.408.4h7.013a.4.4,0,0,0,.408-.4V212.913A12.661,12.661,0,0,0,136.749,200.4" transform="translate(92.909 -187.881)" fill-rule="evenodd"/><path d="M143.308,215.372v3.7a11.554,11.554,0,0,1-1.408.094,8.01,8.01,0,0,1-6.306-2.559,9.377,9.377,0,0,1-2.134-6.444V189.289h4.076V194.5h3.971l1.394,3.839h-5.365V210.16q0,5.544,5.773,5.211" transform="translate(145.51 -181.762)" fill-rule="evenodd"/><path d="M43.6,1.966h4.367l6.889,19.048H54.9L61.789,1.966h4.366l-9.073,24.4H52.667Z" transform="translate(245.601 10.773)" fill-rule="evenodd"/><path d="M200.234,225.605a12.454,12.454,0,1,1,12.748-12.451,12.6,12.6,0,0,1-12.748,12.451m-83.231,0a12.454,12.454,0,1,1,12.748-12.451A12.6,12.6,0,0,1,117,225.605m101.336-30.137a26.071,26.071,0,0,0-36.214,0l-21.7,21.194a2.6,2.6,0,0,1-3.615,0l-21.7-21.194a26.074,26.074,0,0,0-36.217,0,24.63,24.63,0,0,0,0,35.372,26.077,26.077,0,0,0,36.217,0l7.216-7.05a2.606,2.606,0,0,1,3.613.007l10.869,10.612a2.606,2.606,0,0,0,3.618,0L171.294,223.8a2.593,2.593,0,0,1,1.81-.731,2.556,2.556,0,0,1,1.8.724l7.217,7.05a26.073,26.073,0,0,0,36.214,0,24.627,24.627,0,0,0,0-35.372" transform="translate(-91.406 -188.154)" fill-rule="evenodd"/></g></g></svg>