<svg xmlns="http://www.w3.org/2000/svg" width="110.816" height="98.686" viewBox="0 0 110.816 98.686"><g transform="translate(-670.387 -273.075)"><path d="M786.816,322.429c0-7.341-9.193-14.3-23.288-18.612,3.253-14.366,1.807-25.8-4.563-29.455a9.9,9.9,0,0,0-5.059-1.265v5.037a5.23,5.23,0,0,1,2.575.587c3.072,1.762,4.4,8.47,3.365,17.1-.248,2.123-.655,4.359-1.152,6.641A109.482,109.482,0,0,0,744.351,300a110.127,110.127,0,0,0-9.4-11.294c7.364-6.844,14.276-10.594,18.974-10.594v-5.037c-6.212,0-14.344,4.427-22.565,12.107-8.222-7.635-16.354-12.017-22.565-12.017V278.2c4.676,0,11.61,3.727,18.974,10.526A106.688,106.688,0,0,0,718.442,300a105.478,105.478,0,0,0-14.366,2.485c-.52-2.259-.9-4.45-1.175-6.55-1.061-8.629.248-15.337,3.3-17.122a5.025,5.025,0,0,1,2.6-.587v-5.037a10.07,10.07,0,0,0-5.1,1.265c-6.347,3.659-7.77,15.066-4.5,29.387-14.049,4.337-23.2,11.271-23.2,18.59,0,7.341,9.193,14.3,23.288,18.612-3.253,14.366-1.807,25.8,4.563,29.455a9.931,9.931,0,0,0,5.082,1.265c6.212,0,14.343-4.427,22.565-12.107,8.222,7.635,16.354,12.017,22.565,12.017a10.07,10.07,0,0,0,5.1-1.265c6.347-3.659,7.77-15.066,4.495-29.386,14-4.314,23.153-11.272,23.153-18.59Zm-29.409-15.066c-.836,2.914-1.875,5.918-3.05,8.922-.926-1.807-1.9-3.614-2.959-5.421-1.039-1.807-2.146-3.569-3.253-5.285,3.207.474,6.3,1.062,9.261,1.784Zm-10.346,24.056c-1.762,3.05-3.568,5.941-5.443,8.629-3.366.293-6.776.452-10.21.452-3.411,0-6.822-.158-10.164-.429q-2.812-4.032-5.467-8.583c-1.717-2.959-3.275-5.963-4.7-8.99,1.4-3.027,2.982-6.054,4.676-9.013,1.762-3.049,3.568-5.941,5.443-8.629,3.366-.294,6.776-.452,10.21-.452,3.411,0,6.822.158,10.164.429q2.812,4.032,5.467,8.583c1.717,2.959,3.275,5.963,4.7,8.99C750.314,325.434,748.756,328.461,747.061,331.419Zm7.3-2.936q1.779,4.415,3.117,8.99c-2.959.723-6.076,1.333-9.306,1.807,1.107-1.739,2.213-3.523,3.253-5.353C752.46,332.12,753.431,330.29,754.357,328.483Zm-22.9,24.1a93.215,93.215,0,0,1-6.279-7.228c2.033.09,4.111.158,6.212.158,2.123,0,4.224-.045,6.28-.158A88.2,88.2,0,0,1,731.453,352.585Zm-16.805-13.3c-3.207-.474-6.3-1.062-9.261-1.784.835-2.914,1.875-5.918,3.049-8.922.926,1.807,1.9,3.614,2.959,5.421S713.541,337.563,714.648,339.28Zm16.693-47.005a93.079,93.079,0,0,1,6.279,7.228c-2.033-.09-4.111-.158-6.211-.158-2.123,0-4.224.045-6.279.158a88.2,88.2,0,0,1,6.212-7.228Zm-16.715,13.3c-1.107,1.739-2.213,3.524-3.252,5.353-1.039,1.807-2.01,3.614-2.937,5.421q-1.779-4.415-3.117-8.99C708.278,306.663,711.395,306.053,714.625,305.579Zm-20.442,28.28c-8-3.411-13.169-7.883-13.169-11.43s5.173-8.041,13.169-11.429c1.943-.836,4.066-1.581,6.257-2.282a108.481,108.481,0,0,0,5.082,13.756,106.945,106.945,0,0,0-5.015,13.688C698.272,335.463,696.148,334.695,694.183,333.859Zm12.152,32.278c-3.072-1.762-4.4-8.47-3.365-17.1.249-2.123.655-4.359,1.152-6.641a109.419,109.419,0,0,0,14.344,2.462,110.143,110.143,0,0,0,9.4,11.294c-7.364,6.844-14.276,10.594-18.974,10.594A5.388,5.388,0,0,1,706.336,366.137Zm53.579-17.212c1.061,8.628-.248,15.337-3.3,17.121a5.025,5.025,0,0,1-2.6.587c-4.676,0-11.61-3.727-18.974-10.526a106.666,106.666,0,0,0,9.329-11.272,105.483,105.483,0,0,0,14.366-2.485A63.177,63.177,0,0,1,759.914,348.925Zm8.7-15.066c-1.943.836-4.066,1.581-6.257,2.281a108.49,108.49,0,0,0-5.082-13.756,106.874,106.874,0,0,0,5.015-13.688c2.237.7,4.359,1.468,6.347,2.3,8,3.41,13.169,7.883,13.169,11.429C781.779,325.976,776.606,330.471,768.61,333.859Z" transform="translate(-5.613)" fill="#61dafb"/><path d="M725.772,1066.5a10.323,10.323,0,1,0-10.323-10.323A10.323,10.323,0,0,0,725.772,1066.5Z" transform="translate(0 -733.743)" fill="#61dafb"/></g></svg>