<svg xmlns="http://www.w3.org/2000/svg" width="112.34" height="122.527" viewBox="0 0 112.34 122.527"><g transform="translate(-670.088 -273.075)"><path d="M786.816,322.429c0-7.341-9.193-14.3-23.288-18.612,3.253-14.366,1.807-25.8-4.563-29.455a9.9,9.9,0,0,0-5.059-1.265v5.037a5.23,5.23,0,0,1,2.575.587c3.072,1.762,4.4,8.47,3.365,17.1-.248,2.123-.655,4.359-1.152,6.641A109.482,109.482,0,0,0,744.351,300a110.127,110.127,0,0,0-9.4-11.294c7.364-6.844,14.276-10.594,18.974-10.594v-5.037c-6.212,0-14.344,4.427-22.565,12.107-8.222-7.635-16.354-12.017-22.565-12.017V278.2c4.676,0,11.61,3.727,18.974,10.526A106.688,106.688,0,0,0,718.442,300a105.478,105.478,0,0,0-14.366,2.485c-.52-2.259-.9-4.45-1.175-6.55-1.061-8.629.248-15.337,3.3-17.122a5.025,5.025,0,0,1,2.6-.587v-5.037a10.07,10.07,0,0,0-5.1,1.265c-6.347,3.659-7.77,15.066-4.5,29.387-14.049,4.337-23.2,11.271-23.2,18.59,0,7.341,9.193,14.3,23.288,18.612-3.253,14.366-1.807,25.8,4.563,29.455a9.931,9.931,0,0,0,5.082,1.265c6.212,0,14.343-4.427,22.565-12.107,8.222,7.635,16.354,12.017,22.565,12.017a10.07,10.07,0,0,0,5.1-1.265c6.347-3.659,7.77-15.066,4.495-29.386,14-4.314,23.153-11.272,23.153-18.59Zm-29.409-15.066c-.836,2.914-1.875,5.918-3.05,8.922-.926-1.807-1.9-3.614-2.959-5.421-1.039-1.807-2.146-3.569-3.253-5.285,3.207.474,6.3,1.062,9.261,1.784Zm-10.346,24.056c-1.762,3.05-3.568,5.941-5.443,8.629-3.366.293-6.776.452-10.21.452-3.411,0-6.822-.158-10.164-.429q-2.812-4.032-5.467-8.583c-1.717-2.959-3.275-5.963-4.7-8.99,1.4-3.027,2.982-6.054,4.676-9.013,1.762-3.049,3.568-5.941,5.443-8.629,3.366-.294,6.776-.452,10.21-.452,3.411,0,6.822.158,10.164.429q2.812,4.032,5.467,8.583c1.717,2.959,3.275,5.963,4.7,8.99C750.314,325.434,748.756,328.461,747.061,331.419Zm7.3-2.936q1.779,4.415,3.117,8.99c-2.959.723-6.076,1.333-9.306,1.807,1.107-1.739,2.213-3.523,3.253-5.353C752.46,332.12,753.431,330.29,754.357,328.483Zm-22.9,24.1a93.215,93.215,0,0,1-6.279-7.228c2.033.09,4.111.158,6.212.158,2.123,0,4.224-.045,6.28-.158A88.2,88.2,0,0,1,731.453,352.585Zm-16.805-13.3c-3.207-.474-6.3-1.062-9.261-1.784.835-2.914,1.875-5.918,3.049-8.922.926,1.807,1.9,3.614,2.959,5.421S713.541,337.563,714.648,339.28Zm16.693-47.005a93.079,93.079,0,0,1,6.279,7.228c-2.033-.09-4.111-.158-6.211-.158-2.123,0-4.224.045-6.279.158a88.2,88.2,0,0,1,6.212-7.228Zm-16.715,13.3c-1.107,1.739-2.213,3.524-3.252,5.353-1.039,1.807-2.01,3.614-2.937,5.421q-1.779-4.415-3.117-8.99C708.278,306.663,711.395,306.053,714.625,305.579Zm-20.442,28.28c-8-3.411-13.169-7.883-13.169-11.43s5.173-8.041,13.169-11.429c1.943-.836,4.066-1.581,6.257-2.282a108.481,108.481,0,0,0,5.082,13.756,106.945,106.945,0,0,0-5.015,13.688C698.272,335.463,696.148,334.695,694.183,333.859Zm12.152,32.278c-3.072-1.762-4.4-8.47-3.365-17.1.249-2.123.655-4.359,1.152-6.641a109.419,109.419,0,0,0,14.344,2.462,110.143,110.143,0,0,0,9.4,11.294c-7.364,6.844-14.276,10.594-18.974,10.594A5.388,5.388,0,0,1,706.336,366.137Zm53.579-17.212c1.061,8.628-.248,15.337-3.3,17.121a5.025,5.025,0,0,1-2.6.587c-4.676,0-11.61-3.727-18.974-10.526a106.666,106.666,0,0,0,9.329-11.272,105.483,105.483,0,0,0,14.366-2.485A63.177,63.177,0,0,1,759.914,348.925Zm8.7-15.066c-1.943.836-4.066,1.581-6.257,2.281a108.49,108.49,0,0,0-5.082-13.756,106.874,106.874,0,0,0,5.015-13.688c2.237.7,4.359,1.468,6.347,2.3,8,3.41,13.169,7.883,13.169,11.429C781.779,325.976,776.606,330.471,768.61,333.859Z" transform="translate(-5.613)" fill="#61dafb"/><path d="M725.772,1066.5a10.323,10.323,0,1,0-10.323-10.323A10.323,10.323,0,0,0,725.772,1066.5Zm-50.353,56.782h-3.408v5.869h-1.923v-14.507h4.8a5.664,5.664,0,0,1,3.766,1.116,4.007,4.007,0,0,1,1.325,3.248,3.889,3.889,0,0,1-.737,2.362,4.34,4.34,0,0,1-2.033,1.5l3.408,6.157v.12h-2.052Zm-3.408-1.564h2.939a3.3,3.3,0,0,0,2.262-.737,2.484,2.484,0,0,0,.847-1.973,2.615,2.615,0,0,0-.807-2.062,3.381,3.381,0,0,0-2.312-.727h-2.929Zm14.846,7.632a4.719,4.719,0,0,1-3.567-1.435,5.362,5.362,0,0,1-1.375-3.856v-.339a6.481,6.481,0,0,1,.608-2.859,4.781,4.781,0,0,1,1.714-1.973,4.31,4.31,0,0,1,2.391-.718,4.037,4.037,0,0,1,3.268,1.385,6,6,0,0,1,1.166,3.965v.767h-7.3a3.865,3.865,0,0,0,.927,2.581,2.952,2.952,0,0,0,2.272.976,3.209,3.209,0,0,0,1.654-.4,4.151,4.151,0,0,0,1.186-1.056l1.126.877A4.528,4.528,0,0,1,686.857,1129.346Zm-.229-9.665a2.452,2.452,0,0,0-1.873.817,3.924,3.924,0,0,0-.937,2.272h5.4v-.14a3.49,3.49,0,0,0-.757-2.172A2.31,2.31,0,0,0,686.628,1119.681Zm13.232,9.465a3.854,3.854,0,0,1-.259-1.136,4.114,4.114,0,0,1-3.069,1.335,3.836,3.836,0,0,1-2.62-.9,2.939,2.939,0,0,1-1.016-2.292,3.039,3.039,0,0,1,1.275-2.61,6.031,6.031,0,0,1,3.607-.937h1.793v-.847a2.055,2.055,0,0,0-.578-1.535,2.312,2.312,0,0,0-1.7-.578,2.685,2.685,0,0,0-1.654.5,1.468,1.468,0,0,0-.668,1.206h-1.853a2.54,2.54,0,0,1,.568-1.555,3.943,3.943,0,0,1,1.555-1.2,5.266,5.266,0,0,1,2.162-.438,4.245,4.245,0,0,1,2.919.937,3.345,3.345,0,0,1,1.1,2.56v4.962a6.061,6.061,0,0,0,.379,2.361v.16Zm-3.059-1.4a3.239,3.239,0,0,0,1.644-.448,2.716,2.716,0,0,0,1.126-1.166v-2.212h-1.445q-3.387,0-3.388,1.982a1.679,1.679,0,0,0,.578,1.355A2.224,2.224,0,0,0,696.8,1127.742Zm11.827.1a2.656,2.656,0,0,0,1.724-.6,2.1,2.1,0,0,0,.817-1.495h1.744a3.344,3.344,0,0,1-.638,1.764,4.188,4.188,0,0,1-1.574,1.335,4.795,4.795,0,0,1-5.58-.966,5.89,5.89,0,0,1-1.3-4.026v-.308a6.487,6.487,0,0,1,.578-2.8,4.41,4.41,0,0,1,1.654-1.9,4.734,4.734,0,0,1,2.56-.678,4.305,4.305,0,0,1,3.009,1.086,3.876,3.876,0,0,1,1.285,2.819h-1.744a2.51,2.51,0,0,0-.8-1.714,2.437,2.437,0,0,0-1.754-.677,2.588,2.588,0,0,0-2.182,1.016,4.752,4.752,0,0,0-.767,2.919v.349a4.656,4.656,0,0,0,.767,2.869,2.592,2.592,0,0,0,2.192,1.007Zm8.858-12.086v2.61H719.5v1.425h-2.013v6.685a1.515,1.515,0,0,0,.269.976,1.143,1.143,0,0,0,.917.319,4.454,4.454,0,0,0,.876-.12v1.495a5.343,5.343,0,0,1-1.415.2,2.3,2.3,0,0,1-1.863-.748,3.212,3.212,0,0,1-.627-2.122v-6.685h-1.963v-1.425h1.963v-2.61Zm20.675,13.391h-1.923l-7.3-11.179v11.179H727.01v-14.507h1.923l7.323,11.229v-11.229h1.9Zm9.764,0a3.858,3.858,0,0,1-.259-1.136,4.114,4.114,0,0,1-3.069,1.335,3.835,3.835,0,0,1-2.62-.9,2.939,2.939,0,0,1-1.016-2.292,3.038,3.038,0,0,1,1.275-2.61,6.031,6.031,0,0,1,3.607-.937h1.793v-.847a2.053,2.053,0,0,0-.578-1.535,2.309,2.309,0,0,0-1.7-.578,2.685,2.685,0,0,0-1.654.5,1.468,1.468,0,0,0-.668,1.206h-1.853a2.54,2.54,0,0,1,.568-1.555,3.944,3.944,0,0,1,1.555-1.2,5.266,5.266,0,0,1,2.162-.438,4.246,4.246,0,0,1,2.919.937,3.345,3.345,0,0,1,1.1,2.56v4.962a6.059,6.059,0,0,0,.379,2.361v.16Zm-3.059-1.4a3.239,3.239,0,0,0,1.644-.448,2.716,2.716,0,0,0,1.126-1.166v-2.212H746.19q-3.387,0-3.388,1.982a1.679,1.679,0,0,0,.578,1.355A2.223,2.223,0,0,0,744.865,1127.742Zm10-11.986v2.61h2.013v1.425h-2.013v6.685a1.515,1.515,0,0,0,.269.976,1.143,1.143,0,0,0,.917.319,4.462,4.462,0,0,0,.877-.12v1.495a5.349,5.349,0,0,1-1.415.2,2.3,2.3,0,0,1-1.863-.748,3.212,3.212,0,0,1-.627-2.122v-6.685h-1.963v-1.425h1.963v-2.61Zm6.178,13.391H759.2v-10.781h1.844Zm-1.993-13.641a1.113,1.113,0,0,1,.269-.757,1.236,1.236,0,0,1,1.634,0,1.09,1.09,0,0,1,.279.757,1.144,1.144,0,0,1-1.913.748A1.076,1.076,0,0,1,759.053,1115.506Zm8.509,11.14,2.67-8.28h1.883l-3.866,10.781h-1.405l-3.905-10.781h1.883Zm10.661,2.7a4.719,4.719,0,0,1-3.567-1.435,5.361,5.361,0,0,1-1.375-3.856v-.339a6.483,6.483,0,0,1,.608-2.859,4.778,4.778,0,0,1,1.714-1.973,4.311,4.311,0,0,1,2.391-.718,4.038,4.038,0,0,1,3.268,1.385,6,6,0,0,1,1.166,3.965v.767h-7.3a3.865,3.865,0,0,0,.927,2.581,2.951,2.951,0,0,0,2.271.976,3.211,3.211,0,0,0,1.654-.4,4.158,4.158,0,0,0,1.186-1.056l1.126.877A4.528,4.528,0,0,1,778.223,1129.346Zm-.229-9.665a2.452,2.452,0,0,0-1.873.817,3.92,3.92,0,0,0-.936,2.272h5.4v-.14a3.49,3.49,0,0,0-.757-2.172,2.309,2.309,0,0,0-1.833-.777Z" transform="translate(0 -733.743)" fill="#61dafb"/></g></svg>