<svg xmlns="http://www.w3.org/2000/svg" xmlns:xlink="http://www.w3.org/1999/xlink" width="188.564" height="59.008" viewBox="0 0 188.564 59.008"><defs><clipPath id="a"><rect width="188.564" height="59.008" fill="#fff"/></clipPath></defs><g clip-path="url(#a)"><path d="M167.025,30.642c0-6.584,4.877-10.4,10.973-10.4,4.552,0,8.615,2.195,10.566,7.64-.569,2.763-3.983,5.852-5.446,6.34-1.219-2.6-2.6-4.145-3.9-4.145-1.625,0-1.707,1.138-1.707,2.6a27.482,27.482,0,0,0,.654,4.4A51.593,51.593,0,0,1,179.38,46.9c0,6.5-4.551,11.3-11.541,11.3-6.4,0-9.937-4.2-11.515-10.9-4.181,7.492-10.3,10.9-14.981,10.9-7.326,0-9.05-5.415-8.877-10.907-2.944,5.2-8.61,10.907-14.044,10.907-5.547,0-7.507-4.828-7.057-10.452-3.324,6.191-9.336,10.452-15.132,10.452-6.289,0-9.4-5-8.395-11.189-4.231,5.2-12.107,11.189-20.3,11.189-9.337,0-13.4-5.035-13.883-11.344-4.506,7.222-10.581,11.588-17.816,11.588-10.444,0-14.18-9.288-14.723-16.885C17.249,46.738,12.9,52.115,7.559,58.113a2.368,2.368,0,0,1-1.626.894C4.064,59.008.244,50.717,0,47.629c1.6-2.489,11.716-13.6,19.857-22.543,2.862-3.144,5.48-6.021,7.4-8.161-4.986,1.5-10.126,4.5-16.609,9.166C9.509,26.9,6.34,19.507,6.421,13.817,13.9,8.29,25.277,4.8,34.462,4.8,47.3,4.8,54.7,11.948,54.7,21.864c0,8.29-6.909,17.393-16.987,17.719A10.657,10.657,0,0,1,27.4,33.144c.205,5.618,3.126,12.534,10.967,12.534,8.548,0,12.652-5.16,18.774-12.855q.6-.75,1.22-1.531c5.2-6.421,11.216-12.11,19.994-12.11,5.364,0,9.022,3.332,9.022,8.372,0,6.1-7.153,14.549-17.15,14.549a14.412,14.412,0,0,1-4.578-.67,5.919,5.919,0,0,0-.055.751c0,2.845,1.057,4.551,5.69,4.551,6.827,0,13.248-4.064,21.051-13.573,7.64-9.347,13.411-13.411,19.507-13.411a8.764,8.764,0,0,1,8.614,5.986c8.17-11.8,15.1-20.16,20.971-25.737,5.771,2.438,9.916,7.234,8.778,8.209-4.308,3.9-18.694,19.588-24.383,28.935-1.463,2.438-2.845,5.121-2.845,6.421a1.432,1.432,0,0,0,1.544,1.626c3.905,0,11.732-9.22,18.491-17.182,2.525-2.974,4.9-5.773,6.868-7.851,4.552,1.869,9.184,5.852,8.047,7.234-6.015,7.152-10.566,13-10.566,16.337,0,.894.325,1.463,1.544,1.463,2.276,0,4.389-2.032,7.884-6.34.731-.894,1.625-.894,2.194.488,1.544,3.739,3.82,5.771,5.608,5.771,2.113,0,3.17-1.869,3.17-4.714,0-1.944-.237-4.2-.441-6.151C167.161,32.773,167.025,31.481,167.025,30.642Zm-131.1-1.057c4.308,0,9.022-2.357,9.022-7.152,0-2.91-1.806-5.593-6.633-6.41l-.759,1.186c-2.453,3.834-4.766,7.451-7.1,10.986A10.891,10.891,0,0,0,35.925,29.585ZM79.49,31.048a2.027,2.027,0,0,0-2.113-2.194c-3.261,0-8.179,4.576-10.494,9a8.192,8.192,0,0,0,2.935.514C75.588,38.363,79.49,33.974,79.49,31.048Zm21.376,11.785a2.248,2.248,0,0,0,2.519,2.438c5.283,0,11.867-9.591,11.867-13.492a2.293,2.293,0,0,0-2.357-2.6C108.1,29.179,100.866,38.282,100.866,42.833Zm67.866-29.341a51.705,51.705,0,0,1-5.771,7.64c-4.877-2.032-9.428-6.1-8.778-7.234a43.192,43.192,0,0,1,5.771-7.64C164.83,8.291,169.382,12.436,168.731,13.492Z" fill="#ff4438" fill-rule="evenodd"/></g></svg>