<svg xmlns="http://www.w3.org/2000/svg" width="59.326" height="50" viewBox="0 0 59.326 50"><g transform="translate(0 -19.884)"><path d="M53.6,51.26A18.075,18.075,0,0,0,17.79,49.936H15.729A12.92,12.92,0,0,0,2.81,62.855h0A12.919,12.919,0,0,0,15.729,75.775H47.9A12.919,12.919,0,0,0,60.818,62.855h0A12.919,12.919,0,0,0,53.6,51.26Z" transform="translate(-2.151 -11.511)" fill="#69e3ff"/><path d="M121.933,39.452h0a1.186,1.186,0,0,0,0-2.19,1.384,1.384,0,0,1-.749-1.808l.9-2.177a1.387,1.387,0,0,1,1.81-.749,1.183,1.183,0,0,0,1.546-1.546,1.384,1.384,0,0,1,.749-1.808l2.177-.9a1.388,1.388,0,0,1,1.81.749,1.186,1.186,0,0,0,2.19,0,1.384,1.384,0,0,1,1.808-.749l2.177.9a1.384,1.384,0,0,1,.749,1.808,1.183,1.183,0,0,0,1.546,1.546,1.384,1.384,0,0,1,1.808.749l.9,2.177a1.384,1.384,0,0,1-.749,1.808,1.186,1.186,0,0,0,0,2.19,1.387,1.387,0,0,1,.749,1.81l-.9,2.177a1.384,1.384,0,0,1-1.808.749,1.183,1.183,0,0,0-1.546,1.546,1.387,1.387,0,0,1-.749,1.81l-2.177.9a1.37,1.37,0,0,1-.531.105,1.419,1.419,0,0,1-.531-.105,1.374,1.374,0,0,1-.749-.749,1.16,1.16,0,0,0-1.095-.731h0a1.162,1.162,0,0,0-1.095.731,1.387,1.387,0,0,1-1.81.749l-2.177-.9a1.387,1.387,0,0,1-.749-1.81,1.183,1.183,0,0,0-1.546-1.546,1.388,1.388,0,0,1-1.808-.751l-.9-2.177A1.385,1.385,0,0,1,121.933,39.452Zm9.341,2.728a3.823,3.823,0,1,0-3.823-3.823A3.828,3.828,0,0,0,131.275,42.18Z" transform="translate(-93.958 -7.621)" fill="#f9f9f9"/><path d="M101.119,139.918H96.593a.659.659,0,0,1-.659-.659V130.31a.659.659,0,0,1,.659-.659h4.527a.659.659,0,1,1,0,1.318H97.252V138.6h3.867a.659.659,0,0,1,0,1.318Z" transform="translate(-73.429 -84.018)"/><path d="M99.747,150.043H96.593a.659.659,0,0,1,0-1.318h3.154a.659.659,0,1,1,0,1.318Z" transform="translate(-73.429 -98.617)"/><path d="M60,135.443H56.924a.659.659,0,0,1-.659-.659V130.31a.659.659,0,0,1,.659-.659H60a2.373,2.373,0,0,1,2.37,2.37v1.053A2.373,2.373,0,0,1,60,135.443Zm-2.422-1.318H60a1.053,1.053,0,0,0,1.052-1.052V132.02A1.053,1.053,0,0,0,60,130.968H57.583Z" transform="translate(-43.066 -84.018)"/><path d="M61.716,154.518a.659.659,0,0,1-.659-.659V151.1A1.053,1.053,0,0,0,60,150.043H57.583v3.815a.659.659,0,1,1-1.318,0v-4.474a.659.659,0,0,1,.659-.659H60a2.373,2.373,0,0,1,2.37,2.37v2.763A.659.659,0,0,1,61.716,154.518Z" transform="translate(-43.066 -98.617)"/><path d="M173.255,130.969H167.61a.659.659,0,1,1,0-1.318h5.645a.659.659,0,0,1,0,1.318Z" transform="translate(-127.787 -84.018)"/><path d="M179.639,139.918a.659.659,0,0,1-.659-.659V130.31a.659.659,0,0,1,1.318,0v8.949A.659.659,0,0,1,179.639,139.918Z" transform="translate(-136.994 -84.018)"/><path d="M134.561,139.922h-.83a2.436,2.436,0,0,1-2.467-2.4.659.659,0,1,1,1.318,0,1.117,1.117,0,0,0,1.149,1.08h.83a1.211,1.211,0,0,0,1.245-1.171v-.813a1.211,1.211,0,0,0-1.245-1.171h-.734a2.53,2.53,0,0,1-2.564-2.49v-.813a2.53,2.53,0,0,1,2.564-2.49h.83a2.436,2.436,0,0,1,2.467,2.4.659.659,0,1,1-1.318,0,1.117,1.117,0,0,0-1.148-1.079h-.83a1.212,1.212,0,0,0-1.245,1.171v.813a1.212,1.212,0,0,0,1.245,1.171h.734a2.53,2.53,0,0,1,2.563,2.49v.813A2.53,2.53,0,0,1,134.561,139.922Z" transform="translate(-100.471 -84.022)"/><path d="M85.773,199.524a.659.659,0,0,1-.659-.659v-7.02a1.272,1.272,0,0,0-1.27-1.271h-1.7a1.272,1.272,0,0,0-1.27,1.271v7.019a.659.659,0,1,1-1.318,0v-7.019a2.592,2.592,0,0,1,2.589-2.589h1.7a2.592,2.592,0,0,1,2.589,2.589v7.019A.66.66,0,0,1,85.773,199.524Z" transform="translate(-60.896 -129.641)"/><path d="M85.771,209.652H80.216a.659.659,0,0,1,0-1.318h5.555a.659.659,0,0,1,0,1.318Z" transform="translate(-60.894 -144.243)"/><path d="M163.614,199.526a.659.659,0,0,1-.659-.659v-8.949a.659.659,0,1,1,1.318,0v8.949A.659.659,0,0,1,163.614,199.526Z" transform="translate(-124.728 -129.643)"/><path d="M127.367,195.6h-3.276a.659.659,0,0,1-.659-.659v-5.02a.659.659,0,0,1,.659-.659h3.276a2.406,2.406,0,0,1,2.4,2.4v1.532A2.407,2.407,0,0,1,127.367,195.6Zm-2.618-1.318h2.617a1.086,1.086,0,0,0,1.084-1.085v-1.532a1.086,1.086,0,0,0-1.084-1.085H124.75Z" transform="translate(-94.477 -129.643)"/><path d="M124.088,215.9a.659.659,0,0,1-.659-.659v-3.929a.659.659,0,1,1,1.318,0v3.929A.659.659,0,0,1,124.088,215.9Z" transform="translate(-94.475 -146.021)"/><path d="M192.866,110.651a.659.659,0,1,1,0-1.318,12.26,12.26,0,0,0,5.407-23.263.658.658,0,0,1-.365-.529,17.336,17.336,0,0,0-1.247-5,.659.659,0,0,1,1.218-.506,18.664,18.664,0,0,1,1.3,5.019,13.578,13.578,0,0,1-6.316,25.6Z" transform="translate(-147.118 -45.729)"/><path d="M13.578,83.209a13.578,13.578,0,1,1,0-27.156h1.513a18.757,18.757,0,0,1,8.449-12.178.659.659,0,1,1,.7,1.118,17.436,17.436,0,0,0-7.95,11.83.66.66,0,0,1-.65.548H13.578a12.26,12.26,0,1,0,0,24.519.659.659,0,1,1,0,1.318Z" transform="translate(0 -18.287)"/><path d="M131.493,47.054a2.047,2.047,0,0,1-.782-.156,2.023,2.023,0,0,1-1.105-1.105.523.523,0,0,0-.969,0,2.047,2.047,0,0,1-2.669,1.105l-2.18-.9a2.046,2.046,0,0,1-1.105-2.669.526.526,0,0,0-.687-.687,2.053,2.053,0,0,1-2.672-1.105l-.9-2.177a2.045,2.045,0,0,1,1.105-2.669h0a.524.524,0,0,0,0-.969,2.043,2.043,0,0,1-1.105-2.669l.9-2.177A2.049,2.049,0,0,1,122,29.766a.526.526,0,0,0,.687-.687,2.043,2.043,0,0,1,1.105-2.669l2.177-.9a2.051,2.051,0,0,1,2.672,1.105.525.525,0,0,0,.969,0A2.045,2.045,0,0,1,132.28,25.5l2.177.9a2.043,2.043,0,0,1,1.108,1.105,2.018,2.018,0,0,1,0,1.564.525.525,0,0,0,.685.687,2.045,2.045,0,0,1,2.672,1.108l.9,2.177a2.018,2.018,0,0,1,0,1.564,2.04,2.04,0,0,1-1.108,1.108.524.524,0,0,0,0,.969,2.047,2.047,0,0,1,1.105,2.672l-.9,2.177a2.015,2.015,0,0,1-1.105,1.105,2.041,2.041,0,0,1-1.564,0,.523.523,0,0,0-.685.685A2.045,2.045,0,0,1,134.46,46l-2.177.9A2.112,2.112,0,0,1,131.493,47.054Zm-2.372-2.905a1.818,1.818,0,0,1,1.7,1.139.726.726,0,0,0,.949.392l2.177-.9a.727.727,0,0,0,.392-.949,1.844,1.844,0,0,1,2.408-2.41.726.726,0,0,0,.949-.392l.9-2.177a.724.724,0,0,0-.392-.946,1.842,1.842,0,0,1,0-3.405.726.726,0,0,0,.392-.949l-.9-2.177a.726.726,0,0,0-.949-.392,1.842,1.842,0,0,1-2.408-2.408.726.726,0,0,0-.392-.949l-2.177-.9a.722.722,0,0,0-.556,0,.71.71,0,0,0-.392.392,1.843,1.843,0,0,1-3.405,0,.727.727,0,0,0-.949-.392l-2.177.9a.726.726,0,0,0-.392.949,1.844,1.844,0,0,1-2.41,2.408.727.727,0,0,0-.949.392l-.9,2.177a.724.724,0,0,0,.392.946,1.844,1.844,0,0,1,0,3.408l-.251-.608.251.608a.727.727,0,0,0-.392.949l.9,2.177a.728.728,0,0,0,.949.392,1.843,1.843,0,0,1,2.408,2.408.727.727,0,0,0,.392.949l2.177.9a.727.727,0,0,0,.949-.392A1.821,1.821,0,0,1,129.121,44.148Zm0-3.467A4.482,4.482,0,1,1,133.6,36.2,4.487,4.487,0,0,1,129.121,40.682Zm0-7.646a3.164,3.164,0,1,0,3.164,3.164A3.168,3.168,0,0,0,129.121,33.035Z" transform="translate(-91.804 -5.464)"/></g></svg>