<svg xmlns="http://www.w3.org/2000/svg" width="55.241" height="16.365" viewBox="0 0 55.241 16.365"><path d="M43.294,297.664H38.438l-3.859-5.348h-1.3v5.34H29V281.61h6.128c3.534,0,6.421,2.4,6.421,5.362a5.215,5.215,0,0,1-2.786,4.4l4.528,6.292m-6.017-10.7a2.683,2.683,0,0,0-2.674-2.694h-1.32v5.366H34.6a2.681,2.681,0,0,0,2.67-2.672Z" transform="translate(-29 -281.61)" fill="#662d91"/><path d="M154.879,317.033a6.557,6.557,0,1,1-1.936-4.639,6.574,6.574,0,0,1,1.936,4.639m-6.589-3.44c-1.134,0-2.093,1.541-2.093,3.44s.958,3.438,2.093,3.438c1.155,0,2.117-1.538,2.117-3.437S149.449,313.594,148.29,313.594Z" transform="translate(-129.169 -307.271)" fill="#662d91"/><path d="M276.413,312.773l-4.931,4.933V312.76H267.2v12.57h4.282v-5.1l5.149,5.1h5.384l-6.541-6.544,5.42-5.418v7.466c0,2.479,1.486,4.762,5.237,4.762a5.939,5.939,0,0,0,4.206-1.923l1.927,1.659h.911V312.773h-4.27v8.134a2.4,2.4,0,0,1-2.192,1.372c-1.055,0-1.538-.626-1.538-2.622v-6.884Z" transform="translate(-240.658 -309.289)" fill="#662d91"/><path d="M510.426,312.792a.846.846,0,1,1,.846-.846A.846.846,0,0,1,510.426,312.792Zm0-1.608a.762.762,0,1,0,.762.762A.762.762,0,0,0,510.426,311.184Z" transform="translate(-456.031 -307.814)" fill="#662d91"/><path d="M513.9,314.835h.382a.341.341,0,0,1,.247.086.259.259,0,0,1,.071.185h0a.256.256,0,0,1-.2.26l.232.325h-.178l-.212-.3h-.188v.3H513.9Zm.371.426c.111,0,.176-.057.176-.144h0c0-.092-.066-.143-.177-.143h-.223v.289Z" transform="translate(-459.87 -311.132)" fill="#662d91"/></svg>