<svg xmlns="http://www.w3.org/2000/svg" xmlns:xlink="http://www.w3.org/1999/xlink" width="19.365" height="19.365" viewBox="0 0 19.365 19.365"><defs><radialGradient id="a" cx="0.502" cy="0.427" r="0.543" gradientUnits="objectBoundingBox"><stop offset="0" stop-color="#06c2e7"/><stop offset="0.25" stop-color="#0db8ec"/><stop offset="0.5" stop-color="#12aef1"/><stop offset="0.75" stop-color="#1f86f9"/><stop offset="1" stop-color="#107ddd"/></radialGradient></defs><path d="M342.464,192.789a9.683,9.683,0,1,1-9.683-9.683A9.683,9.683,0,0,1,342.464,192.789Z" transform="translate(-323.098 -183.106)" fill="url(#a)"/><path d="M14.913,4.017a.141.141,0,0,0-.141.141V5.786a.141.141,0,1,0,.282,0V4.158a.141.141,0,0,0-.141-.141Zm-.924.058a.129.129,0,0,0-.029,0,.141.141,0,0,0-.126.155l.071.681a.141.141,0,1,0,.281-.029L14.116,4.2a.141.141,0,0,0-.126-.126Zm1.854,0a.141.141,0,0,0-.126.126l-.072.681a.141.141,0,0,0,.281.03L16,4.231a.141.141,0,0,0-.126-.155h-.029Zm-2.8.137a.144.144,0,0,0-.029,0,.141.141,0,0,0-.109.167l.337,1.593a.141.141,0,0,0,.276-.058L13.18,4.325a.141.141,0,0,0-.139-.112Zm3.751,0a.141.141,0,0,0-.139.112l-.338,1.593a.141.141,0,1,0,.276.059l.338-1.593a.141.141,0,0,0-.109-.167l-.029,0Zm-4.656.254a.137.137,0,0,0-.056.007.141.141,0,0,0-.091.178L12.2,5.3a.141.141,0,1,0,.269-.087l-.212-.651a.141.141,0,0,0-.122-.1Zm5.557,0a.141.141,0,0,0-.122.1l-.212.651a.141.141,0,0,0,.269.087l.212-.651a.141.141,0,0,0-.146-.184ZM11.24,4.8a.142.142,0,0,0-.126.2l.661,1.488a.141.141,0,0,0,.258-.115L11.372,4.88A.141.141,0,0,0,11.24,4.8Zm7.357,0a.141.141,0,0,0-.132.084L17.8,6.371a.141.141,0,0,0,.258.115L18.724,5a.142.142,0,0,0-.126-.2Zm-8.188.435a.141.141,0,0,0-.132.212l.342.593a.141.141,0,0,0,.245-.141l-.342-.593a.141.141,0,0,0-.112-.07Zm9.008,0a.14.14,0,0,0-.112.07l-.343.593a.141.141,0,0,0,.245.141l.342-.593a.141.141,0,0,0-.132-.212Zm-9.815.5a.141.141,0,0,0-.109.224l.956,1.318a.141.141,0,1,0,.229-.166L9.721,5.8A.141.141,0,0,0,9.6,5.739Zm10.632.007a.141.141,0,0,0-.119.058l-.958,1.317a.141.141,0,0,0,.228.166l.958-1.317a.141.141,0,0,0-.109-.224Zm-11.353.6a.141.141,0,0,0-.112.236l.458.509a.141.141,0,1,0,.21-.189L8.979,6.39a.141.141,0,0,0-.1-.047Zm12.066,0a.141.141,0,0,0-.1.047l-.458.509a.141.141,0,1,0,.21.189l.458-.509a.141.141,0,0,0-.112-.236ZM8.19,7.008a.141.141,0,0,0-.087.246l1.21,1.089a.141.141,0,0,0,.189-.21L8.291,7.044a.141.141,0,0,0-.1-.036Zm13.452,0a.14.14,0,0,0-.1.036L20.329,8.137a.141.141,0,1,0,.189.21l1.211-1.089a.141.141,0,0,0-.087-.246ZM7.615,7.747A.141.141,0,0,0,7.527,8l.554.4a.141.141,0,0,0,.166-.228l-.554-.4a.141.141,0,0,0-.078-.027Zm14.6.005a.141.141,0,0,0-.078.027l-.554.4a.141.141,0,1,0,.166.229l.554-.4a.141.141,0,0,0-.088-.255ZM7.077,8.535a.141.141,0,0,0-.061.263l1.41.814a.141.141,0,0,0,.141-.245l-1.41-.814a.141.141,0,0,0-.08-.019Zm15.672,0a.14.14,0,0,0-.08.019l-1.41.814a.141.141,0,0,0,.141.245L22.81,8.8a.141.141,0,0,0-.061-.263Zm-16.078.84a.141.141,0,0,0-.06.27l.626.279a.141.141,0,1,0,.115-.258l-.626-.279A.141.141,0,0,0,6.671,9.376Zm16.487.006a.141.141,0,0,0-.055.012l-.626.279a.141.141,0,1,0,.115.258l.626-.279a.141.141,0,0,0-.06-.27Zm-16.849.873a.141.141,0,0,0-.032.275l1.548.5a.141.141,0,0,0,.087-.268l-1.548-.5a.141.141,0,0,0-.056-.007Zm17.21.006a.137.137,0,0,0-.056.007l-1.549.5a.141.141,0,1,0,.087.269l1.549-.5a.141.141,0,0,0-.031-.275Zm-17.436.916a.141.141,0,0,0-.03.279l.67.142a.141.141,0,0,0,.059-.276l-.67-.142a.138.138,0,0,0-.029,0Zm17.66,0-.028,0-.67.142a.141.141,0,0,0,.059.276l.67-.142a.141.141,0,0,0-.03-.279ZM5.913,12.1a.141.141,0,0,0,0,.281l1.619.171a.141.141,0,0,0,.03-.281L5.942,12.1H5.913Zm18,.012a.129.129,0,0,0-.029,0l-1.62.169a.141.141,0,1,0,.029.281l1.62-.169a.141.141,0,0,0,0-.281Zm-18.03.937a.141.141,0,0,0,0,.282H6.57a.141.141,0,1,0,0-.282Zm17.371,0a.141.141,0,1,0,0,.282h.685a.141.141,0,1,0,0-.282Zm-15.7.77a.129.129,0,0,0-.029,0l-1.62.169a.141.141,0,0,0,.029.281L7.56,14.1a.141.141,0,0,0,0-.281Zm14.708.01a.141.141,0,0,0,0,.281l1.619.171a.141.141,0,1,0,.03-.281L22.3,13.833h-.029Zm-15.515.954-.029,0-.67.142a.141.141,0,0,0,.059.276l.67-.142a.141.141,0,0,0-.03-.279Zm16.323,0a.141.141,0,0,0-.03.279l.67.142a.141.141,0,1,0,.059-.276l-.67-.142a.138.138,0,0,0-.029,0ZM7.88,15.344a.137.137,0,0,0-.056.007l-1.549.5a.141.141,0,0,0,.087.269l1.549-.5a.141.141,0,0,0-.032-.275Zm14.065,0a.141.141,0,0,0-.032.275l1.548.5a.141.141,0,0,0,.087-.268L22,15.356a.141.141,0,0,0-.056-.007Zm-14.656,1.1a.141.141,0,0,0-.055.012l-.626.279A.141.141,0,1,0,6.723,17l.626-.279a.141.141,0,0,0-.06-.27Zm15.246.005a.141.141,0,0,0-.06.27L23.1,17a.141.141,0,1,0,.115-.258l-.626-.279a.141.141,0,0,0-.055-.012Zm-14.028.306a.14.14,0,0,0-.08.019l-1.41.814a.141.141,0,0,0,.141.245l1.41-.814a.141.141,0,0,0-.061-.263Zm12.812,0a.141.141,0,0,0-.061.263l1.41.814a.141.141,0,1,0,.141-.245l-1.41-.814a.141.141,0,0,0-.08-.019ZM8.156,17.953a.141.141,0,0,0-.078.027l-.554.4a.141.141,0,1,0,.166.229l.554-.4a.141.141,0,0,0-.088-.256Zm13.512,0a.141.141,0,0,0-.088.255l.554.4a.141.141,0,0,0,.166-.228l-.554-.4a.141.141,0,0,0-.078-.027Zm-12.256.049a.14.14,0,0,0-.1.036L8.1,19.131a.141.141,0,0,0,.189.21L9.5,18.252a.141.141,0,0,0-.087-.246Zm11,0a.141.141,0,0,0-.087.246l1.21,1.089a.141.141,0,1,0,.189-.21l-1.21-1.089a.141.141,0,0,0-.1-.036ZM10.56,19.044a.141.141,0,0,0-.119.058l-.958,1.317a.141.141,0,1,0,.228.166l.958-1.317a.141.141,0,0,0-.109-.224Zm8.7.006a.141.141,0,0,0-.11.224l.956,1.318a.141.141,0,1,0,.229-.166l-.956-1.318a.141.141,0,0,0-.119-.058Zm-9.935.2a.141.141,0,0,0-.1.047l-.458.509a.141.141,0,1,0,.21.189l.458-.509a.141.141,0,0,0-.112-.236Zm11.179,0a.141.141,0,0,0-.112.236l.458.509a.141.141,0,1,0,.21-.189L20.6,19.3a.141.141,0,0,0-.1-.047Zm-8.6.565a.14.14,0,0,0-.132.084L11.1,21.39a.141.141,0,0,0,.258.115l.663-1.487a.141.141,0,0,0-.126-.2Zm6.022,0a.141.141,0,0,0-.126.2l.661,1.488a.141.141,0,0,0,.258-.115l-.661-1.488a.141.141,0,0,0-.132-.084Zm-7.188.456a.14.14,0,0,0-.112.07l-.342.593a.141.141,0,0,0,.245.141l.342-.593a.141.141,0,0,0-.132-.212Zm8.363,0a.141.141,0,0,0-.132.212l.342.593a.141.141,0,0,0,.245-.141l-.342-.593a.141.141,0,0,0-.112-.07Zm-5.72.021a.141.141,0,0,0-.139.112L12.9,22a.141.141,0,0,0,.276.059l.338-1.593A.141.141,0,0,0,13.4,20.3a.138.138,0,0,0-.029,0Zm3.072,0-.028,0a.141.141,0,0,0-.109.167l.337,1.593a.141.141,0,0,0,.276-.058l-.337-1.593a.141.141,0,0,0-.139-.112Zm-1.534.161a.141.141,0,0,0-.141.141v1.628a.141.141,0,1,0,.282,0V20.6A.141.141,0,0,0,14.913,20.462Zm-2.591.526a.141.141,0,0,0-.122.1l-.212.651a.141.141,0,1,0,.269.087l.212-.651a.141.141,0,0,0-.146-.184Zm5.182,0a.137.137,0,0,0-.056.006.141.141,0,0,0-.091.178l.212.651a.141.141,0,0,0,.269-.087l-.212-.651a.141.141,0,0,0-.122-.1Zm-3.476.363a.141.141,0,0,0-.127.126l-.072.681a.141.141,0,0,0,.281.029l.072-.681a.141.141,0,0,0-.126-.155h-.029Zm1.767,0a.129.129,0,0,0-.029,0,.141.141,0,0,0-.126.155l.071.681a.141.141,0,0,0,.281-.029l-.071-.681a.141.141,0,0,0-.126-.126Z" transform="translate(-5.231 -3.512)" fill="#f4f2f3"/><path d="M139.923,35.367,132.2,39.855l-4.883,7.688,7.144-5.292Z" transform="translate(-123.624 -31.331)" opacity="0.409"/><path d="M32,19.775l-2.214-2.318,7.853-5.283Z" transform="translate(-21.207 -8.933)" fill="#ff5150"/><path d="M20.821,30.244l-2.214-2.318-5.64,7.6Z" transform="translate(-10.031 -19.402)" fill="#f1f1f1"/><path d="M12.967,25.058l7.853-5.283,5.64-7.6Z" transform="translate(-10.031 -8.933)" opacity="0.243"/></svg>