<svg xmlns="http://www.w3.org/2000/svg" width="326.454" height="50" viewBox="0 0 326.454 50"><path d="M-379.669-26.9v6.806h4.784v6.753a8.547,8.547,0,0,1-.122,1.775c-.19,1.26-1.387,3.4-4.782,3.4-3.375,0-4.55-2.145-4.754-3.4a11.578,11.578,0,0,1-.122-1.775v-21.33a9.556,9.556,0,0,1,.211-2.205c.232-1.137,1.239-3.379,4.64-3.379,3.57,0,4.461,2.363,4.665,3.379a12.364,12.364,0,0,1,.142,1.8v2.59h11.753v-1.531a27.776,27.776,0,0,0-.089-3.089c-.883-8.755-8.1-11.524-16.368-11.524-8.286,0-15.353,2.8-16.383,11.524-.093.8-.235,2.234-.235,3.089V-14.4a26.7,26.7,0,0,0,.186,3.078C-395.375-2.8-388,.214-379.744.214c8.3,0,15.632-3.018,16.412-11.532.138-1.562.153-2.223.171-3.078V-26.9ZM-460.71-47.374h-11.8v34.525a8.223,8.223,0,0,1-.1,1.773A4.209,4.209,0,0,1-477.1-7.687a4.186,4.186,0,0,1-4.45-3.389,7.544,7.544,0,0,1-.118-1.773V-47.374h-11.8v33.454c-.015.862.053,2.624.1,3.086C-492.551-2.118-485.68.713-477.1.713c8.6,0,15.462-2.83,16.292-11.548a24.4,24.4,0,0,0,.1-3.086Zm-108.448,0-5.888,36.481-5.884-36.481h-19.039l-1.01,46.669h11.664l.316-43.2,8.025,43.2h11.834l8.032-43.2.317,43.2H-549.1l-1.044-46.669Zm-70.492,0L-648.295-.705h12.607l6.515-43.2,6.358,43.2H-610.3l-8.609-46.669ZM-419.46-9.8l-10.99-37.574h-17.319V-1.192h11.457l-.665-38.776,11.8,38.776h16.61V-47.374H-420.1ZM-525.433-35.229a6.264,6.264,0,0,1-.04-2.413c.334-1.494,1.338-3.123,4.229-3.123a3.939,3.939,0,0,1,4.276,4.2v2.854h11.506v-3.253c0-10.056-9.015-11.635-15.542-11.635-8.221,0-14.934,2.71-16.16,10.276a15.578,15.578,0,0,0,.112,6.219c2,9.434,18.423,12.171,20.807,18.137a6.307,6.307,0,0,1,.086,3.421c-.357,1.553-1.4,3.114-4.5,3.114-2.9,0-4.652-1.67-4.652-4.186l0-4.479H-537.7v3.56c0,10.316,8.081,13.429,16.783,13.429,8.335,0,15.22-2.848,16.324-10.569a22.735,22.735,0,0,0-.082-7.566c-1.929-9.676-19.435-12.587-20.76-17.988m-151.777-.114a5.8,5.8,0,0,1-.047-2.452c.319-1.487,1.329-3.145,4.271-3.145a3.988,3.988,0,0,1,4.337,4.239v2.888h11.641v-3.279c0-10.152-9.153-11.77-15.752-11.77-8.29,0-15.063,2.752-16.3,10.373a16.123,16.123,0,0,0,.093,6.29c2.021,9.541,18.607,12.3,21.02,18.338a6.024,6.024,0,0,1,.091,3.446c-.383,1.569-1.436,3.153-4.558,3.153-2.915,0-4.659-1.7-4.659-4.249L-677.091-16h-12.523v3.569c0,10.434,8.195,13.572,16.966,13.572,8.432,0,15.357-2.873,16.486-10.684a23.193,23.193,0,0,0-.049-7.639c-1.97-9.795-19.67-12.7-21-18.159" transform="translate(689.614 48.861)" fill="#1428a0"/></svg>