<svg xmlns="http://www.w3.org/2000/svg" width="161.735" height="144.406" viewBox="0 0 161.735 144.406"><path d="M123.085,136.422c-19.065,10.966-45.279,12.093-71.653.838A111.926,111.926,0,0,1,1,94.285a85.04,85.04,0,0,0,18.627,11.308c27.237,12.711,54.468,11.841,73.631.032C66,84.816,42.8,57.64,25.535,35.476c-3.636-3.619-6.362-8.143-9.088-12.215,20.9,19,54.067,42.975,65.877,49.763-24.985-26.24-47.249-58.81-46.342-57.907,39.528,39.81,76.331,62.43,76.331,62.43,1.218.684,2.157,1.253,2.913,1.762a59.459,59.459,0,0,0,2.084-6.285C123.669,49.953,116.4,23.713,100.5,2c36.8,22.166,58.61,63.784,49.52,98.619q-.355,1.41-.772,2.778c18.171,22.62,13.493,46.985,11.222,42.462C150.611,126.652,132.362,132.525,123.085,136.422Z" transform="translate(-1 -2)" fill="#ea602e"/></svg>