<svg xmlns="http://www.w3.org/2000/svg" width="90.539" height="90.539" viewBox="0 0 90.539 90.539"><path d="M69.027,6.727a45.281,45.281,0,0,1-39.276,81.08l-.517-.192.842-.27,1.082-.355.534-.178h0l.529-.179,1.044-.36,1.025-.362,1.006-.364.987-.367.486-.184.958-.37q1.518-.595,2.937-1.2l.7-.3.863-.383q.569-.256,1.12-.515l.548-.259.805-.391.4-.2h0l.391-.2.767-.4C52.7,77.4,57.074,73.732,59.4,69.708c4.923-8.526.623-17.637-11.718-26.926l-1-.753-.61-.468-.592-.464-.575-.461-.557-.457-.272-.227h0l-.268-.226-.522-.45-.38-.335h0l-.37-.333-.478-.442-.461-.438-.444-.435-.215-.216h0l-.211-.215-.41-.428c-4.879-5.186-5.968-9.626-3.753-13.462a18.509,18.509,0,0,1,5.86-5.742L42.754,17l.531-.342q.36-.227.737-.454l.381-.226.587-.338.605-.337.466-.252h0l.476-.251.651-.334q.743-.375,1.533-.746l.532-.247.725-.328.369-.164.753-.326.383-.163.78-.324.4-.161.808-.322.411-.16.836-.32.854-.318L56,10.732l.882-.316.9-.314L58.7,9.79l.466-.156.946-.31.964-.308.983-.306,1-.3,1.02-.3,1.3-.376,1.329-.373,1.633-.444ZM45.27,0A45.178,45.178,0,0,1,60.931,2.782l.521.2-.331.1-1.612.5-.528.167-1.042.336-1.023.338-1,.341-.985.344-.966.346-.476.174-1.169.439L51.179,6.5l-.89.357-.438.18L48.99,7.4c-8.8,3.752-14.574,7.959-17.334,12.738-4.816,8.341-.448,17.334,11.895,26.62l1,.753.61.468.592.465.289.231.565.46.412.343h0l.4.341.521.452.254.225.495.447q.4.371.786.737l.375.365.54.544.513.539c4.858,5.222,5.9,9.751,3.588,13.749-1.494,2.587-4.345,5.134-8.549,7.606l-.386.225-.625.354-.644.353q-.544.294-1.115.586L42.6,76.3l-.709.349-.728.348-.746.347-.38.173-.774.345-.793.344-.811.343-.413.171-.839.341-.427.17h0l-.431.17-.876.338-.895.337-.913.335-.932.334-.951.332-.482.166-.978.33-.5.165-1.006.328L27,82.386l-1.307.406-1.336.4-1.089.321-1.52.437A45.274,45.274,0,0,1,45.27,0Z" fill="#0080ff"/></svg>