<svg xmlns="http://www.w3.org/2000/svg" width="402.714" height="49.929" viewBox="0 0 402.714 49.929"><g transform="translate(-0.001)"><path d="M41.607,0Q24.965,0,20.8,16.643,27.046,8.321,35.367,10.4c3.165.79,5.427,3.088,7.932,5.629,4.079,4.14,8.8,8.933,19.113,8.933q16.643,0,20.8-16.643-6.241,8.322-14.563,6.241c-3.165-.79-5.427-3.088-7.932-5.629C56.641,4.792,51.92,0,41.607,0ZM20.8,24.964Q4.162,24.964,0,41.608q6.241-8.322,14.562-6.241c3.166.792,5.427,3.088,7.932,5.629,4.079,4.14,8.8,8.933,19.113,8.933q16.644,0,20.8-16.643-6.241,8.322-14.563,6.241c-3.165-.79-5.427-3.088-7.932-5.629-4.079-4.141-8.8-8.934-19.113-8.934Z" fill="#38bdf8"/><path d="M153.538,21.439h-7.261V35.493c0,3.748,2.459,3.689,7.261,3.455v5.68c-9.72,1.171-13.585-1.523-13.585-9.135V21.439h-5.388v-6.09h5.388V7.484l6.324-1.874v9.739h7.261Zm27.68-6.09h6.324v29.28h-6.324V40.413a12.034,12.034,0,0,1-10.249,4.977c-7.963,0-14.58-6.734-14.58-15.4,0-8.725,6.617-15.4,14.581-15.4a12.136,12.136,0,0,1,10.248,4.918Zm-9.253,24.01a9.05,9.05,0,0,0,9.253-9.369,9.253,9.253,0,1,0-18.505,0A9.049,9.049,0,0,0,171.965,39.359Zm26.117-28.4a4.041,4.041,0,1,1,4.04-4.041A4.087,4.087,0,0,1,198.083,10.957Zm-3.162,33.671V15.349h6.324v29.28Zm13.643,0V1.881h6.325V44.628Zm47.374-29.279h6.675l-9.193,29.281h-6.207l-6.09-19.735-6.148,19.735h-6.207L219.574,15.35h6.675l5.68,20.2,6.148-20.2h6.031l6.09,20.2Zm14.523-4.391a4.041,4.041,0,1,1,4.04-4.041A4.087,4.087,0,0,1,270.461,10.957ZM267.3,44.628V15.349h6.324v29.28Zm29.044-30.041c6.559,0,11.244,4.451,11.244,12.063V44.628h-6.324V27.3c0-4.45-2.578-6.793-6.56-6.793-4.157,0-7.436,2.46-7.436,8.432V44.629h-6.324V15.349h6.324V19.1c1.933-3.045,5.094-4.509,9.077-4.509ZM337.57,3.637h6.324V44.629H337.57V40.413a12.034,12.034,0,0,1-10.248,4.977c-7.964,0-14.581-6.734-14.581-15.4,0-8.725,6.617-15.4,14.581-15.4a12.136,12.136,0,0,1,10.248,4.918Zm-9.253,35.722a9.049,9.049,0,0,0,9.252-9.369,9.253,9.253,0,1,0-18.5,0A9.048,9.048,0,0,0,328.317,39.359Zm36.774,6.031a15.141,15.141,0,0,1-15.459-15.4,15.106,15.106,0,0,1,15.459-15.4,14.465,14.465,0,0,1,13.059,7.553L372.7,25.3a8.185,8.185,0,0,0-7.671-4.509,8.931,8.931,0,0,0-9.077,9.194,8.93,8.93,0,0,0,9.077,9.193,8.6,8.6,0,0,0,7.788-4.509l5.445,3.1a14.719,14.719,0,0,1-13.175,7.613Zm23.6-21.96c0,5.329,15.752,2.108,15.752,12.942,0,5.856-5.094,9.018-11.418,9.018-5.856,0-10.073-2.635-11.946-6.851l5.446-3.163c.937,2.635,3.279,4.216,6.5,4.216,2.81,0,4.977-.936,4.977-3.279,0-5.212-15.752-2.283-15.752-12.766,0-5.5,4.743-8.959,10.716-8.959,4.8,0,8.784,2.224,10.833,6.089l-5.328,2.987a5.709,5.709,0,0,0-5.505-3.338c-2.283,0-4.275,1-4.275,3.1Zm27,0c0,5.329,15.752,2.108,15.752,12.942,0,5.856-5.094,9.018-11.419,9.018-5.856,0-10.072-2.635-11.946-6.851l5.446-3.163c.937,2.635,3.28,4.216,6.5,4.216,2.811,0,4.977-.936,4.977-3.279,0-5.212-15.752-2.283-15.752-12.766,0-5.5,4.743-8.959,10.717-8.959,4.8,0,8.783,2.224,10.833,6.089l-5.329,2.987a5.708,5.708,0,0,0-5.5-3.338c-2.284,0-4.275,1-4.275,3.1Z" transform="translate(-28.723 -0.401)" fill="#0f172a"/></g></svg>