<svg xmlns="http://www.w3.org/2000/svg" width="160.288" height="50" viewBox="0 0 160.288 50"><g transform="translate(0 0.01)"><path d="M110.188,30.063H96.053c-.41.1-.2.051-.475,1.174a9.085,9.085,0,0,1-5.439,6.51,16.041,16.041,0,0,1-11.461-.1c-7.221-3.213-8.818-12.429-6.285-18.714a12,12,0,0,1,6.76-6.792,16.045,16.045,0,0,1,11.429.3,9.057,9.057,0,0,1,5,6.824c.167.827.1.712.988.705,4.47-.051,9.088.135,13.532-.019.212-3.034-1.488-7.337-2.771-9.37a19.89,19.89,0,0,0-6.2-6.17C95.239.677,89.088-.42,80.764.119c-7.7.494-13.507,3.264-17.509,7.138-8.774,8.511-9.7,26.25.032,35.4l1.6,1.456c4.207,3.566,10.338,5.291,15.924,5.734,7.549.6,15-.673,20.247-4.124a20.09,20.09,0,0,0,9.133-15.681ZM0,15.633l18.15.013.019,32.529,16.213.013.032-32.516,18.137-.019V2.543L.051,2.5ZM118.885,48.168l41.3.032c.148-1.026.135-12.006-.045-12.564l-25.57-.019V2.511L118.9,2.466c-.231,1.206-.071,35.96-.071,40a47.992,47.992,0,0,0,.064,5.708Z" fill="#ed3237" fill-rule="evenodd"/><path d="M1854.813,86.326h41.071l.045-12.217c-1.719-.013-24.563.16-25.512-.1a.8.8,0,0,1-.128-.577V40.9h-15.475l-.013,45.413Z" transform="translate(-1735.844 -38.286)" fill="#ed3237" fill-rule="evenodd"/></g></svg>