<svg xmlns="http://www.w3.org/2000/svg" xmlns:xlink="http://www.w3.org/1999/xlink" width="128.974" height="23.148" viewBox="0 0 128.974 23.148"><defs><clipPath id="a"><rect width="128.974" height="23.149" fill="#fff"/></clipPath></defs><g clip-path="url(#a)"><path d="M112.056,21.024l-5.067-10.937a.348.348,0,0,0-.631,0L101.39,21.021a.35.35,0,0,1-.317.2H99.816a.345.345,0,0,1-.314-.491l6.855-15a.347.347,0,0,1,.631,0l6.855,15a.347.347,0,0,1-.314.491h-1.153a.341.341,0,0,1-.314-.2Z" transform="translate(-28.197 -1.567)" fill="#f7414b"/><path d="M74.26,4.846H73.117a.346.346,0,0,0-.347.346V20.686a.346.346,0,0,0,.347.346H74.26a.346.346,0,0,0,.346-.346V5.192A.346.346,0,0,0,74.26,4.846Z" transform="translate(-20.629 -1.374)" fill="#f7414b"/><path d="M126.023,14.229l.016,9.054a.347.347,0,0,0,.35.346h1.139a.352.352,0,0,0,.347-.352l-.016-7.271a.4.4,0,0,0-.09-.255l-1.331-1.667a.234.234,0,0,0-.418.145Z" transform="translate(-35.724 -3.967)" fill="#f7414b"/><path d="M140.763,20.685,140.744,5.2a.347.347,0,0,0-.35-.346h-1.14a.352.352,0,0,0-.346.352l.013,13.11L128.106,4.984a.349.349,0,0,0-.269-.129h-1.467a.346.346,0,0,0-.269.565l12.563,15.488a.351.351,0,0,0,.265.129l1.483.019a.346.346,0,0,0,.35-.352v-.019Z" transform="translate(-35.725 -1.376)" fill="#f7414b"/><path d="M.009.422.547,2.561a.334.334,0,0,0,.259.249l9.772,2.145a.708.708,0,0,1,.554.643l.8,11.528a.348.348,0,0,0,.094.213l.246.255a.337.337,0,0,0,.492,0l.246-.255a.348.348,0,0,0,.094-.213L13.91,5.6a.715.715,0,0,1,.554-.643l9.772-2.145a.344.344,0,0,0,.259-.249L25.033.422A.327.327,0,0,0,24.945.1a.334.334,0,0,0-.317-.1L12.67,2.625a.692.692,0,0,1-.3,0L.414.009A.2.2,0,0,0,.34,0,.334.334,0,0,0,.1.1.335.335,0,0,0,.009.422Z" transform="translate(0 0.001)" fill="#f7414b"/><path d="M22.909,25.6l.567-.149a.256.256,0,0,0,.194-.2l2.62-12.733a.621.621,0,0,1,.466-.491l2.4-.578a.252.252,0,0,0,.188-.187l.57-2.274a.243.243,0,0,0-.068-.242.253.253,0,0,0-.178-.074.2.2,0,0,0-.061.006l-5.77,1.392a.251.251,0,0,0-.194.229L22.6,25.332a.251.251,0,0,0,.091.213.258.258,0,0,0,.227.052Z" transform="translate(-6.405 -2.457)" fill="#f7414b"/><path d="M8.588,10.072,2.818,8.68a.2.2,0,0,0-.062-.006.248.248,0,0,0-.178.074.256.256,0,0,0-.068.242l.57,2.274a.252.252,0,0,0,.188.187l2.4.578a.621.621,0,0,1,.466.494l2.62,12.723a.257.257,0,0,0,.191.207l.573.149a.24.24,0,0,0,.22-.055.252.252,0,0,0,.091-.213L8.782,10.3a.251.251,0,0,0-.194-.229Z" transform="translate(-0.71 -2.459)" fill="#f7414b"/><path d="M88.88,12.351V22.81a.346.346,0,0,0,.347.346h1.14a.346.346,0,0,0,.346-.346V12.351H88.88Z" transform="translate(-25.195 -3.501)" fill="#f7414b"/><path d="M93.131,4.859H82.847A.346.346,0,0,0,82.5,5.2V6.342a.346.346,0,0,0,.347.346H93.131a.346.346,0,0,0,.346-.346V5.2A.346.346,0,0,0,93.131,4.859Z" transform="translate(-23.387 -1.378)" fill="#f7414b"/><path d="M60.9,4.859H50.617a.346.346,0,0,0-.346.346V6.339a.346.346,0,0,0,.346.346h3.876a.176.176,0,0,0,.036.006h2.458a.176.176,0,0,1,.036-.006H60.9a.346.346,0,0,0,.347-.346V5.2a.346.346,0,0,0-.347-.346Z" transform="translate(-14.251 -1.378)" fill="#f7414b"/><path d="M56.65,12.351v10.4a.346.346,0,0,0,.346.346h1.14a.346.346,0,0,0,.347-.346v-10.4H56.65Z" transform="translate(-16.058 -3.501)" fill="#f7414b"/><path d="M156.592,13.526a4.526,4.526,0,0,1-1.733-1.689,4.631,4.631,0,0,1-.631-2.4,4.631,4.631,0,0,1,.631-2.4,4.548,4.548,0,0,1,1.733-1.689,5.28,5.28,0,0,1,4.941-.006,4.484,4.484,0,0,1,1.732,1.683,4.662,4.662,0,0,1,.632,2.41,4.653,4.653,0,0,1-.632,2.41,4.507,4.507,0,0,1-1.732,1.683,5.28,5.28,0,0,1-4.941-.006Zm4.581-.536a3.888,3.888,0,0,0,1.486-1.463A4.072,4.072,0,0,0,163.2,9.44a4.072,4.072,0,0,0-.545-2.087,3.888,3.888,0,0,0-1.486-1.463,4.485,4.485,0,0,0-4.229,0,3.885,3.885,0,0,0-1.493,1.463,4.071,4.071,0,0,0-.544,2.087,4.071,4.071,0,0,0,.544,2.087,3.885,3.885,0,0,0,1.493,1.463,4.485,4.485,0,0,0,4.229,0Z" transform="translate(-43.72 -1.343)" fill="#f7414b"/><path d="M172.046,13.789a3.735,3.735,0,0,1-1.441-.908l.3-.5a3.573,3.573,0,0,0,1.321.84,4.758,4.758,0,0,0,1.745.323,3.331,3.331,0,0,0,2-.5,1.563,1.563,0,0,0,.677-1.311,1.374,1.374,0,0,0-.36-.995,2.379,2.379,0,0,0-.89-.568,12.392,12.392,0,0,0-1.434-.41,13.6,13.6,0,0,1-1.639-.491,2.6,2.6,0,0,1-1.049-.736,1.96,1.96,0,0,1-.431-1.331,2.255,2.255,0,0,1,.359-1.237,2.466,2.466,0,0,1,1.095-.895,4.511,4.511,0,0,1,1.839-.333,5.134,5.134,0,0,1,1.512.226,4.361,4.361,0,0,1,1.289.61l-.253.543a4.323,4.323,0,0,0-1.227-.581,4.633,4.633,0,0,0-1.321-.2,3.132,3.132,0,0,0-1.953.517,1.619,1.619,0,0,0-.664,1.337,1.36,1.36,0,0,0,.36.992,2.342,2.342,0,0,0,.891.568,13.031,13.031,0,0,0,1.447.423,13.069,13.069,0,0,1,1.632.491,2.7,2.7,0,0,1,1.043.72,1.881,1.881,0,0,1,.431,1.3,2.195,2.195,0,0,1-.365,1.231,2.5,2.5,0,0,1-1.121.888,4.588,4.588,0,0,1-1.859.329,5.4,5.4,0,0,1-1.946-.352Z" transform="translate(-48.363 -1.341)" fill="#f7414b"/></g></svg>