<svg xmlns="http://www.w3.org/2000/svg" xmlns:xlink="http://www.w3.org/1999/xlink" width="166.037" height="33.857" viewBox="0 0 166.037 33.857"><defs><linearGradient id="a" x1="0.5" y1="1" x2="0.5" gradientUnits="objectBoundingBox"><stop offset="0" stop-color="#0052cc"/><stop offset="1" stop-color="#2684ff"/></linearGradient></defs><g transform="translate(-0.58 -0.07)"><path d="M29.937.07H4.54A3.96,3.96,0,0,0,.58,4.025v25.36a3.96,3.96,0,0,0,3.96,3.976h25.4a3.96,3.96,0,0,0,3.955-3.976V4.025A3.96,3.96,0,0,0,29.937.07ZM14.946,24.048a1.324,1.324,0,0,1-1.334,1.318H8.062a1.318,1.318,0,0,1-1.313-1.318V7.531A1.318,1.318,0,0,1,8.062,6.213h5.55A1.324,1.324,0,0,1,14.93,7.531Zm12.808-7.584a1.318,1.318,0,0,1-1.334,1.318H20.87a1.324,1.324,0,0,1-1.318-1.318V7.531A1.324,1.324,0,0,1,20.87,6.213h5.55a1.318,1.318,0,0,1,1.313,1.318Z" fill-rule="evenodd" fill="url(#a)"/><g transform="translate(46.999 0.07)"><path d="M23.166,4.64v6.436H15.54V35.492H8.186V11.076H.56V4.64Z" transform="translate(-0.56 -2.201)" fill="#293856"/><path d="M54.519,41.159h-6.8V17.144h6.8v4.6c1.291-3.239,3.357-5.166,7.034-4.931v7.114c-4.8-.374-7.034.8-7.034,4.648Z" transform="translate(-22.552 -7.869)" fill="#293856"/><path d="M136.9,33.547c-4.456,0-7.258-2.135-7.258-7.183V.07h6.847V25.425c0,1.457.961,1.975,2.135,1.975a7.514,7.514,0,0,0,1.014-.048V33.27A10.006,10.006,0,0,1,136.9,33.547Z" transform="translate(-60.753 -0.07)" fill="#293856"/><path d="M163.653,33.547c-4.456,0-7.263-2.135-7.263-7.183V.07h6.847V25.425c0,1.457.966,1.975,2.161,1.975a7.4,7.4,0,0,0,1.009-.048V33.27A9.958,9.958,0,0,1,163.653,33.547Z" transform="translate(-73.228 -0.07)" fill="#293856"/><path d="M181.31,29.013c0-7.418,4.269-12.493,11.623-12.493s11.533,5.059,11.533,12.493S200.239,41.6,192.933,41.6,181.31,36.383,181.31,29.013Zm6.666,0c0,3.613,1.516,6.479,4.958,6.479s4.872-2.866,4.872-6.479-1.468-6.4-4.872-6.4S187.976,25.4,187.976,29.013Z" transform="translate(-84.848 -7.741)" fill="#293856"/><path d="M85.044,31.176a56.484,56.484,0,0,0,5.732.336c5.209,0,9.606-1.4,9.606-6.441,0-4.894-4.52-8.571-9.958-8.571C83.1,16.5,78.41,21.81,78.41,29.228c0,7.7,4.045,12.275,13.187,12.275a21.923,21.923,0,0,0,7.941-1.42V34.33a25.535,25.535,0,0,1-7.7,1.5c-3.64,0-6.175-1.2-6.794-4.654Zm5.241-9.435a3.246,3.246,0,0,1,3.474,3.1c0,2.3-2.428,3.021-5.225,3.021a23.85,23.85,0,0,1-3.554-.283,8.09,8.09,0,0,1,.945-3.2,5.033,5.033,0,0,1,4.36-2.62Z" transform="translate(-36.863 -7.732)" fill="#293856"/></g></g></svg>