<svg xmlns="http://www.w3.org/2000/svg" width="174.078" height="75.096" viewBox="0 0 174.078 75.096"><path d="M668.485,27.72h7.437l.016-7.135c.06-.176,1.787-2.308,2.209-2.83l6.607,9.96,8.813-.009L683.246,12.082l9.224-12H684.4s-7.24,9.784-8.5,11.344V.08H668.48Z" transform="translate(-550.891 -0.066)" fill="#ee1c25"/><path d="M515.26,27.722h7.425l-.011-8.607h2.471l4.869,8.619h8.032l-5.669-9.8a8.249,8.249,0,0,0,4.975-7.587c.028-3.87-1.481-9.638-10.138-10.238L515.265.1Zm7.425-21.307,3.947.035a3.319,3.319,0,0,1,3.275,3.467c-.093,2.8-1.852,3.5-4.13,3.5h-3.1Z" transform="translate(-424.623 -0.082)" fill="#ee1c25"/><path d="M207.75,6.576h7.392l-.023,21.214h7.443L222.6,6.4l7.286.007L229.9.18H207.75Z" transform="translate(-171.206 -0.148)" fill="#ee1c25"/><path d="M350.551,6.187l4.939-.012v1.9H350.53l.021,10.046c.241,3.316,2.111,9.842,12,9.974,3.242.044,11.49-1.159,11.953-10.521V.014L367.056,0V6.253L372,6.187V8.055H367.06l.018,9.323a4.334,4.334,0,0,1-4.649,4.377c-2.684,0-4.116-1.451-4.489-3.951V.014h-7.4Z" transform="translate(-288.87)" fill="#ee1c25"/><path d="M107.269,224.331c1.377.04,7.441.012,7.441.012l-.03-7.925,4.684-.012a11.88,11.88,0,0,0,6.669-2.362c2.927-2.22,3.235-5.02,3.307-7.881.109-5.506-4.628-9.467-9.659-9.467l-12.451-.026ZM117.04,210.2l-2.338-.011v-7.272l3.712.009a3.328,3.328,0,0,1,3.488,3.629c0,2.814-1.773,3.822-4.862,3.645" transform="translate(-88.368 -162.075)" fill="#ee1c25"/><path d="M343.04,202.813h7.316v21.406l7.428.009-.005-21.424h7.332v-6.246l-22.071-.018Z" transform="translate(-282.697 -161.968)" fill="#ee1c25"/><path d="M486.79,224.236l19.976.009.009-6.278-12.54,0,0-4.716,9.969,0v-5.995l-9.979.009v-4.454H506.2l.009-6.253L486.8,196.55Z" transform="translate(-401.161 -161.976)" fill="#ee1c25"/><path d="M211.08,220.956h7.3c-.07,0,1.135-2.684,1.367-3.311l9.613-.014,1.437,3.335,7.68-.014L224.9,192.57h-.222Zm13.393-14.521,2.391,5.726h-4.841Z" transform="translate(-173.95 -158.696)" fill="#ee1c25"/><path d="M786.41,202.847l7.265.009v21.42l7.439,0s0-9.214-.019-21.406l7.353-.023.011-6.26-22.045.011Z" transform="translate(-648.076 -162.009)" fill="#ee1c25"/><path d="M626.47,221.205h7V207.5c1.022.672,5,4.06,9,7.379,4.26,3.534,8.54,6.983,8.54,6.983l.3.032.023-28.381-6.987-.018.012,13.831c-1.645-1.254-8.053-6.663-9.1-7.531-1.071-.894-6.961-5.719-8.338-6.86a.485.485,0,0,0-.427-.063Z" transform="translate(-516.27 -158.922)" fill="#ee1c25"/><path d="M883.88,126.837h11.269v39.45l-11.26-.011v7.268h18.577l.012-54.045-18.588.005Z" transform="translate(-728.401 -98.479)" fill="#231f20"/><path d="M18.593,126.825H7.268l.025,39.422H18.632v7.275L0,173.542.021,119.46H18.593Z" transform="translate(0 -98.446)" fill="#231f20"/><path d="M165.34,386.657v.128a.642.642,0,0,0,.6.568.634.634,0,0,0,.605-.528v-.218a.64.64,0,0,0-.605-.528.626.626,0,0,0-.6.565" transform="translate(-136.256 -318.166)" fill="#231f20"/><path d="M733.84,400.964h1.133v-1.842h.658s1.013,1.622,1.066,1.852h1.365l-1.24-2.028a1.574,1.574,0,0,0,1.006-1.388v-.478a1.67,1.67,0,0,0-1.722-1.56H733.84Zm2.139-2.873h-1v-1.508h.961c.5,0,.728.236.728.76a.656.656,0,0,1-.688.749" transform="translate(-604.753 -325.946)" fill="#231f20"/><path d="M161.12,399.3a1.948,1.948,0,0,0,1.852,1.789h.734a1.927,1.927,0,0,0,1.854-1.747V395.59h-1.119v3.578a.867.867,0,0,1-.821.9h-.431a.888.888,0,0,1-.946-.853V395.59h-1.121Z" transform="translate(-132.778 -326.004)" fill="#231f20"/><path d="M705.212,399.128c0,.489-.352.922-.7.9h-.352c-.758,0-1.036-.4-1.036-1.147v-3.314H702V399.3a1.96,1.96,0,0,0,1.935,1.741h.647a1.875,1.875,0,0,0,1.775-1.692v-3.8H705.21Z" transform="translate(-578.514 -325.971)" fill="#231f20"/><path d="M502.569,400.807h1.121v-2.735c.392.5,1.5,1.747,1.5,1.747-.046.011.132-.012.2,0l1.546-1.835-.025,2.839,1.1.009.044-5.5h-.208c-.5.591-2.215,2.572-2.544,2.883-.853-.959-1.773-1.935-2.586-2.885a.8.8,0,0,0-.153,0Z" transform="translate(-414.157 -325.789)" fill="#231f20"/><path d="M132.05,396.728l1.52,0,.028,4.387h1.11l0-4.387h1.551l.009-1.036H132.05Z" transform="translate(-108.822 -326.086)" fill="#231f20"/><path d="M222.53,400.885h1.159l.012-1.541s.3-.352.486-.605c.176.271,1.407,2.151,1.407,2.151l1.367-.012c-.176-.329-1.995-2.957-1.972-3.013s1.551-2.034,1.808-2.387l-1.354-.028c-.1.2-.735,1.085-.9,1.312s-.315.413-.487.639a3.388,3.388,0,0,1-.343.44v-.23l.011-2.137h-1.182Z" transform="translate(-183.386 -325.888)" fill="#231f20"/><path d="M537.47,400.853h1.17a5.514,5.514,0,0,1,.3-.7h2.032l.289.7h1.231L540.04,395.4h-.151Zm2.463-3.284.6,1.583H539.31Z" transform="translate(-442.926 -325.847)" fill="#231f20"/><path d="M307.98,396.67h1.555v4.362h1.175l-.018-4.362h1.6v-1.04H307.98Z" transform="translate(-253.805 -326.036)" fill="#231f20"/><path d="M463.58,400.964H467.3l.021-1.045-2.579.011v-1.182h2.178l0-1H464.75v-1.157l2.443-.007v-1.054l-3.608-.005Z" transform="translate(-382.034 -325.946)" fill="#231f20"/><path d="M395.067,396.638l1.544,0v4.364h1.163v-4.37h1.508l0-1.057-4.218-.009Z" transform="translate(-325.567 -325.987)" fill="#231f20"/><path d="M192.85,400.941h1.164v-1.852h.668c.06.208,1.089,1.843,1.089,1.843h1.316l-1.175-2.049a1.6,1.6,0,0,0,1.073-1.515v-.125a1.8,1.8,0,0,0-1.895-1.724H192.85Zm1.164-4.361h.957c.681,0,.693.373.734.8,0,.528-.4.718-.862.718l-.829-.026Z" transform="translate(-158.927 -325.946)" fill="#231f20"/><path d="M263.57,400.986h1.163v-1.629h.948a1.783,1.783,0,0,0,1.9-1.692v-.391a1.823,1.823,0,0,0-1.9-1.694H263.57Zm1.163-4.362h.9a.753.753,0,0,1,.7.727l-.012.216c.018.343-.392.684-1,.684h-.6Z" transform="translate(-217.207 -325.995)" fill="#231f20"/><path d="M364.45,400.8h1.077l.016-2.475v-.6c.536.591.7.721,1.172,1.2.193.2,1.407,1.289,1.988,1.872h.243v-5.435h-1.108v2.814l.047.32c-.614-.712-1.04-1.041-1.627-1.641a15.4,15.4,0,0,0-1.662-1.506.3.3,0,0,0-.141-.035Z" transform="translate(-300.341 -325.781)" fill="#231f20"/><path d="M433.5,400.981h.209c.125-.352.4-.99.512-1.2.213-.427.434-.973.616-1.421.375-.828.785-1.655,1.2-2.814h-1.154c-.658,1.543-.633,1.53-1.24,3.207-.445-1.272-1.175-2.623-1.33-3.2H431.05Z" transform="translate(-355.226 -325.962)" fill="#231f20"/><path d="M571.08,401.115h1.161v-1.889h.734a10.048,10.048,0,0,0,1.165,1.845h1.223l-1.223-2.005a1.622,1.622,0,0,0,1.075-1.43v-.308a1.832,1.832,0,0,0-1.979-1.638H571.08Zm1.161-4.413h.95c.4,0,.818.225.818.591v.419c0,.352-.413.589-.774.589h-.994Z" transform="translate(-470.624 -326.086)" fill="#231f20"/><path d="M174.76,386.657v.128a.642.642,0,0,0,.607.568.633.633,0,0,0,.6-.528v-.218a.64.64,0,0,0-.6-.528.626.626,0,0,0-.607.565" transform="translate(-144.019 -318.166)" fill="#231f20"/><path d="M282.44,400.853h1.17a5.523,5.523,0,0,1,.3-.7h2.032l.288.7h1.223L285,395.4h-.148Zm2.463-3.284.6,1.583h-1.221Z" transform="translate(-232.757 -325.847)" fill="#231f20"/><path d="M336.85,400.964h3.713l.021-1.045-2.577.011v-1.182h2.176v-1h-2.167v-1.157l2.445-.007v-1.054l-3.606-.005Z" transform="translate(-277.596 -325.946)" fill="#231f20"/><path d="M601.93,400.885h1.157l.012-1.541s.306-.352.489-.605c.176.271,1.407,2.151,1.407,2.151l1.365-.012c-.164-.329-1.995-2.957-1.972-3.013s1.552-2.034,1.812-2.387l-1.355-.028c-.1.2-.739,1.085-.908,1.312s-.315.413-.485.639a3.231,3.231,0,0,1-.352.44v-.23l.012-2.137h-1.182Z" transform="translate(-496.047 -325.888)" fill="#231f20"/><path d="M629.46,400.853h1.17a5.523,5.523,0,0,1,.3-.7h2.032l.288.7h1.231L632.03,395.4h-.151Zm2.463-3.284.6,1.583H631.3Z" transform="translate(-518.734 -325.847)" fill="#231f20"/><path d="M673.21,400.8h1.157l.012-1.541s.306-.352.489-.605c.176.271,1.407,2.151,1.407,2.151l1.365-.011c-.176-.329-1.995-2.959-1.972-3.013s1.552-2.035,1.808-2.387l-1.351-.026c-.1.192-.739,1.082-.908,1.309s-.315.413-.487.639a2.913,2.913,0,0,1-.352.44v-.227l.011-2.137h-1.18Z" transform="translate(-554.789 -325.822)" fill="#231f20"/><path d="M794.26,400.842h1.121v-2.734c.394.5,1.5,1.747,1.5,1.747-.047.012.13-.012.2,0l1.546-1.835-.009,2.83,1.1.012.042-5.5c-.026,0-.206.009-.206.009-.5.589-2.216,2.568-2.545,2.88-.851-.957-1.771-1.935-2.584-2.885a.8.8,0,0,0-.155-.009Z" transform="translate(-654.545 -325.811)" fill="#231f20"/><path d="M835.87,399.128c0,.489-.352.922-.7.9h-.352c-.758,0-1.034-.4-1.034-1.147v-3.314H832.66V399.3a1.96,1.96,0,0,0,1.935,1.741h.647a1.874,1.874,0,0,0,1.775-1.692v-3.8H835.87Z" transform="translate(-686.19 -325.971)" fill="#231f20"/><path d="M766.061,399.108c0,.489-.352.923-.7.9h-.343c-.758,0-1.034-.4-1.034-1.143v-3.316h-1.12v3.736a1.96,1.96,0,0,0,1.935,1.741h.647a1.872,1.872,0,0,0,1.775-1.69v-3.8H766.07Z" transform="translate(-628.669 -325.954)" fill="#231f20"/></svg>