<svg xmlns="http://www.w3.org/2000/svg" width="231.262" height="50" viewBox="0 0 231.262 50"><path d="M446.37.8h16.44V43.25h17.975V50.1H446.37Z" transform="translate(-249.523 -0.447)" fill="#dd052b"/><path d="M363.88.8h32.7V6.617H379.628V23.053h15.413v5.821H379.628V43.25h17.984V50.1H363.88Z" transform="translate(-203.411 -0.447)" fill="#dd052b"/><path d="M267.79.8h39.54V7.142H295.687V50.1H279.944V7.142H267.79Z" transform="translate(-149.696 -0.447)" fill="#dd052b"/><path d="M224.612,0H211.245s-15.876.569-17.1,15.32,15.241,14.447,18.315,20.749c1.958,4.031-2.844,7.109-6.915,7.109H194.523V50h18.689s19.576-1.058,16.824-17.856c-1.764-10.84-13.737-9.155-17.75-16.44s2.986-9.345,3.731-9.345h8.5Z" transform="translate(-108.494)" fill="#dd052b"/><path d="M110.18.8H143.4V6.617H125.932V23.053h15.413v5.821H125.932V43.25h18.491V50.1H110.18Z" transform="translate(-61.591 -0.447)" fill="#dd052b"/><path d="M38.459.78l-10.6,34.4L16.925.78H0L17.358,50.074H30.005L46.926.78Z" transform="translate(0 -0.436)" fill="#dd052b"/></svg>