<svg xmlns="http://www.w3.org/2000/svg" xmlns:xlink="http://www.w3.org/1999/xlink" width="96.456" height="96.577" viewBox="0 0 96.456 96.577"><defs><clipPath id="a"><path d="M.33,46.8l46.209,81.033a2.463,2.463,0,0,0,4.289-.018L96.138,46.792a2.463,2.463,0,0,0-2.591-3.625L49.136,51.262a2.462,2.462,0,0,1-.875,0L2.9,43.156a2.586,2.586,0,0,0-.452-.041A2.465,2.465,0,0,0,.33,46.8" transform="translate(0 -43.115)" fill="none"/></clipPath><linearGradient id="b" x1="0.129" y1="0.836" x2="0.131" y2="0.836" gradientUnits="objectBoundingBox"><stop offset="0" stop-color="#41d1ff"/><stop offset="1" stop-color="#bd34fe"/></linearGradient><clipPath id="c"><path d="M171.964,0a1.28,1.28,0,0,0-.234.024L138.2,6.594a1.231,1.231,0,0,0-.992,1.136l-2.063,34.836a1.231,1.231,0,0,0,1.506,1.273l9.336-2.154a1.231,1.231,0,0,1,1.483,1.446L144.7,56.712a1.231,1.231,0,0,0,1.564,1.425l5.766-1.752a1.231,1.231,0,0,1,1.564,1.427l-4.407,21.334a1.231,1.231,0,0,0,2.239.918l.494-.764,27.323-54.528a1.231,1.231,0,0,0-1.334-1.761L168.3,24.866a1.231,1.231,0,0,1-1.416-1.55L173.15,1.573A1.232,1.232,0,0,0,171.984,0Z" transform="translate(-135.142)" fill="none"/></clipPath><linearGradient id="d" x1="-0.494" y1="1.145" x2="-0.49" y2="1.145" gradientUnits="objectBoundingBox"><stop offset="0" stop-color="#ffea83"/><stop offset="0.083" stop-color="#ffdd35"/><stop offset="1" stop-color="#ffa800"/></linearGradient></defs><g transform="translate(0)"><g transform="translate(0 10.617)"><g clip-path="url(#a)"><rect width="130.148" height="127.796" transform="matrix(0.805, -0.593, 0.593, 0.805, -42.025, 30.161)" fill="url(#b)"/></g></g><g transform="translate(33.28)"><g clip-path="url(#c)"><rect width="55.848" height="86.792" transform="translate(-11.638 1.69) rotate(-8.294)" fill="url(#d)"/></g></g></g></svg>