<svg xmlns="http://www.w3.org/2000/svg" width="66.807" height="16.49" viewBox="0 0 66.807 16.49"><g transform="translate(0.766 0.467)"><g transform="translate(0 0)"><path d="M76.937,11.324c0,3.4,2.335,5.093,5.732,5.093,3.821,0,5.733-1.485,5.733-4.032h0c0-2.925-1.912-3.539-5.733-4.625-2.638-.695-4.163-1.383-4.163-3.05h0c0-1.947,1.46-2.85,4.142-2.85h0c2.52,0,4.182.88,4.182,3.522h1.147c0-3.395-2.124-4.669-5.308-4.669-3.4,0-5.308,1.274-5.308,3.82,0,2.479,1.91,3.438,5.306,4.406,2.819.779,4.588,1.126,4.588,3.445,0,1.94-1.677,2.887-4.6,2.887h0c-2.617,0-4.569-1.175-4.569-3.947Z" transform="translate(-22.92 -0.714)" fill="#c30036"/><path d="M61.432.713a7.851,7.851,0,1,0,7.856,7.853A7.851,7.851,0,0,0,61.432.713m0,14.558a6.707,6.707,0,1,1,6.709-6.707,6.707,6.707,0,0,1-6.709,6.707" transform="translate(-16.122 -0.713)" fill="#c30036"/><path d="M43.252,5.044A3.968,3.968,0,0,0,39.727,6.77V1.012H38.581v9.762h1.146c0-2.886,1.282-4.585,3.525-4.585s3.525,1.7,3.525,4.585-1.282,4.585-3.525,4.585a3.248,3.248,0,0,1-3.295-2.676H38.768a4.336,4.336,0,0,0,4.487,3.82c2.972,0,4.671-2.121,4.671-5.729s-1.7-5.729-4.671-5.729" transform="translate(-11.742 -0.8)" fill="#747a7e"/><path d="M27.671,17.005c-2.243,0-3.526-1.694-3.526-4.573h8.2c0-3.608-1.7-5.729-4.67-5.729S23,8.825,23,12.432s1.7,5.729,4.671,5.729a4.339,4.339,0,0,0,4.487-3.82H30.964a3.245,3.245,0,0,1-3.293,2.663m0-9.147c1.927,0,3.145,1.251,3.447,3.427h-6.9c.3-2.177,1.522-3.427,3.448-3.427" transform="translate(-7.2 -2.459)" fill="#747a7e"/><path d="M5.47,18.036,8.388,8.782l2.918,9.254h1.289L16.074,7h-1.2L11.95,16.268,9.028,7H7.746L4.825,16.268,1.9,7H.7L4.18,18.036Z" transform="translate(-0.7 -2.545)" fill="#747a7e"/></g></g><rect width="66.807" height="16.49" transform="translate(0)" fill="none"/></svg>